<?xml version="1.0" encoding="UTF-8" standalone="no"?>
<!-- Created with Inkscape (http://www.inkscape.org/) -->

<svg
   version="1.1"
   id="svg2"
   xml:space="preserve"
   width="1067.1505"
   height="134.82353"
   viewBox="0 0 1067.1505 134.82353"
   sodipodi:docname="afd_homework_2_data_1.svg"
   inkscape:version="1.1 (c4e8f9ed74, 2021-05-24)"
   xmlns:inkscape="http://www.inkscape.org/namespaces/inkscape"
   xmlns:sodipodi="http://sodipodi.sourceforge.net/DTD/sodipodi-0.dtd"
   xmlns="http://www.w3.org/2000/svg"
   xmlns:svg="http://www.w3.org/2000/svg"><sodipodi:namedview
     id="namedview75"
     pagecolor="#ffffff"
     bordercolor="#666666"
     borderopacity="1.0"
     inkscape:pageshadow="2"
     inkscape:pageopacity="0.0"
     inkscape:pagecheckerboard="0"
     showgrid="false"
     inkscape:zoom="1.1169933"
     inkscape:cx="533.57526"
     inkscape:cy="67.592168"
     inkscape:window-width="1366"
     inkscape:window-height="740"
     inkscape:window-x="0"
     inkscape:window-y="0"
     inkscape:window-maximized="1"
     inkscape:current-layer="svg2" /><defs
     id="defs6" /><path
     d="M 1.8882936,132.93598 H 1065.2622 V 1.8875094 H 1.8882936 Z"
     style="fill:none;stroke:#000000;stroke-width:3.77581;stroke-linecap:square;stroke-linejoin:bevel;stroke-miterlimit:10;stroke-dasharray:none;stroke-opacity:1"
     id="path22" /><path
     d="M 3.7765781,52.041863 H 1063.3739"
     style="fill:none;stroke:#000000;stroke-width:0.269701;stroke-linecap:square;stroke-linejoin:bevel;stroke-miterlimit:10;stroke-dasharray:none;stroke-opacity:1"
     id="path24" /><path
     d="m 62.132147,40.538104 v -2.470016 c -1.241646,1.9416 -3.067234,2.9124 -5.476763,2.9124 -1.561277,0 -2.996546,-0.430096 -4.305805,-1.290304 -1.309259,-0.860192 -2.323475,-2.061408 -3.042646,-3.603632 -0.719172,-1.542224 -1.078756,-3.314848 -1.078756,-5.317888 0,-1.953888 0.325778,-3.726528 0.977335,-5.317904 0.651557,-1.59136 1.628891,-2.811008 2.932003,-3.658928 1.303114,-0.847904 2.759896,-1.271872 4.370347,-1.271872 1.180176,0 2.231272,0.248848 3.153287,0.746544 0.922014,0.49768 1.671918,1.145904 2.249715,1.944672 v -9.695712 h 3.300809 v 27.02264 z m -10.492518,-9.76944 c -2e-6,2.506864 0.52862,4.38088 1.585864,5.622032 1.057241,1.241152 2.305033,1.861728 3.743376,1.861728 1.450635,0 2.68306,-0.592928 3.697275,-1.778784 1.014216,-1.18584 1.521323,-2.995344 1.521323,-5.42848 0,-2.678928 -0.516328,-4.645104 -1.548982,-5.898528 -1.032656,-1.25344 -2.305036,-1.88016 -3.817138,-1.88016 -1.475222,0 -2.707648,0.602144 -3.697277,1.806416 -0.989629,1.204288 -1.484443,3.10288 -1.484441,5.695776 z m 19.047331,9.76944 v -27.02264 h 10.142153 c 2.065309,0 3.72186,0.273424 4.969655,0.820256 1.24779,0.546848 2.225125,1.388624 2.932005,2.525312 0.706873,1.136704 1.060313,2.325616 1.060315,3.566768 -2e-6,1.155136 -0.313487,2.242672 -0.940455,3.262624 -0.626971,1.019952 -1.573571,1.843296 -2.839801,2.470016 1.635035,0.479248 2.892046,1.296448 3.771037,2.451568 0.878984,1.155136 1.31848,2.519168 1.31848,4.092112 0,1.265728 -0.267384,2.442352 -0.802152,3.529888 -0.534768,1.087552 -1.195548,1.92624 -1.98233,2.516096 -0.78679,0.589856 -1.773346,1.035312 -2.959666,1.336384 -1.186326,0.301072 -2.640033,0.451616 -4.361124,0.451616 z m 3.577414,-15.667968 h 5.845568 c 1.585864,0 2.723013,-0.104464 3.411451,-0.31336 0.90972,-0.270352 1.595085,-0.71888 2.056092,-1.3456 0.461006,-0.62672 0.69151,-1.4132 0.69151,-2.359424 0,-0.897056 -0.215138,-1.686608 -0.64541,-2.368624 C 85.19331,17.801112 84.578633,17.334152 83.779558,17.082232 82.980477,16.830312 81.60975,16.70436 79.667376,16.70436 h -5.403002 z m 0,12.479072 h 6.730703 c 1.155588,0 1.96696,-0.04301 2.434115,-0.129024 0.823664,-0.147472 1.512104,-0.393248 2.065312,-0.737328 0.553208,-0.34408 1.008067,-0.844832 1.364581,-1.502272 0.35651,-0.65744 0.534768,-1.416272 0.534768,-2.276464 0,-1.007664 -0.258165,-1.883232 -0.774492,-2.626688 -0.516328,-0.743472 -1.232428,-1.265728 -2.148292,-1.5668 C 83.5552,28.20956 82.23672,28.059016 80.515629,28.059016 H 74.264374 Z M 95.59535,40.538104 V 20.96236 h 2.968885 v 2.746496 c 0.614672,-0.958512 1.432194,-1.729616 2.452555,-2.313328 1.02036,-0.583712 2.1821,-0.875568 3.48521,-0.875568 1.45064,0 2.64004,0.301072 3.5682,0.903216 0.92815,0.602144 1.58279,1.44392 1.96389,2.525312 1.54898,-2.28568 3.56511,-3.428528 6.04841,-3.428528 1.94237,0 3.43603,0.537632 4.48099,1.61288 1.04494,1.075264 1.56742,2.731152 1.56742,4.96768 V 40.538104 H 118.8301 V 28.206488 c 0,-1.327168 -0.10757,-2.282608 -0.3227,-2.86632 -0.21514,-0.583712 -0.60546,-1.053744 -1.17096,-1.410112 -0.56551,-0.356368 -1.22936,-0.53456 -1.99155,-0.53456 -1.37688,0 -2.52018,0.45776 -3.42989,1.373248 -0.90973,0.915504 -1.36458,2.380928 -1.36458,4.396256 v 11.373104 h -3.31925 V 27.8194 c 0,-1.47464 -0.27047,-2.580608 -0.81138,-3.31792 -0.54091,-0.737328 -1.42605,-1.105984 -2.6554,-1.105984 -0.93431,0 -1.79792,0.245776 -2.59086,0.737312 -0.79293,0.491552 -1.367653,1.210432 -1.724162,2.156656 -0.356514,0.946224 -0.534768,2.310256 -0.534768,4.092112 v 10.156528 z m 37.7834,7.944576 c -1.83175,-2.310256 -3.38073,-5.013744 -4.64696,-8.11048 -1.26623,-3.09672 -1.89935,-6.304048 -1.89935,-9.621968 0,-2.924688 0.4733,-5.726496 1.41991,-8.405408 1.10641,-3.109024 2.8152,-6.205744 5.1264,-9.290192 h 2.37878 c -1.48752,2.556032 -2.47099,4.380896 -2.95043,5.474576 -0.74991,1.69584 -1.34,3.465392 -1.77027,5.308688 -0.52863,2.297968 -0.79294,4.608224 -0.79293,6.930768 -1e-5,5.910816 1.83787,11.815488 5.51363,17.714016 z m 14.36424,-7.944576 -10.47408,-27.02264 h 3.87244 l 7.02577,19.63104 c 0.56548,1.572944 1.03878,3.047568 1.41988,4.423904 0.41799,-1.47464 0.90359,-2.949264 1.45679,-4.423904 l 7.30235,-19.63104 h 3.65118 L 151.4126,40.538104 Z M 164.79582,17.33108 v -3.815616 h 3.31925 v 3.815616 z m 0,23.207024 V 20.96236 h 3.31925 v 19.575744 z m 8.36081,0 V 20.96236 h 2.98733 v 2.78336 c 1.43834,-2.150496 3.51594,-3.22576 6.23282,-3.22576 1.18018,0 2.26507,0.211984 3.2547,0.635936 0.98962,0.423968 1.73031,0.980016 2.22205,1.668176 0.49175,0.688176 0.83597,1.50536 1.03266,2.451584 0.12292,0.614432 0.18441,1.68968 0.18441,3.22576 v 12.036688 h -3.31926 V 28.63044 c 0,-1.351744 -0.12907,-2.36248 -0.38725,-3.032208 -0.25816,-0.669728 -0.7161,-1.204288 -1.37379,-1.603664 -0.65771,-0.399376 -1.42912,-0.599072 -2.31426,-0.599072 -1.41376,0 -2.63389,0.448544 -3.6604,1.3456 -1.02651,0.897072 -1.53976,2.59904 -1.53976,5.10592 v 10.691088 z m 32.56407,0 h -3.31927 V 19.39556 c -0.79908,0.761888 -1.8471,1.523792 -3.14406,2.28568 -1.29698,0.761888 -2.46177,1.333312 -3.49443,1.714256 v -3.207328 c 1.85632,-0.87248 3.47905,-1.929312 4.86824,-3.170448 1.38915,-1.241152 2.37264,-2.44544 2.95045,-3.612848 h 2.13907 z m 11.57901,7.944576 h -2.3788 c 3.67576,-5.898528 5.51363,-11.8032 5.51364,-17.714016 -1e-5,-2.310256 -0.26432,-4.60208 -0.79292,-6.875472 -0.41799,-1.843296 -1.00194,-3.612848 -1.75183,-5.308688 -0.47945,-1.105968 -1.46909,-2.949264 -2.96889,-5.529872 h 2.3788 c 2.31117,3.084448 4.01997,6.181168 5.1264,9.290192 0.94659,2.678912 1.4199,5.48072 1.4199,8.405408 0,3.31792 -0.63619,6.525248 -1.90858,9.621968 -1.27236,3.096736 -2.81828,5.800224 -4.63772,8.11048 z"
     style="fill:#000000;fill-opacity:1;fill-rule:nonzero;stroke:none;stroke-width:0.16"
     id="path32" /><path
     d="M 3.7765781,52.041863 H 268.67592"
     style="fill:none;stroke:#000000;stroke-width:0.269701;stroke-linecap:square;stroke-linejoin:bevel;stroke-miterlimit:10;stroke-dasharray:none;stroke-opacity:1"
     id="path40" /><path
     d="M 268.67592,3.7750388 V 52.041863"
     style="fill:none;stroke:#000000;stroke-width:0.269701;stroke-linecap:square;stroke-linejoin:bevel;stroke-miterlimit:10;stroke-dasharray:none;stroke-opacity:1"
     id="path42" /><path
     d="M 268.67592,52.041863 V 131.04845"
     style="fill:none;stroke:#000000;stroke-width:0.269701;stroke-linecap:square;stroke-linejoin:bevel;stroke-miterlimit:10;stroke-dasharray:none;stroke-opacity:1"
     id="path44" /><path
     d="m 115.0352,96.333976 v -3.336352 h 10.19747 v 3.336352 z m 25.42839,8.110484 h -3.31924 V 83.301912 c -0.79907,0.761888 -1.84711,1.523792 -3.14407,2.28568 -1.29696,0.761888 -2.46177,1.333312 -3.49443,1.714256 V 84.09452 c 1.85632,-0.87248 3.47907,-1.929312 4.86824,-3.170448 1.38917,-1.241152 2.37264,-2.44544 2.95043,-3.612848 h 2.13907 z m 8.48106,-7.078244 3.48522,-0.294928 c 0.25816,1.695824 0.85747,2.970772 1.79793,3.824832 0.94045,0.85406 2.07453,1.28109 3.40223,1.28109 1.59816,0 2.95044,-0.60215 4.05686,-1.80643 1.10642,-1.204276 1.65962,-2.801796 1.65962,-4.792548 0,-1.892448 -0.5317,-3.38552 -1.59508,-4.4792 -1.06339,-1.093696 -2.45563,-1.640528 -4.17673,-1.640528 -1.06954,0 -2.03458,0.242704 -2.89512,0.728096 -0.86055,0.485408 -1.53669,1.1152 -2.02843,1.889376 l -3.1164,-0.40552 2.61851,-13.879984 h 13.44296 v 3.170464 h -10.78755 l -1.45679,7.26256 c 1.62274,-1.130544 3.32539,-1.695824 5.10795,-1.695824 2.36036,0 4.35191,0.817184 5.97466,2.451568 1.62274,1.634384 2.43411,3.735744 2.43411,6.304064 0,2.445424 -0.71302,4.559072 -2.13907,6.340916 -1.73338,2.18737 -4.09989,3.28105 -7.0995,3.28105 -2.45871,0 -4.46564,-0.68816 -6.02076,-2.06448 -1.55513,-1.37632 -2.44334,-3.201182 -2.66462,-5.474574 z m 22.84603,7.078244 v -3.77876 h 3.78026 v 3.77876 z m 8.61752,-13.326996 c 0,-3.19504 0.32885,-5.766432 0.98655,-7.714176 0.65771,-1.947744 1.63504,-3.450016 2.932,-4.506848 1.29697,-1.056816 2.92893,-1.585216 4.8959,-1.585216 1.45063,0 2.72301,0.291856 3.81714,0.875552 1.09411,0.583712 1.99769,1.425488 2.71072,2.525312 0.71302,1.099824 1.27236,2.439296 1.67806,4.018368 0.40568,1.579088 0.60853,3.708096 0.60853,6.387008 0,3.170464 -0.32578,5.729568 -0.97733,7.677296 -0.65157,1.94774 -1.62582,3.4531 -2.92278,4.51606 -1.29698,1.06298 -2.93509,1.59445 -4.91434,1.59445 -2.60622,0 -4.6531,-0.93393 -6.14061,-2.80179 -1.78257,-2.248816 -2.67384,-5.910816 -2.67384,-10.986016 z m 3.41144,0 c 0,4.436192 0.51941,7.388528 1.55821,8.857008 1.0388,1.468498 2.3204,2.202738 3.8448,2.202738 1.52439,0 2.80598,-0.73731 3.8448,-2.211954 1.0388,-1.47464 1.55819,-4.423888 1.55819,-8.847792 0,-4.44848 -0.51939,-7.403888 -1.55819,-8.866224 -1.03882,-1.462352 -2.3327,-2.19352 -3.88168,-2.19352 -1.5244,0 -2.74145,0.645152 -3.65118,1.935456 -1.1433,1.646672 -1.71495,4.688096 -1.71495,9.124288 z M 212.0318,104.44446 V 97.974504 H 200.30379 V 94.93308 l 12.33654,-17.511264 h 2.71072 V 94.93308 h 3.65117 v 3.041424 h -3.65117 v 6.469956 z m 0,-9.51138 V 82.74892 l -8.46409,12.18416 z m 10.84141,3.262624 3.19016,-0.294928 c 0.27045,1.4992 0.78679,2.586754 1.54899,3.262624 0.7622,0.67587 1.73952,1.01381 2.932,1.01381 1.02036,0 1.91471,-0.23349 2.68306,-0.70045 0.76834,-0.46698 1.39838,-1.09062 1.89013,-1.870944 0.49174,-0.78032 0.90358,-1.83408 1.2355,-3.161248 0.33192,-1.327168 0.49789,-2.678912 0.49789,-4.055232 0,-0.147472 -0.006,-0.368656 -0.0185,-0.663584 -0.66384,1.056816 -1.57049,1.913952 -2.71994,2.571392 -1.14945,0.65744 -2.39417,0.98616 -3.73416,0.98616 -2.23742,0 -4.13062,-0.811056 -5.67959,-2.433152 -1.549,-1.622096 -2.32348,-3.760304 -2.32348,-6.41464 0,-2.740368 0.80829,-4.946176 2.4249,-6.617424 1.61659,-1.671248 3.64195,-2.506864 6.07606,-2.506864 1.75797,0 3.36536,0.473104 4.82215,1.419328 1.45677,0.946224 2.56318,2.294896 3.31925,4.046016 0.75604,1.751136 1.13406,4.285664 1.13406,7.603584 0,3.453088 -0.37496,6.202672 -1.12485,8.24872 -0.7499,2.046048 -1.86555,3.603628 -3.34691,4.672738 -1.48138,1.06912 -3.21782,1.60366 -5.20938,1.60366 -2.11449,0 -3.84172,-0.58678 -5.18172,-1.76033 -1.33999,-1.17357 -2.14522,-2.82332 -2.41567,-4.949236 z m 13.59048,-11.926096 c 0,-1.904736 -0.5071,-3.416224 -1.52133,-4.534496 -1.01421,-1.118256 -2.23435,-1.677392 -3.66038,-1.677392 -1.47523,0 -2.7599,0.602144 -3.85403,1.806432 -1.09413,1.204272 -1.64119,2.764928 -1.64119,4.681952 0,1.7204 0.51941,3.11824 1.55821,4.193488 1.0388,1.075248 2.3204,1.61288 3.8448,1.61288 1.53669,0 2.79984,-0.537632 3.78947,-1.61288 0.98963,-1.075248 1.48445,-2.565248 1.48445,-4.469984 z"
     style="fill:#000000;fill-opacity:1;fill-rule:nonzero;stroke:none;stroke-width:0.16"
     id="path52" /><path
     d="m 327.03148,40.538104 v -2.470016 c -1.24164,1.9416 -3.06723,2.9124 -5.47676,2.9124 -1.56127,0 -2.99655,-0.430096 -4.3058,-1.290304 -1.30926,-0.860192 -2.32349,-2.061408 -3.04265,-3.603632 -0.71917,-1.542224 -1.07875,-3.314848 -1.07875,-5.317888 0,-1.953888 0.32577,-3.726528 0.97732,-5.317904 0.65157,-1.59136 1.6289,-2.811008 2.93202,-3.658928 1.3031,-0.847904 2.75989,-1.271872 4.37033,-1.271872 1.18018,0 2.23128,0.248848 3.1533,0.746544 0.92202,0.49768 1.67192,1.145904 2.24971,1.944672 v -9.695712 h 3.3008 v 27.02264 z m -10.49251,-9.76944 c 0,2.506864 0.52861,4.38088 1.58586,5.622032 1.05725,1.241152 2.30504,1.861728 3.74337,1.861728 1.45064,0 2.68306,-0.592928 3.69728,-1.778784 1.01421,-1.18584 1.52133,-2.995344 1.52133,-5.42848 0,-2.678928 -0.51633,-4.645104 -1.54899,-5.898528 -1.03266,-1.25344 -2.30504,-1.88016 -3.81714,-1.88016 -1.47521,0 -2.70764,0.602144 -3.69728,1.806416 -0.98961,1.204288 -1.48443,3.10288 -1.48443,5.695776 z m 19.04733,9.76944 v -27.02264 h 10.14214 c 2.06531,0 3.72187,0.273424 4.96967,0.820256 1.24779,0.546848 2.22512,1.388624 2.932,2.525312 0.70688,1.136704 1.06032,2.325616 1.06032,3.566768 0,1.155136 -0.31349,2.242672 -0.94045,3.262624 -0.62698,1.019952 -1.57359,1.843296 -2.83981,2.470016 1.63504,0.479248 2.89205,1.296448 3.77104,2.451568 0.87898,1.155136 1.31848,2.519168 1.31848,4.092112 0,1.265728 -0.26739,2.442352 -0.80216,3.529888 -0.53477,1.087552 -1.19555,1.92624 -1.98232,2.516096 -0.7868,0.589856 -1.77334,1.035312 -2.95968,1.336384 -1.18632,0.301072 -2.64003,0.451616 -4.36112,0.451616 z m 3.57741,-15.667968 h 5.84556 c 1.58588,0 2.72303,-0.104464 3.41146,-0.31336 0.90971,-0.270352 1.59509,-0.71888 2.0561,-1.3456 0.46101,-0.62672 0.6915,-1.4132 0.6915,-2.359424 0,-0.897056 -0.21513,-1.686608 -0.64541,-2.368624 -0.43027,-0.682016 -1.04496,-1.148976 -1.84403,-1.400896 -0.79907,-0.25192 -2.16981,-0.377872 -4.11218,-0.377872 h -5.403 z m 0,12.479072 h 6.7307 c 1.15559,0 1.96696,-0.04301 2.43411,-0.129024 0.82367,-0.147472 1.51211,-0.393248 2.06531,-0.737328 0.55322,-0.34408 1.00808,-0.844832 1.3646,-1.502272 0.35651,-0.65744 0.53476,-1.416272 0.53476,-2.276464 0,-1.007664 -0.25817,-1.883232 -0.77449,-2.626688 -0.51634,-0.743472 -1.23243,-1.265728 -2.14829,-1.5668 -0.91587,-0.301072 -2.23435,-0.451616 -3.95544,-0.451616 h -6.25126 z m 21.33097,3.188896 V 20.96236 h 2.9689 v 2.746496 c 0.61467,-0.958512 1.43219,-1.729616 2.45254,-2.313328 1.02037,-0.583712 2.1821,-0.875568 3.48522,-0.875568 1.45064,0 2.64003,0.301072 3.56819,0.903216 0.92816,0.602144 1.58279,1.44392 1.96389,2.525312 1.54899,-2.28568 3.56512,-3.428528 6.04841,-3.428528 1.94237,0 3.43604,0.537632 4.481,1.61288 1.04494,1.075264 1.56742,2.731152 1.56742,4.96768 v 13.437584 h -3.30081 V 28.206488 c 0,-1.327168 -0.10757,-2.282608 -0.32271,-2.86632 -0.21513,-0.583712 -0.60545,-1.053744 -1.17096,-1.410112 -0.5655,-0.356368 -1.22936,-0.53456 -1.99155,-0.53456 -1.37686,0 -2.52018,0.45776 -3.42989,1.373248 -0.90971,0.915504 -1.36457,2.380928 -1.36457,4.396256 v 11.373104 h -3.31925 V 27.8194 c 0,-1.47464 -0.27047,-2.580608 -0.81138,-3.31792 -0.54091,-0.737328 -1.42605,-1.105984 -2.65541,-1.105984 -0.9343,0 -1.79792,0.245776 -2.59085,0.737312 -0.79292,0.491552 -1.36766,1.210432 -1.72417,2.156656 -0.35651,0.946224 -0.53477,2.310256 -0.53477,4.092112 v 10.156528 z m 37.7834,7.944576 c -1.83175,-2.310256 -3.38072,-5.013744 -4.64695,-8.11048 -1.26624,-3.09672 -1.89934,-6.304048 -1.89934,-9.621968 0,-2.924688 0.47329,-5.726496 1.41989,-8.405408 1.10641,-3.109024 2.81521,-6.205744 5.1264,-9.290192 h 2.3788 c -1.48753,2.556032 -2.471,4.380896 -2.95045,5.474576 -0.74991,1.69584 -1.34,3.465392 -1.77026,5.308688 -0.52862,2.297968 -0.79294,4.608224 -0.79294,6.930768 0,5.910816 1.83787,11.815488 5.51365,17.714016 z m 14.36424,-7.944576 -10.47409,-27.02264 h 3.87247 l 7.02574,19.63104 c 0.56551,1.572944 1.0388,3.047568 1.41991,4.423904 0.41796,-1.47464 0.90356,-2.949264 1.45678,-4.423904 l 7.30235,-19.63104 h 3.65117 l -10.58472,27.02264 z M 429.69515,17.33108 v -3.815616 h 3.31925 v 3.815616 z m 0,23.207024 V 20.96236 h 3.31925 v 19.575744 z m 8.36083,0 V 20.96236 h 2.98731 v 2.78336 c 1.43835,-2.150496 3.51595,-3.22576 6.23282,-3.22576 1.18017,0 2.26509,0.211984 3.25472,0.635936 0.98961,0.423968 1.7303,0.980016 2.22205,1.668176 0.49172,0.688176 0.83595,1.50536 1.03265,2.451584 0.12293,0.614432 0.1844,1.68968 0.1844,3.22576 v 12.036688 h -3.31925 V 28.63044 c 0,-1.351744 -0.12908,-2.36248 -0.38724,-3.032208 -0.25816,-0.669728 -0.7161,-1.204288 -1.3738,-1.603664 -0.65771,-0.399376 -1.42913,-0.599072 -2.31425,-0.599072 -1.41376,0 -2.63391,0.448544 -3.6604,1.3456 -1.02652,0.897072 -1.53976,2.59904 -1.53976,5.10592 v 10.691088 z m 37.50605,-3.188896 v 3.188896 h -17.86864 c -0.0246,-0.798768 0.10449,-1.5668 0.38725,-2.304112 0.45486,-1.216576 1.18324,-2.41472 2.18518,-3.594416 1.0019,-1.179712 2.44947,-2.543744 4.34267,-4.092112 2.93816,-2.40856 4.92357,-4.316368 5.95623,-5.723408 1.03264,-1.407056 1.54897,-2.737296 1.54897,-3.990736 0,-1.31488 -0.47022,-2.42392 -1.41069,-3.327136 -0.94044,-0.903216 -2.16672,-1.354816 -3.67883,-1.354816 -1.59816,0 -2.87669,0.479264 -3.83557,1.43776 -0.95889,0.958512 -1.44449,2.28568 -1.45678,3.98152 l -3.41146,-0.350224 c 0.23357,-2.543744 1.11256,-4.482272 2.63696,-5.815584 1.52439,-1.333312 3.57127,-1.999968 6.14061,-1.999968 2.59392,0 4.64696,0.71888 6.15906,2.15664 1.51209,1.437776 2.26816,3.219616 2.26816,5.345552 0,1.081392 -0.2213,2.144352 -0.66386,3.18888 -0.44256,1.044544 -1.17712,2.144368 -2.20361,3.299488 -1.02652,1.155136 -2.73224,2.740368 -5.11717,4.755696 -1.99157,1.671248 -3.2701,2.80488 -3.83559,3.400864 -0.5655,0.596 -1.03265,1.195072 -1.40145,1.797216 z m 6.63702,11.133472 h -2.3788 c 3.67575,-5.898528 5.51363,-11.8032 5.51365,-17.714016 -2e-5,-2.310256 -0.26432,-4.60208 -0.79294,-6.875472 -0.41797,-1.843296 -1.00192,-3.612848 -1.75183,-5.308688 -0.47945,-1.105968 -1.46909,-2.949264 -2.96888,-5.529872 h 2.3788 c 2.31117,3.084448 4.01997,6.181168 5.1264,9.290192 0.94659,2.678912 1.41989,5.48072 1.41989,8.405408 0,3.31792 -0.63618,6.525248 -1.90856,9.621968 -1.27238,3.096736 -2.8183,5.800224 -4.63773,8.11048 z"
     style="fill:#000000;fill-opacity:1;fill-rule:nonzero;stroke:none;stroke-width:0.16"
     id="path64" /><path
     d="M 268.67592,52.041863 H 533.57526"
     style="fill:none;stroke:#000000;stroke-width:0.269701;stroke-linecap:square;stroke-linejoin:bevel;stroke-miterlimit:10;stroke-dasharray:none;stroke-opacity:1"
     id="path72" /><path
     d="M 533.57526,3.7750388 V 52.041863"
     style="fill:none;stroke:#000000;stroke-width:0.269701;stroke-linecap:square;stroke-linejoin:bevel;stroke-miterlimit:10;stroke-dasharray:none;stroke-opacity:1"
     id="path74" /><path
     d="M 533.57526,52.041863 V 131.04845"
     style="fill:none;stroke:#000000;stroke-width:0.269701;stroke-linecap:square;stroke-linejoin:bevel;stroke-miterlimit:10;stroke-dasharray:none;stroke-opacity:1"
     id="path76" /><path
     d="m 379.93454,96.333976 v -3.336352 h 10.19747 v 3.336352 z m 25.4284,8.110484 h -3.31925 V 83.301912 c -0.79909,0.761888 -1.8471,1.523792 -3.14406,2.28568 -1.29698,0.761888 -2.46178,1.333312 -3.49444,1.714256 V 84.09452 c 1.85632,-0.87248 3.47906,-1.929312 4.86823,-3.170448 1.38917,-1.241152 2.37265,-2.44544 2.95045,-3.612848 h 2.13907 z m 8.48105,-7.078244 3.48522,-0.294928 c 0.25816,1.695824 0.85747,2.970772 1.79792,3.824832 0.94045,0.85406 2.07453,1.28109 3.40224,1.28109 1.59815,0 2.95043,-0.60215 4.05685,-1.80643 1.10642,-1.204276 1.65963,-2.801796 1.65963,-4.792548 0,-1.892448 -0.53169,-3.38552 -1.59509,-4.4792 -1.06339,-1.093696 -2.45563,-1.640528 -4.17672,-1.640528 -1.06953,0 -2.03457,0.242704 -2.89512,0.728096 -0.86056,0.485408 -1.53669,1.1152 -2.02843,1.889376 l -3.11642,-0.40552 2.61853,-13.879984 h 13.44296 v 3.170464 h -10.78757 l -1.45678,7.26256 c 1.62275,-1.130544 3.32541,-1.695824 5.10797,-1.695824 2.36035,0 4.3519,0.817184 5.97464,2.451568 1.62275,1.634384 2.43413,3.735744 2.43413,6.304064 0,2.445424 -0.71304,4.559072 -2.13908,6.340916 -1.73339,2.18737 -4.09988,3.28105 -7.0995,3.28105 -2.45872,0 -4.46563,-0.68816 -6.02075,-2.06448 -1.55514,-1.37632 -2.44335,-3.201182 -2.66463,-5.474574 z m 22.84604,7.078244 v -3.77876 h 3.78025 v 3.77876 z m 8.6175,-13.326996 c 0,-3.19504 0.32885,-5.766432 0.98656,-7.714176 0.6577,-1.947744 1.63504,-3.450016 2.932,-4.506848 1.29696,-1.056816 2.92893,-1.585216 4.89589,-1.585216 1.45064,0 2.72301,0.291856 3.81715,0.875552 1.09411,0.583712 1.99768,1.425488 2.71072,2.525312 0.71301,1.099824 1.27237,2.439296 1.67806,4.018368 0.40568,1.579088 0.60852,3.708096 0.60853,6.387008 -1e-5,3.170464 -0.32579,5.729568 -0.97734,7.677296 -0.65155,1.94774 -1.62583,3.4531 -2.92279,4.51606 -1.29696,1.06298 -2.93507,1.59445 -4.91433,1.59445 -2.60623,0 -4.65309,-0.93393 -6.14061,-2.80179 -1.78256,-2.248816 -2.67384,-5.910816 -2.67384,-10.986016 z m 3.41146,0 c 0,4.436192 0.51939,7.388528 1.5582,8.857008 1.03879,1.468498 2.32039,2.202738 3.84479,2.202738 1.5244,0 2.806,-0.73731 3.8448,-2.211954 1.0388,-1.47464 1.55821,-4.423888 1.55821,-8.847792 0,-4.44848 -0.51941,-7.403888 -1.55821,-8.866224 -1.0388,-1.462352 -2.3327,-2.19352 -3.88168,-2.19352 -1.5244,0 -2.74146,0.645152 -3.65117,1.935456 -1.14329,1.646672 -1.71494,4.688096 -1.71494,9.124288 z m 17.59054,6.193456 3.31925,-0.442384 c 0.3811,1.880144 1.02958,3.234974 1.94545,4.064444 0.91586,0.82949 2.03151,1.24423 3.34692,1.24423 1.56126,0 2.87974,-0.54071 3.95544,-1.6221 1.07568,-1.08139 1.61352,-2.420862 1.61352,-4.018366 0,-1.523792 -0.49789,-2.780304 -1.49367,-3.769536 -0.99577,-0.989232 -2.26201,-1.483856 -3.7987,-1.483856 -0.62696,0 -1.4076,0.122896 -2.3419,0.368672 l 0.36879,-2.9124 c 0.22128,0.02458 0.39954,0.03686 0.53477,0.03686 1.41376,0 2.68613,-0.368656 3.81714,-1.105984 1.13101,-0.737312 1.69651,-1.874 1.69651,-3.41008 0,-1.216576 -0.41184,-2.22424 -1.2355,-3.022992 -0.82367,-0.798768 -1.88706,-1.198144 -3.19016,-1.198144 -1.29082,0 -2.36652,0.40552 -3.22706,1.216576 -0.86054,0.81104 -1.41376,2.027616 -1.65962,3.649712 l -3.31924,-0.589856 c 0.40568,-2.22424 1.32769,-3.947712 2.76603,-5.170432 1.43833,-1.222704 3.22705,-1.834064 5.36613,-1.834064 1.47521,0 2.83364,0.316432 4.07529,0.949296 1.24165,0.632864 2.19131,1.496128 2.84903,2.589808 0.65769,1.093696 0.98656,2.25496 0.98656,3.483824 0,1.167424 -0.31349,2.230384 -0.94047,3.188896 -0.62696,0.958512 -1.55513,1.7204 -2.78448,2.28568 1.59815,0.368656 2.83981,1.133616 3.72495,2.294896 0.88512,1.16128 1.32769,2.6144 1.32769,4.359376 0,2.359424 -0.86056,4.359394 -2.58164,5.999924 -1.72109,1.64053 -3.89704,2.46078 -6.52786,2.46078 -2.37266,0 -4.34269,-0.70659 -5.91011,-2.11977 -1.56743,-1.4132 -2.46178,-3.244198 -2.68306,-5.493014 z m 33.46763,7.13354 h -3.31924 V 83.301912 c -0.79909,0.761888 -1.84711,1.523792 -3.14407,2.28568 -1.29697,0.761888 -2.46177,1.333312 -3.49443,1.714256 V 84.09452 c 1.8563,-0.87248 3.47905,-1.929312 4.86822,-3.170448 1.38917,-1.241152 2.37264,-2.44544 2.95045,-3.612848 h 2.13907 z"
     style="fill:#000000;fill-opacity:1;fill-rule:nonzero;stroke:none;stroke-width:0.16"
     id="path84" /><path
     d="m 581.41038,40.538104 v -2.470016 c -1.24165,1.9416 -3.06723,2.9124 -5.47677,2.9124 -1.56126,0 -2.99654,-0.430096 -4.30581,-1.290304 -1.30925,-0.860192 -2.32347,-2.061408 -3.04264,-3.603632 -0.71917,-1.542224 -1.07875,-3.314848 -1.07875,-5.317888 0,-1.953888 0.32578,-3.726528 0.97733,-5.317904 0.65157,-1.59136 1.62889,-2.811008 2.93201,-3.658928 1.30311,-0.847904 2.75989,-1.271872 4.37034,-1.271872 1.18018,0 2.23128,0.248848 3.1533,0.746544 0.922,0.49768 1.6719,1.145904 2.24971,1.944672 v -9.695712 h 3.3008 v 27.02264 z m -10.49251,-9.76944 c 0,2.506864 0.5286,4.38088 1.58585,5.622032 1.05725,1.241152 2.30504,1.861728 3.74338,1.861728 1.45064,0 2.68306,-0.592928 3.69728,-1.778784 1.01421,-1.18584 1.52131,-2.995344 1.52131,-5.42848 0,-2.678928 -0.51632,-4.645104 -1.54897,-5.898528 -1.03266,-1.25344 -2.30504,-1.88016 -3.81714,-1.88016 -1.47522,0 -2.70765,0.602144 -3.69728,1.806416 -0.98963,1.204288 -1.48443,3.10288 -1.48443,5.695776 z m 19.04732,9.76944 v -27.02264 h 10.14215 c 2.06531,0 3.72187,0.273424 4.96966,0.820256 1.24779,0.546848 2.22512,1.388624 2.932,2.525312 0.70688,1.136704 1.06032,2.325616 1.06032,3.566768 0,1.155136 -0.31349,2.242672 -0.94046,3.262624 -0.62696,1.019952 -1.57357,1.843296 -2.83979,2.470016 1.63504,0.479248 2.89204,1.296448 3.77104,2.451568 0.87897,1.155136 1.31846,2.519168 1.31846,4.092112 0,1.265728 -0.26738,2.442352 -0.80214,3.529888 -0.53477,1.087552 -1.19556,1.92624 -1.98234,2.516096 -0.78678,0.589856 -1.77334,1.035312 -2.95966,1.336384 -1.18632,0.301072 -2.64004,0.451616 -4.36112,0.451616 z m 3.57741,-15.667968 h 5.84557 c 1.58587,0 2.72301,-0.104464 3.41146,-0.31336 0.90971,-0.270352 1.59509,-0.71888 2.05609,-1.3456 0.46101,-0.62672 0.69151,-1.4132 0.69151,-2.359424 0,-0.897056 -0.21514,-1.686608 -0.64541,-2.368624 -0.43027,-0.682016 -1.04496,-1.148976 -1.84403,-1.400896 -0.79908,-0.25192 -2.16981,-0.377872 -4.11218,-0.377872 h -5.40301 z m 0,12.479072 h 6.73071 c 1.15558,0 1.96696,-0.04301 2.43411,-0.129024 0.82366,-0.147472 1.51211,-0.393248 2.06531,-0.737328 0.55322,-0.34408 1.00806,-0.844832 1.36459,-1.502272 0.3565,-0.65744 0.53477,-1.416272 0.53477,-2.276464 0,-1.007664 -0.25818,-1.883232 -0.7745,-2.626688 -0.51633,-0.743472 -1.23243,-1.265728 -2.1483,-1.5668 -0.91586,-0.301072 -2.23434,-0.451616 -3.95542,-0.451616 h -6.25127 z m 21.33098,3.188896 V 20.96236 h 2.96888 v 2.746496 c 0.61467,-0.958512 1.43221,-1.729616 2.45256,-2.313328 1.02037,-0.583712 2.1821,-0.875568 3.48521,-0.875568 1.45064,0 2.64004,0.301072 3.5682,0.903216 0.92816,0.602144 1.58278,1.44392 1.96388,2.525312 1.549,-2.28568 3.56512,-3.428528 6.04842,-3.428528 1.94237,0 3.43603,0.537632 4.48099,1.61288 1.04495,1.075264 1.56743,2.731152 1.56743,4.96768 v 13.437584 h -3.30082 V 28.206488 c 0,-1.327168 -0.10757,-2.282608 -0.3227,-2.86632 -0.21514,-0.583712 -0.60546,-1.053744 -1.17096,-1.410112 -0.56551,-0.356368 -1.22936,-0.53456 -1.99156,-0.53456 -1.37688,0 -2.52017,0.45776 -3.42988,1.373248 -0.90973,0.915504 -1.36458,2.380928 -1.36458,4.396256 V 40.538104 H 626.5094 V 27.8194 c 0,-1.47464 -0.27046,-2.580608 -0.81137,-3.31792 -0.54092,-0.737328 -1.42605,-1.105984 -2.65541,-1.105984 -0.93431,0 -1.79792,0.245776 -2.59085,0.737312 -0.79294,0.491552 -1.36766,1.210432 -1.72418,2.156656 -0.35651,0.946224 -0.53476,2.310256 -0.53476,4.092112 v 10.156528 z m 37.78339,7.944576 c -1.83174,-2.310256 -3.38072,-5.013744 -4.64694,-8.11048 -1.26624,-3.09672 -1.89936,-6.304048 -1.89936,-9.621968 0,-2.924688 0.47331,-5.726496 1.4199,-8.405408 1.10642,-3.109024 2.81522,-6.205744 5.1264,-9.290192 h 2.3788 c -1.48752,2.556032 -2.47099,4.380896 -2.95045,5.474576 -0.7499,1.69584 -1.34,3.465392 -1.77027,5.308688 -0.52862,2.297968 -0.79293,4.608224 -0.79293,6.930768 0,5.910816 1.83788,11.815488 5.51365,17.714016 z m 14.36424,-7.944576 -10.47408,-27.02264 h 3.87247 l 7.02574,19.63104 c 0.56549,1.572944 1.0388,3.047568 1.4199,4.423904 0.41797,-1.47464 0.90357,-2.949264 1.45679,-4.423904 l 7.30235,-19.63104 h 3.65117 l -10.58472,27.02264 z m 15.70669,-5.843232 3.28237,-0.516128 c 0.18441,1.31488 0.69766,2.322544 1.53977,3.023008 0.8421,0.700448 2.0192,1.050672 3.53132,1.050672 1.52438,0 2.65539,-0.310288 3.393,-0.930864 0.73762,-0.620576 1.10642,-1.348672 1.10642,-2.184304 0,-0.7496 -0.32579,-1.339456 -0.97733,-1.769552 -0.45488,-0.294928 -1.58587,-0.669728 -3.39302,-1.124416 -2.43412,-0.614432 -4.1214,-1.145904 -5.06186,-1.594448 -0.94045,-0.448528 -1.65347,-1.069104 -2.13907,-1.861712 -0.4856,-0.792624 -0.72838,-1.668192 -0.72838,-2.626688 0,-0.872496 0.19976,-1.680464 0.59931,-2.423936 0.39952,-0.743456 0.94352,-1.36096 1.63195,-1.852496 0.51634,-0.38096 1.22013,-0.703536 2.11142,-0.967728 0.89127,-0.264208 1.84709,-0.39632 2.86746,-0.39632 1.53669,0 2.8859,0.2212 4.04765,0.663584 1.16173,0.4424 2.0192,1.041472 2.57241,1.797216 0.5532,0.755744 0.93431,1.76648 1.1433,3.032208 l -3.24549,0.4424 c -0.14752,-1.007664 -0.57474,-1.794144 -1.2816,-2.359424 -0.70688,-0.565264 -1.70573,-0.847904 -2.99654,-0.847904 -1.5244,0 -2.61239,0.25192 -3.26394,0.755744 -0.65157,0.50384 -0.97733,1.09368 -0.97733,1.769552 0,0.430112 0.13522,0.8172 0.40568,1.16128 0.27045,0.356368 0.69458,0.651296 1.27239,0.884784 0.33192,0.12288 1.30926,0.40552 2.932,0.847904 2.34806,0.62672 3.98617,1.139776 4.91433,1.539152 0.92816,0.399376 1.65655,0.980016 2.18517,1.741904 0.52863,0.761904 0.79295,1.708128 0.79295,2.838672 0,1.105984 -0.32271,2.14744 -0.96813,3.124384 -0.64541,0.976944 -1.57664,1.732688 -2.7937,2.267248 -1.21706,0.534544 -2.59393,0.801824 -4.13062,0.801824 -2.54476,0 -4.48407,-0.528416 -5.81791,-1.585232 -1.33385,-1.056816 -2.18516,-2.623616 -2.55398,-4.700384 z m 33.04497,5.843232 v -2.875536 c -1.5244,2.211952 -3.59585,3.31792 -6.21436,3.31792 -1.1556,0 -2.23435,-0.2212 -3.23628,-0.663584 -1.00191,-0.442384 -1.74568,-0.998448 -2.23126,-1.668176 -0.4856,-0.669728 -0.82675,-1.49 -1.02344,-2.4608 -0.13523,-0.651296 -0.20285,-1.683536 -0.20285,-3.09672 V 20.96236 h 3.31925 v 10.856976 c 0,1.732688 0.0676,2.900112 0.20285,3.502256 0.20899,0.87248 0.65155,1.557584 1.32769,2.055264 0.67615,0.497696 1.51212,0.746528 2.50789,0.746528 0.99576,0 1.93007,-0.254976 2.80292,-0.76496 0.87284,-0.509984 1.49059,-1.204288 1.85324,-2.082912 0.36266,-0.87864 0.54399,-2.153584 0.544,-3.824832 V 20.96236 h 3.31925 v 19.575744 z m 8.14914,0 V 20.96236 h 2.96888 v 2.746496 c 0.61467,-0.958512 1.43219,-1.729616 2.45256,-2.313328 1.02035,-0.583712 2.1821,-0.875568 3.48522,-0.875568 1.45062,0 2.64001,0.301072 3.56819,0.903216 0.92816,0.602144 1.58278,1.44392 1.96389,2.525312 1.54897,-2.28568 3.5651,-3.428528 6.04841,-3.428528 1.94235,0 3.43602,0.537632 4.48098,1.61288 1.04494,1.075264 1.56742,2.731152 1.56742,4.96768 v 13.437584 h -3.3008 V 28.206488 c -10e-6,-1.327168 -0.10758,-2.282608 -0.3227,-2.86632 -0.21514,-0.583712 -0.60547,-1.053744 -1.17096,-1.410112 -0.56551,-0.356368 -1.22936,-0.53456 -1.99155,-0.53456 -1.37688,0 -2.52018,0.45776 -3.42989,1.373248 -0.90973,0.915504 -1.36459,2.380928 -1.36459,4.396256 v 11.373104 h -3.31925 V 27.8194 c 0,-1.47464 -0.27045,-2.580608 -0.81136,-3.31792 -0.54093,-0.737328 -1.42607,-1.105984 -2.65541,-1.105984 -0.9343,0 -1.79792,0.245776 -2.59086,0.737312 -0.79293,0.491552 -1.36765,1.210432 -1.72416,2.156656 -0.35651,0.946224 -0.53479,2.310256 -0.53477,4.092112 v 10.156528 z m 33.61589,7.944576 h -2.3788 c 3.67574,-5.898528 5.51365,-11.8032 5.51365,-17.714016 0,-2.310256 -0.26432,-4.60208 -0.79293,-6.875472 -0.41799,-1.843296 -1.00194,-3.612848 -1.75183,-5.308688 -0.47947,-1.105968 -1.4691,-2.949264 -2.96889,-5.529872 h 2.3788 c 2.31117,3.084448 4.01998,6.181168 5.1264,9.290192 0.94658,2.678912 1.4199,5.48072 1.4199,8.405408 0,3.31792 -0.63619,6.525248 -1.90857,9.621968 -1.27239,3.096736 -2.81829,5.800224 -4.63773,8.11048 z"
     style="fill:#000000;fill-opacity:1;fill-rule:nonzero;stroke:none;stroke-width:0.16"
     id="path96" /><path
     d="M 533.57526,52.041863 H 798.4746"
     style="fill:none;stroke:#000000;stroke-width:0.269701;stroke-linecap:square;stroke-linejoin:bevel;stroke-miterlimit:10;stroke-dasharray:none;stroke-opacity:1"
     id="path104" /><path
     d="M 798.4746,3.7750388 V 52.041863"
     style="fill:none;stroke:#000000;stroke-width:0.269701;stroke-linecap:square;stroke-linejoin:bevel;stroke-miterlimit:10;stroke-dasharray:none;stroke-opacity:1"
     id="path106" /><path
     d="M 798.4746,52.041863 V 131.04845"
     style="fill:none;stroke:#000000;stroke-width:0.269701;stroke-linecap:square;stroke-linejoin:bevel;stroke-miterlimit:10;stroke-dasharray:none;stroke-opacity:1"
     id="path108" /><path
     d="m 644.83387,96.333976 v -3.336352 h 10.19747 v 3.336352 z m 25.4284,8.110484 h -3.31925 V 83.301912 c -0.79907,0.761888 -1.8471,1.523792 -3.14407,2.28568 -1.29696,0.761888 -2.46177,1.333312 -3.49443,1.714256 V 84.09452 c 1.85632,-0.87248 3.47907,-1.929312 4.86824,-3.170448 1.38917,-1.241152 2.37264,-2.44544 2.95043,-3.612848 h 2.13908 z m 25.92556,-3.1889 v 3.1889 H 678.3192 c -0.0246,-0.79877 0.10449,-1.5668 0.38724,-2.30412 0.45487,-1.21657 1.18325,-2.414716 2.18519,-3.594412 1.00192,-1.179712 2.44947,-2.543744 4.34269,-4.092112 2.93814,-2.40856 4.92355,-4.316368 5.9562,-5.723408 1.03266,-1.407056 1.54898,-2.737296 1.54898,-3.990736 0,-1.31488 -0.47023,-2.42392 -1.41069,-3.327136 -0.94045,-0.9032 -2.16672,-1.354816 -3.67883,-1.354816 -1.59816,0 -2.87669,0.479264 -3.83557,1.43776 -0.95889,0.958512 -1.4445,2.285696 -1.45678,3.98152 l -3.41146,-0.350224 c 0.23357,-2.543744 1.11256,-4.482272 2.63696,-5.815584 1.5244,-1.333312 3.57126,-1.999968 6.14061,-1.999968 2.59393,0 4.64696,0.71888 6.15905,2.15664 1.5121,1.437776 2.26817,3.219616 2.26817,5.345552 0,1.081392 -0.2213,2.144352 -0.66386,3.18888 -0.44256,1.044544 -1.1771,2.144368 -2.20362,3.299504 -1.02651,1.15512 -2.73222,2.740352 -5.11716,4.75568 -1.99156,1.671248 -3.27008,2.80488 -3.83559,3.40088 -0.5655,0.59598 -1.03265,1.19506 -1.40145,1.7972 z m 5.40153,3.1889 v -3.77876 h 3.78025 v 3.77876 z m 8.61751,-13.326996 c 0,-3.19504 0.32885,-5.766432 0.98655,-7.714176 0.65771,-1.947744 1.63504,-3.450016 2.932,-4.506848 1.29697,-1.056816 2.92893,-1.585216 4.8959,-1.585216 1.45063,0 2.72301,0.291856 3.81714,0.875552 1.09411,0.583712 1.99769,1.425488 2.71072,2.525312 0.71302,1.099824 1.27237,2.439296 1.67806,4.018368 0.40568,1.579088 0.60853,3.708096 0.60853,6.387008 0,3.170464 -0.32578,5.729568 -0.97733,7.677296 -0.65157,1.94774 -1.62582,3.4531 -2.92278,4.51606 -1.29698,1.06298 -2.93509,1.59445 -4.91434,1.59445 -2.60622,0 -4.6531,-0.93393 -6.14061,-2.80179 -1.78257,-2.248816 -2.67384,-5.910816 -2.67384,-10.986016 z m 3.41144,0 c 0,4.436192 0.51941,7.388528 1.55821,8.857008 1.0388,1.468498 2.3204,2.202738 3.8448,2.202738 1.52439,0 2.80599,-0.73731 3.8448,-2.211954 1.0388,-1.47464 1.55819,-4.423888 1.55819,-8.847792 0,-4.44848 -0.51939,-7.403888 -1.55819,-8.866224 -1.03881,-1.462352 -2.3327,-2.19352 -3.88168,-2.19352 -1.5244,0 -2.74145,0.645152 -3.65118,1.935456 -1.1433,1.646672 -1.71495,4.688096 -1.71495,9.124288 z m 17.57212,0 c 0,-3.19504 0.32884,-5.766432 0.98656,-7.714176 0.65769,-1.947744 1.63504,-3.450016 2.932,-4.506848 1.29696,-1.056816 2.92892,-1.585216 4.8959,-1.585216 1.45062,0 2.72299,0.291856 3.81714,0.875552 1.09411,0.583712 1.99768,1.425488 2.71072,2.525312 0.71301,1.099824 1.27236,2.439296 1.67806,4.018368 0.40568,1.579088 0.60853,3.708096 0.60853,6.387008 0,3.170464 -0.32579,5.729568 -0.97735,7.677296 -0.65155,1.94774 -1.62582,3.4531 -2.92278,4.51606 -1.29697,1.06298 -2.93507,1.59445 -4.91432,1.59445 -2.60624,0 -4.6531,-0.93393 -6.14062,-2.80179 -1.78256,-2.248816 -2.67384,-5.910816 -2.67384,-10.986016 z m 3.41145,0 c 0,4.436192 0.51939,7.388528 1.55821,8.857008 1.03879,1.468498 2.32039,2.202738 3.8448,2.202738 1.52438,0 2.80598,-0.73731 3.84479,-2.211954 1.0388,-1.47464 1.5582,-4.423888 1.5582,-8.847792 0,-4.44848 -0.5194,-7.403888 -1.5582,-8.866224 -1.03881,-1.462352 -2.33269,-2.19352 -3.88168,-2.19352 -1.5244,0 -2.74146,0.645152 -3.65117,1.935456 -1.1433,1.646672 -1.71495,4.688096 -1.71495,9.124288 z m 34.79533,-7.07824 -3.30081,0.258064 c -0.29505,-1.302592 -0.71303,-2.248816 -1.25394,-2.838672 -0.89742,-0.946224 -2.00384,-1.419328 -3.31925,-1.419328 -1.05725,0 -1.98541,0.294928 -2.78448,0.884784 -1.04496,0.761888 -1.86862,1.874 -2.47099,3.336352 -0.6024,1.462336 -0.91587,3.545264 -0.94047,6.248752 0.79908,-1.216576 1.77642,-2.119776 2.932,-2.709632 1.15559,-0.589856 2.36652,-0.884784 3.63274,-0.884784 2.21283,0 4.09682,0.814128 5.65195,2.442368 1.55512,1.62824 2.33269,3.732656 2.33269,6.313264 0,1.695824 -0.36573,3.27184 -1.09718,4.728028 -0.73147,1.45621 -1.73647,2.5714 -3.01499,3.34559 -1.27853,0.77417 -2.72916,1.16126 -4.35191,1.16126 -2.76605,0 -5.0219,-1.01688 -6.76758,-3.05064 -1.74568,-2.033758 -2.61852,-5.385486 -2.61852,-10.05515 0,-5.222656 0.96504,-9.01984 2.89512,-11.391536 1.68421,-2.06448 3.95237,-3.09672 6.80447,-3.09672 2.12677,0 3.86937,0.596 5.22781,1.787984 1.35843,1.192 2.17288,2.838672 2.44334,4.940016 z m -13.5536,11.6496 c 0,1.142832 0.24279,2.236528 0.72839,3.281056 0.48558,1.04453 1.16479,1.84022 2.03764,2.38706 0.87285,0.54684 1.78871,0.82027 2.7476,0.82027 1.40148,0 2.60623,-0.56528 3.61431,-1.69583 1.00806,-1.130556 1.51209,-2.66662 1.51209,-4.60822 0,-1.867872 -0.49788,-3.33944 -1.49366,-4.414688 -0.99578,-1.075248 -2.24971,-1.61288 -3.76181,-1.61288 -1.49982,0 -2.77221,0.537632 -3.81714,1.61288 -1.04496,1.075248 -1.56742,2.485376 -1.56742,4.230352 z"
     style="fill:#000000;fill-opacity:1;fill-rule:nonzero;stroke:none;stroke-width:0.16"
     id="path116" /><path
     d="m 856.83015,40.538104 v -2.470016 c -1.24164,1.9416 -3.06723,2.9124 -5.47676,2.9124 -1.56127,0 -2.99655,-0.430096 -4.30579,-1.290304 -1.30927,-0.860192 -2.32349,-2.061408 -3.04266,-3.603632 -0.71917,-1.542224 -1.07875,-3.314848 -1.07875,-5.317888 0,-1.953888 0.32577,-3.726528 0.97733,-5.317904 0.65156,-1.59136 1.62889,-2.811008 2.93201,-3.658928 1.30311,-0.847904 2.75989,-1.271872 4.37034,-1.271872 1.18017,0 2.23128,0.248848 3.15329,0.746544 0.92202,0.49768 1.67192,1.145904 2.24972,1.944672 v -9.695712 h 3.3008 v 27.02264 z m -10.49251,-9.76944 c 0,2.506864 0.52861,4.38088 1.58586,5.622032 1.05725,1.241152 2.30504,1.861728 3.74338,1.861728 1.45064,0 2.68305,-0.592928 3.69728,-1.778784 1.0142,-1.18584 1.52132,-2.995344 1.52132,-5.42848 0,-2.678928 -0.51633,-4.645104 -1.54899,-5.898528 -1.03265,-1.25344 -2.30504,-1.88016 -3.81713,-1.88016 -1.47522,0 -2.70765,0.602144 -3.69728,1.806416 -0.98962,1.204288 -1.48444,3.10288 -1.48444,5.695776 z m 19.04733,9.76944 v -27.02264 h 10.14216 c 2.0653,0 3.72186,0.273424 4.96965,0.820256 1.24779,0.546848 2.22512,1.388624 2.932,2.525312 0.70688,1.136704 1.06032,2.325616 1.06032,3.566768 0,1.155136 -0.31349,2.242672 -0.94045,3.262624 -0.62697,1.019952 -1.57358,1.843296 -2.83981,2.470016 1.63504,0.479248 2.89205,1.296448 3.77104,2.451568 0.87898,1.155136 1.31848,2.519168 1.31848,4.092112 0,1.265728 -0.26739,2.442352 -0.80216,3.529888 -0.53476,1.087552 -1.19555,1.92624 -1.98232,2.516096 -0.7868,0.589856 -1.77334,1.035312 -2.95968,1.336384 -1.18632,0.301072 -2.64003,0.451616 -4.36112,0.451616 z m 3.57741,-15.667968 h 5.84557 c 1.58587,0 2.72302,-0.104464 3.41145,-0.31336 0.90972,-0.270352 1.59509,-0.71888 2.0561,-1.3456 0.46101,-0.62672 0.6915,-1.4132 0.6915,-2.359424 0,-0.897056 -0.21513,-1.686608 -0.64541,-2.368624 -0.43027,-0.682016 -1.04495,-1.148976 -1.84403,-1.400896 -0.79907,-0.25192 -2.1698,-0.377872 -4.11217,-0.377872 h -5.40301 z m 0,12.479072 h 6.7307 c 1.15559,0 1.96696,-0.04301 2.43412,-0.129024 0.82366,-0.147472 1.51211,-0.393248 2.06531,-0.737328 0.55321,-0.34408 1.00808,-0.844832 1.36459,-1.502272 0.35651,-0.65744 0.53477,-1.416272 0.53477,-2.276464 0,-1.007664 -0.25818,-1.883232 -0.7745,-2.626688 -0.51632,-0.743472 -1.23243,-1.265728 -2.14829,-1.5668 -0.91587,-0.301072 -2.23435,-0.451616 -3.95544,-0.451616 h -6.25126 z m 21.33098,3.188896 V 20.96236 h 2.96889 v 2.746496 c 0.61467,-0.958512 1.43219,-1.729616 2.45254,-2.313328 1.02037,-0.583712 2.1821,-0.875568 3.48522,-0.875568 1.45064,0 2.64003,0.301072 3.56819,0.903216 0.92816,0.602144 1.58279,1.44392 1.96389,2.525312 1.54899,-2.28568 3.56512,-3.428528 6.04842,-3.428528 1.94236,0 3.43603,0.537632 4.48099,1.61288 1.04494,1.075264 1.56742,2.731152 1.56742,4.96768 v 13.437584 h -3.30081 V 28.206488 c 0,-1.327168 -0.10757,-2.282608 -0.32271,-2.86632 -0.21513,-0.583712 -0.60545,-1.053744 -1.17096,-1.410112 -0.5655,-0.356368 -1.22934,-0.53456 -1.99155,-0.53456 -1.37686,0 -2.52018,0.45776 -3.42989,1.373248 -0.90971,0.915504 -1.36457,2.380928 -1.36457,4.396256 v 11.373104 h -3.31925 V 27.8194 c 0,-1.47464 -0.27047,-2.580608 -0.81138,-3.31792 -0.54091,-0.737328 -1.42605,-1.105984 -2.65541,-1.105984 -0.9343,0 -1.79792,0.245776 -2.59084,0.737312 -0.79293,0.491552 -1.36767,1.210432 -1.72418,2.156656 -0.35651,0.946224 -0.53477,2.310256 -0.53477,4.092112 v 10.156528 z m 37.78339,7.944576 c -1.83175,-2.310256 -3.38072,-5.013744 -4.64695,-8.11048 -1.26624,-3.09672 -1.89934,-6.304048 -1.89934,-9.621968 0,-2.924688 0.4733,-5.726496 1.41989,-8.405408 1.10641,-3.109024 2.81521,-6.205744 5.1264,-9.290192 h 2.3788 c -1.48752,2.556032 -2.47099,4.380896 -2.95045,5.474576 -0.7499,1.69584 -1.33998,3.465392 -1.77026,5.308688 -0.52862,2.297968 -0.79294,4.608224 -0.79294,6.930768 0,5.910816 1.83787,11.815488 5.51365,17.714016 z m 14.36424,-7.944576 -10.47408,-27.02264 h 3.87246 l 7.02575,19.63104 c 0.5655,1.572944 1.0388,3.047568 1.4199,4.423904 0.41797,-1.47464 0.90357,-2.949264 1.45678,-4.423904 l 7.30235,-19.63104 h 3.65117 l -10.58472,27.02264 z m 29.73974,0 v -2.470016 c -1.24165,1.9416 -3.06723,2.9124 -5.47677,2.9124 -1.56128,0 -2.99652,-0.430096 -4.30579,-1.290304 -1.30926,-0.860192 -2.32347,-2.061408 -3.04265,-3.603632 -0.71917,-1.542224 -1.07876,-3.314848 -1.07876,-5.317888 0,-1.953888 0.32578,-3.726528 0.97733,-5.317904 0.65157,-1.59136 1.6289,-2.811008 2.93202,-3.658928 1.3031,-0.847904 2.75989,-1.271872 4.37033,-1.271872 1.18018,0 2.23128,0.248848 3.1533,0.746544 0.92202,0.49768 1.6719,1.145904 2.24971,1.944672 v -9.695712 h 3.30082 v 27.02264 z m -10.49251,-9.76944 c 0,2.506864 0.52861,4.38088 1.58586,5.622032 1.05724,1.241152 2.30504,1.861728 3.74337,1.861728 1.45064,0 2.68307,-0.592928 3.69728,-1.778784 1.01421,-1.18584 1.52133,-2.995344 1.52133,-5.42848 0,-2.678928 -0.51634,-4.645104 -1.54899,-5.898528 -1.03266,-1.25344 -2.30503,-1.88016 -3.81714,-1.88016 -1.47521,0 -2.70765,0.602144 -3.69728,1.806416 -0.98963,1.204288 -1.48443,3.10288 -1.48443,5.695776 z M 980.47739,17.33108 v -3.815616 h 3.31925 v 3.815616 z m 0,23.207024 V 20.96236 h 3.31925 v 19.575744 z m 9.15374,0 V 23.542968 h -2.932 V 20.96236 h 2.932 v -2.082928 c 0,-1.31488 0.11679,-2.291824 0.35037,-2.930832 0.31963,-0.860192 0.88206,-1.557568 1.6873,-2.092128 0.80521,-0.53456 1.93315,-0.80184 3.38379,-0.80184 0.93429,0 1.96694,0.110608 3.09795,0.331792 l -0.49789,2.893968 c -0.68843,-0.12288 -1.34,-0.18432 -1.95465,-0.18432 -1.0081,0 -1.72111,0.215056 -2.13908,0.645152 -0.41798,0.430096 -0.62697,1.235008 -0.62697,2.414704 v 1.806432 h 3.81713 v 2.580608 h -3.81713 v 16.995136 z m 10.47997,0 V 23.542968 h -2.93198 V 20.96236 h 2.93198 v -2.082928 c 0,-1.31488 0.1168,-2.291824 0.3504,-2.930832 0.3196,-0.860192 0.882,-1.557568 1.6873,-2.092128 0.8052,-0.53456 1.9331,-0.80184 3.3838,-0.80184 0.9343,0 1.9669,0.110608 3.0979,0.331792 l -0.4979,2.893968 c -0.6884,-0.12288 -1.34,-0.18432 -1.9546,-0.18432 -1.0081,0 -1.7211,0.215056 -2.1391,0.645152 -0.418,0.430096 -0.627,1.235008 -0.627,2.414704 v 1.806432 h 3.8172 v 2.580608 h -3.8172 v 16.995136 z m 11.863,7.944576 h -2.3788 c 3.6758,-5.898528 5.5137,-11.8032 5.5137,-17.714016 0,-2.310256 -0.2643,-4.60208 -0.793,-6.875472 -0.418,-1.843296 -1.0019,-3.612848 -1.7518,-5.308688 -0.4794,-1.105968 -1.4691,-2.949264 -2.9689,-5.529872 h 2.3788 c 2.3112,3.084448 4.02,6.181168 5.1264,9.290192 0.9466,2.678912 1.4199,5.48072 1.4199,8.405408 0,3.31792 -0.6362,6.525248 -1.9085,9.621968 -1.2724,3.096736 -2.8184,5.800224 -4.6378,8.11048 z"
     style="fill:#000000;fill-opacity:1;fill-rule:nonzero;stroke:none;stroke-width:0.16"
     id="path128" /><path
     d="m 798.4746,52.041863 h 264.8993"
     style="fill:none;stroke:#000000;stroke-width:0.269701;stroke-linecap:square;stroke-linejoin:bevel;stroke-miterlimit:10;stroke-dasharray:none;stroke-opacity:1"
     id="path136" /><path
     d="m 909.73321,96.333976 v -3.336352 h 10.19747 v 3.336352 z m 30.14912,-12.294752 -3.30082,0.258064 c -0.29504,-1.302592 -0.71302,-2.248816 -1.25393,-2.838672 -0.89744,-0.946224 -2.00386,-1.419328 -3.31925,-1.419328 -1.05725,0 -1.98541,0.294928 -2.7845,0.884784 -1.04494,0.761888 -1.8686,1.874 -2.47099,3.336352 -0.60238,1.462336 -0.91587,3.545264 -0.94045,6.248752 0.79908,-1.216576 1.77642,-2.119776 2.932,-2.709632 1.15559,-0.589856 2.3665,-0.884784 3.63274,-0.884784 2.21283,0 4.09682,0.814128 5.65195,2.442368 1.55512,1.62824 2.33269,3.732656 2.33269,6.313264 0,1.695824 -0.36573,3.27184 -1.0972,4.728028 -0.73146,1.45621 -1.73646,2.5714 -3.01498,3.34559 -1.27852,0.77417 -2.72916,1.16126 -4.3519,1.16126 -2.76605,0 -5.02192,-1.01688 -6.76758,-3.05064 -1.74568,-2.033758 -2.61853,-5.385486 -2.61853,-10.05515 0,-5.222656 0.96504,-9.01984 2.89512,-11.391536 1.68422,-2.06448 3.95237,-3.09672 6.80446,-3.09672 2.12679,0 3.86939,0.596 5.22783,1.787984 1.35843,1.192 2.17288,2.838672 2.44334,4.940016 z m -13.55362,11.6496 c 0,1.142832 0.2428,2.236528 0.7284,3.281056 0.48559,1.04453 1.1648,1.84022 2.03765,2.38706 0.87283,0.54684 1.78871,0.82027 2.7476,0.82027 1.40146,0 2.60623,-0.56528 3.61429,-1.69583 1.00806,-1.130556 1.51211,-2.66662 1.51211,-4.60822 0,-1.867872 -0.49789,-3.33944 -1.49366,-4.414688 -0.99578,-1.075248 -2.24971,-1.61288 -3.76183,-1.61288 -1.4998,0 -2.77219,0.537632 -3.81713,1.61288 -1.04495,1.075248 -1.56743,2.485376 -1.56743,4.230352 z M 943.86395,80.960936 V 77.77204 h 17.49982 v 2.580608 c -1.72109,1.831008 -3.42682,4.264144 -5.11718,7.299424 -1.69036,3.035296 -2.99655,6.156592 -3.91855,9.36392 -0.66385,2.261104 -1.08798,4.737268 -1.27238,7.428468 h -3.41146 c 0.0369,-2.12594 0.45487,-4.69426 1.25394,-7.704964 0.79909,-3.010704 1.94545,-5.913888 3.43912,-8.709552 1.49366,-2.795648 3.08259,-5.151984 4.76681,-7.069008 z m 22.62475,23.483524 v -3.77876 h 3.78025 v 3.77876 z m 8.6175,-13.326996 c 0,-3.19504 0.32885,-5.766432 0.98656,-7.714176 0.6577,-1.947744 1.63504,-3.450016 2.932,-4.506848 1.29696,-1.056816 2.92893,-1.585216 4.89589,-1.585216 1.45064,0 2.72301,0.291856 3.81715,0.875552 1.09411,0.583712 1.99768,1.425488 2.71072,2.525312 0.71301,1.099824 1.27237,2.439296 1.67807,4.018368 0.40568,1.579088 0.60851,3.708096 0.60852,6.387008 -10e-6,3.170464 -0.32579,5.729568 -0.97734,7.677296 -0.65155,1.94774 -1.62582,3.4531 -2.92278,4.51606 -1.29696,1.06298 -2.93508,1.59445 -4.91434,1.59445 -2.60622,0 -4.65309,-0.93393 -6.14061,-2.80179 -1.78256,-2.248816 -2.67384,-5.910816 -2.67384,-10.986016 z m 3.41146,0 c 0,4.436192 0.51939,7.388528 1.55821,8.857008 1.03878,1.468498 2.32038,2.202738 3.84478,2.202738 1.5244,0 2.806,-0.73731 3.8448,-2.211954 1.0388,-1.47464 1.55821,-4.423888 1.55821,-8.847792 0,-4.44848 -0.51941,-7.403888 -1.55821,-8.866224 -1.0388,-1.462352 -2.3327,-2.19352 -3.88168,-2.19352 -1.5244,0 -2.74146,0.645152 -3.65117,1.935456 -1.14329,1.646672 -1.71494,4.688096 -1.71494,9.124288 z m 17.57211,0 c -2e-5,-3.19504 0.32885,-5.766432 0.98654,-7.714176 0.65772,-1.947744 1.63505,-3.450016 2.93199,-4.506848 1.297,-1.056816 2.929,-1.585216 4.8959,-1.585216 1.4506,0 2.723,0.291856 3.8172,0.875552 1.0941,0.583712 1.9977,1.425488 2.7107,2.525312 0.713,1.099824 1.2724,2.439296 1.678,4.018368 0.4057,1.579088 0.6086,3.708096 0.6086,6.387008 0,3.170464 -0.3258,5.729568 -0.9774,7.677296 -0.6515,1.94774 -1.6258,3.4531 -2.9227,4.51606 -1.297,1.06298 -2.9351,1.59445 -4.9144,1.59445 -2.6062,0 -4.6531,-0.93393 -6.14059,-2.80179 -1.78258,-2.248816 -2.67386,-5.910816 -2.67384,-10.986016 z m 3.41144,0 c 0,4.436192 0.51939,7.388528 1.55819,8.857008 1.0388,1.468498 2.3204,2.202738 3.8448,2.202738 1.5244,0 2.806,-0.73731 3.8448,-2.211954 1.0388,-1.47464 1.5582,-4.423888 1.5582,-8.847792 0,-4.44848 -0.5194,-7.403888 -1.5582,-8.866224 -1.0388,-1.462352 -2.3327,-2.19352 -3.8817,-2.19352 -1.5244,0 -2.7414,0.645152 -3.6511,1.935456 -1.1433,1.646672 -1.71499,4.688096 -1.71499,9.124288 z m 22.68009,-1.327168 c -1.3769,-0.50384 -2.3973,-1.22272 -3.0611,-2.156656 -0.6639,-0.933936 -0.9958,-2.052192 -0.9958,-3.354784 0,-1.966176 0.7069,-3.618992 2.1207,-4.958448 1.4137,-1.339456 3.2946,-2.009184 5.6427,-2.009184 2.3603,0 4.2597,0.685088 5.698,2.055264 1.4384,1.370176 2.1575,3.038352 2.1575,5.004528 0,1.25344 -0.3288,2.344064 -0.9865,3.27184 -0.6577,0.927792 -1.6566,1.6436 -2.9966,2.14744 1.6597,0.540688 2.9228,1.413184 3.7895,2.617472 0.8667,1.204288 1.3001,2.642048 1.3001,4.313296 0,2.310256 -0.8176,4.251856 -2.4526,5.824796 -1.635,1.57295 -3.7864,2.35941 -6.4541,2.35941 -2.6677,0 -4.8191,-0.78953 -6.4541,-2.36862 -1.635,-1.57909 -2.4526,-3.548338 -2.4526,-5.907746 0,-1.757264 0.4457,-3.228832 1.337,-4.414688 0.8913,-1.18584 2.1605,-1.993824 3.8079,-2.42392 z m -0.6639,-5.622032 c 0,1.278016 0.4119,2.322544 1.2355,3.133584 0.8237,0.811056 1.8932,1.216576 3.2086,1.216576 1.2786,0 2.3266,-0.402448 3.1441,-1.20736 0.8175,-0.804896 1.2263,-1.791056 1.2263,-2.95848 0,-1.216576 -0.4211,-2.2396 -1.2632,-3.069072 -0.8421,-0.829488 -1.8901,-1.244224 -3.144,-1.244224 -1.2663,0 -2.3174,0.40552 -3.1533,1.216576 -0.836,0.81104 -1.254,1.78184 -1.254,2.9124 z m -1.0695,12.479072 c 0,0.946224 0.2244,1.861728 0.6731,2.746496 0.4487,0.884788 1.1156,1.569868 2.0007,2.055278 0.8852,0.48539 1.8379,0.7281 2.8583,0.7281 1.5859,0 2.8951,-0.50999 3.9278,-1.52994 1.0326,-1.01995 1.5489,-2.316398 1.5489,-3.889342 0,-1.59752 -0.5317,-2.918544 -1.595,-3.963072 -1.0634,-1.044528 -2.3942,-1.5668 -3.9924,-1.5668 -1.5612,0 -2.8551,0.516128 -3.8816,1.548368 -1.0266,1.03224 -1.5398,2.322544 -1.5398,3.870912 z"
     style="fill:#000000;fill-opacity:1;fill-rule:nonzero;stroke:none;stroke-width:0.16"
     id="path144" /></svg>
