<?xml version="1.0" encoding="UTF-8" standalone="no"?>
<!-- Created with Inkscape (http://www.inkscape.org/) -->

<svg
   version="1.1"
   id="svg2"
   xml:space="preserve"
   width="1035.3077"
   height="129.83308"
   viewBox="0 0 1035.3077 129.83308"
   sodipodi:docname="afd_homework_4_data_1_phase_diff_60_table.svg"
   inkscape:version="1.1 (c4e8f9ed74, 2021-05-24)"
   xmlns:inkscape="http://www.inkscape.org/namespaces/inkscape"
   xmlns:sodipodi="http://sodipodi.sourceforge.net/DTD/sodipodi-0.dtd"
   xmlns="http://www.w3.org/2000/svg"
   xmlns:svg="http://www.w3.org/2000/svg"><sodipodi:namedview
     id="namedview165"
     pagecolor="#ffffff"
     bordercolor="#666666"
     borderopacity="1.0"
     inkscape:pageshadow="2"
     inkscape:pageopacity="0.0"
     inkscape:pagecheckerboard="0"
     showgrid="false"
     inkscape:zoom="0.44146251"
     inkscape:cx="584.42108"
     inkscape:cy="-250.30438"
     inkscape:window-width="1366"
     inkscape:window-height="740"
     inkscape:window-x="0"
     inkscape:window-y="0"
     inkscape:window-maximized="1"
     inkscape:current-layer="svg2" /><defs
     id="defs6" /><path
     d="M 1.81768,128.0154 H 1033.4901 V 1.81768 H 1.81768 Z"
     style="fill:none;stroke:#000000;stroke-width:3.63536;stroke-linecap:square;stroke-linejoin:bevel;stroke-miterlimit:10;stroke-dasharray:none;stroke-opacity:1"
     id="path202" /><path
     d="M 3.6353761,50.11557 H 1031.6724"
     style="fill:none;stroke:#000000;stroke-width:0.259668;stroke-linecap:square;stroke-linejoin:bevel;stroke-miterlimit:10;stroke-dasharray:none;stroke-opacity:1"
     id="path204" /><path
     d="m 63.307943,39.03736 v -26.0224 h 9.816269 c 1.727757,0 3.047245,0.0828 3.958459,0.24851 1.278069,0.21301 2.34904,0.61831 3.21292,1.21592 0.863878,0.5976 1.559123,1.43483 2.085736,2.51171 0.526611,1.07687 0.789917,2.26024 0.789917,3.55012 0,2.21291 -0.704122,4.0856 -2.112362,5.61808 -1.408241,1.53246 -3.952544,2.2987 -7.632904,2.2987 h -6.674353 v 10.57936 z m 3.443682,-13.65022 h 6.727606 c 2.224784,0 3.804618,-0.41418 4.739501,-1.24255 0.934881,-0.82837 1.402323,-1.99398 1.402325,-3.49686 -2e-6,-1.08871 -0.275143,-2.02063 -0.82542,-2.79573 -0.55028,-0.7751 -1.27511,-1.28691 -2.174489,-1.53542 -0.579866,-0.15384 -1.650839,-0.23076 -3.21292,-0.23077 h -6.656603 z m 32.621966,13.65022 v -2.37858 c -1.195232,1.86973 -2.952574,2.8046 -5.272029,2.8046 -1.502913,0 -2.884528,-0.41418 -4.144845,-1.24255 -1.260316,-0.82837 -2.236617,-1.98512 -2.928904,-3.47024 -0.692288,-1.48513 -1.03843,-3.19216 -1.03843,-5.12105 0,-1.88157 0.313598,-3.5886 0.9408,-5.12106 0.627198,-1.53246 1.567998,-2.70696 2.822398,-3.52349 1.254399,-0.81653 2.656724,-1.2248 4.206973,-1.2248 1.136061,0 2.147864,0.23963 3.035411,0.7189 0.887548,0.47926 1.609416,1.1035 2.165615,1.87269 v -9.33682 h 3.17742 v 26.0224 z M 89.273306,29.62954 c 0,2.41408 0.508859,4.21872 1.526581,5.41393 1.01772,1.1952 2.218867,1.79282 3.603442,1.79282 1.396404,0 2.582758,-0.57098 3.559062,-1.71295 0.976299,-1.14195 1.46445,-2.88446 1.464453,-5.22755 -3e-6,-2.57976 -0.497029,-4.47315 -1.491079,-5.68019 -0.994056,-1.20704 -2.21887,-1.81056 -3.674444,-1.81056 -1.420076,0 -2.606432,0.57984 -3.559064,1.73955 -0.952634,1.15971 -1.428951,2.98802 -1.428951,5.48495 z M 107.36009,16.68933 v -3.67437 h 3.19517 v 3.67437 z m 0,22.34803 V 20.18621 h 3.19517 v 18.85115 z m 6.77021,-5.62694 3.15967,-0.49703 c 0.17751,1.26621 0.67157,2.23658 1.48219,2.91111 0.81063,0.67452 1.94373,1.01179 3.39932,1.01179 1.4674,0 2.55612,-0.2988 3.26617,-0.89642 0.71003,-0.5976 1.06506,-1.29875 1.06506,-2.10344 0,-0.72185 -0.31362,-1.28989 -0.9408,-1.70406 -0.43787,-0.28402 -1.52659,-0.64495 -3.26618,-1.08279 -2.34312,-0.59169 -3.96734,-1.1035 -4.87264,-1.53542 -0.90529,-0.43194 -1.59166,-1.02954 -2.0591,-1.79282 -0.46744,-0.76328 -0.70116,-1.60643 -0.70116,-2.52947 0,-0.84019 0.1923,-1.61825 0.5769,-2.33419 0.3846,-0.71595 0.90826,-1.31059 1.57096,-1.78394 0.49703,-0.36684 1.17451,-0.67748 2.03248,-0.93192 0.85795,-0.25441 1.77805,-0.38163 2.76027,-0.38163 1.47925,0 2.77802,0.21301 3.89634,0.63903 1.1183,0.42601 1.94373,1.00291 2.47626,1.73068 0.53252,0.72778 0.89937,1.70109 1.10056,2.91997 l -3.12418,0.42602 c -0.142,-0.97037 -0.55323,-1.72773 -1.23368,-2.27208 -0.68046,-0.54435 -1.64197,-0.81653 -2.88453,-0.81653 -1.46742,0 -2.51472,0.24259 -3.14192,0.72778 -0.6272,0.48518 -0.9408,1.0532 -0.9408,1.70406 0,0.41418 0.13016,0.78694 0.39052,1.11829 0.26035,0.34318 0.66862,0.62718 1.22481,0.85203 0.31952,0.11834 1.26032,0.39051 2.8224,0.81653 2.26029,0.60352 3.83717,1.09757 4.73063,1.48217 0.89347,0.3846 1.59462,0.94375 2.10348,1.67743 0.50887,0.73369 0.7633,1.64489 0.7633,2.7336 0,1.06504 -0.31064,2.06795 -0.93192,3.00872 -0.6213,0.94078 -1.51771,1.66856 -2.68928,2.18333 -1.17155,0.51476 -2.49696,0.77216 -3.97621,0.77216 -2.44963,0 -4.31643,-0.50885 -5.60041,-1.52656 -1.28399,-1.0177 -2.10349,-2.5265 -2.45851,-4.5264 z m 18.17697,0 3.15966,-0.49703 c 0.17751,1.26621 0.67157,2.23658 1.48219,2.91111 0.81063,0.67452 1.94373,1.01179 3.39932,1.01179 1.4674,0 2.55612,-0.2988 3.26617,-0.89642 0.71003,-0.5976 1.06506,-1.29875 1.06506,-2.10344 0,-0.72185 -0.3136,-1.28989 -0.9408,-1.70406 -0.43786,-0.28402 -1.52658,-0.64495 -3.26618,-1.08279 -2.34312,-0.59169 -3.96733,-1.1035 -4.87264,-1.53542 -0.90529,-0.43194 -1.59166,-1.02954 -2.0591,-1.79282 -0.46744,-0.76328 -0.70117,-1.60643 -0.70115,-2.52947 -2e-5,-0.84019 0.19228,-1.61825 0.57689,-2.33419 0.38461,-0.71595 0.90826,-1.31059 1.57096,-1.78394 0.49703,-0.36684 1.17452,-0.67748 2.03248,-0.93192 0.85797,-0.25441 1.77805,-0.38163 2.76027,-0.38163 1.47925,0 2.77802,0.21301 3.89634,0.63903 1.11831,0.42601 1.94371,1.00291 2.47626,1.73068 0.53251,0.72778 0.89937,1.70109 1.10056,2.91997 l -3.12418,0.42602 c -0.14201,-0.97037 -0.55323,-1.72773 -1.23368,-2.27208 -0.68046,-0.54435 -1.64197,-0.81653 -2.88453,-0.81653 -1.46742,0 -2.51472,0.24259 -3.14192,0.72778 -0.6272,0.48518 -0.9408,1.0532 -0.9408,1.70406 0,0.41418 0.13018,0.78694 0.39053,1.11829 0.26034,0.34318 0.66861,0.62718 1.2248,0.85203 0.31952,0.11834 1.26032,0.39051 2.8224,0.81653 2.26029,0.60352 3.83717,1.09757 4.73063,1.48217 0.89347,0.3846 1.59462,0.94375 2.10348,1.67743 0.50887,0.73369 0.7633,1.64489 0.7633,2.7336 0,1.06504 -0.31064,2.06795 -0.93192,3.00872 -0.6213,0.94078 -1.51771,1.66856 -2.68926,2.18333 -1.17157,0.51476 -2.49698,0.77216 -3.97623,0.77216 -2.44961,0 -4.31643,-0.50885 -5.60041,-1.52656 -1.28399,-1.0177 -2.10349,-2.5265 -2.4585,-4.5264 z m 16.50837,12.85144 v -2.30757 h 21.17686 v 2.30757 z m 28.09832,-7.2245 -6.90512,-26.0224 h 3.53243 l 3.95846,17.05834 c 0.42602,1.78689 0.79287,3.56195 1.10056,5.32518 0.66269,-2.78093 1.05322,-4.3844 1.17155,-4.81042 l 4.95252,-17.5731 h 4.15372 l 3.7277,13.17096 c 0.93488,3.26611 1.60941,6.33696 2.0236,9.21256 0.33134,-1.64488 0.7633,-3.53237 1.29582,-5.66245 l 4.08272,-16.72107 h 3.46143 l -7.13587,26.0224 h -3.31943 l -5.48504,-19.82744 c -0.46152,-1.65672 -0.73371,-2.67442 -0.81654,-3.0531 -0.27219,1.19521 -0.52661,2.21291 -0.7633,3.0531 l -5.52053,19.82744 z"
     style="fill:#000000;fill-opacity:1;fill-rule:nonzero;stroke:none;stroke-width:0.16"
     id="path212" /><path
     d="M 3.6353761,50.11557 H 260.70955"
     style="fill:none;stroke:#000000;stroke-width:0.259668;stroke-linecap:square;stroke-linejoin:bevel;stroke-miterlimit:10;stroke-dasharray:none;stroke-opacity:1"
     id="path220" /><path
     d="M 260.70955,3.63534 V 50.11557"
     style="fill:none;stroke:#000000;stroke-width:0.259668;stroke-linecap:square;stroke-linejoin:bevel;stroke-miterlimit:10;stroke-dasharray:none;stroke-opacity:1"
     id="path222" /><path
     d="m 260.70955,50.11557 v 76.08217"
     style="fill:none;stroke:#000000;stroke-width:0.259668;stroke-linecap:square;stroke-linejoin:bevel;stroke-miterlimit:10;stroke-dasharray:none;stroke-opacity:1"
     id="path224" /><path
     d="m 105.3305,77.96395 v -3.07086 h 16.84565 v 2.48509 c -1.65677,1.76323 -3.29872,4.1063 -4.92589,7.02924 -1.62717,2.92293 -2.88453,5.92871 -3.77208,9.01732 -0.63903,2.1774 -1.0473,4.5619 -1.22481,7.15348 h -3.28393 c 0.0355,-2.04723 0.43786,-4.52048 1.20707,-7.41974 0.7692,-2.89928 1.87272,-5.69499 3.31055,-8.38717 1.43782,-2.69217 2.96736,-4.96129 4.58861,-6.80736 z m 20.19915,0 v -3.07086 h 16.84564 v 2.48509 c -1.65676,1.76323 -3.29872,4.1063 -4.92589,7.02924 -1.62717,2.92293 -2.88453,5.92871 -3.77207,9.01732 -0.63904,2.1774 -1.04731,4.5619 -1.22481,7.15348 h -3.28392 c 0.0355,-2.04723 0.43785,-4.52048 1.20705,-7.41974 0.76922,-2.89928 1.87272,-5.69499 3.31055,-8.38717 1.43784,-2.69217 2.96737,-4.96129 4.58862,-6.80736 z m 36.56551,2.96435 -3.17741,0.24852 c -0.28402,-1.25439 -0.68638,-2.16559 -1.20707,-2.7336 -0.86387,-0.9112 -1.92893,-1.3668 -3.19517,-1.3668 -1.01773,0 -1.91118,0.28401 -2.68039,0.85203 -1.00588,0.73369 -1.79876,1.80464 -2.37862,3.21286 -0.57987,1.40821 -0.88163,3.41403 -0.90531,6.01746 0.76921,-1.17154 1.71001,-2.04133 2.8224,-2.60935 1.1124,-0.56801 2.27805,-0.85203 3.49694,-0.85203 2.13011,0 3.94367,0.78399 5.44066,2.35195 1.49699,1.56799 2.2455,3.59452 2.2455,6.0796 0,1.63306 -0.35206,3.15072 -1.05619,4.55303 -0.70411,1.4023 -1.67155,2.47621 -2.90227,3.22174 -1.23074,0.74552 -2.62714,1.11829 -4.18922,1.11829 -2.66264,0 -4.83417,-0.97925 -6.51461,-2.93773 -1.68041,-1.95849 -2.52062,-5.18614 -2.52062,-9.68296 0,-5.02934 0.92896,-8.68597 2.7869,-10.96989 1.62124,-1.98806 3.8046,-2.98209 6.55009,-2.98209 2.04727,0 3.72474,0.57393 5.03239,1.72181 1.30766,1.14787 2.09164,2.7336 2.352,4.75716 z m -13.04693,11.21839 c -2e-5,1.10054 0.23371,2.15374 0.70115,3.15961 0.46744,1.00586 1.12127,1.7721 1.96149,2.29871 0.84021,0.52659 1.72184,0.78989 2.64488,0.78989 1.34907,0 2.5088,-0.54436 3.47918,-1.63306 0.97039,-1.0887 1.45559,-2.56792 1.45559,-4.43765 0,-1.79872 -0.47928,-3.21582 -1.43783,-4.25126 -0.95856,-1.03546 -2.16561,-1.55319 -3.6212,-1.55319 -1.44374,0 -2.66856,0.51773 -3.67444,1.55319 -1.00589,1.03544 -1.50884,2.39337 -1.50882,4.07376 z m 18.45955,8.43153 v -3.63886 h 3.63894 v 3.63886 z m 24.87475,-19.64992 -3.17742,0.24852 c -0.28402,-1.25439 -0.68637,-2.16559 -1.20707,-2.7336 -0.86388,-0.9112 -1.92893,-1.3668 -3.19517,-1.3668 -1.01771,0 -1.91119,0.28401 -2.68039,0.85203 -1.00588,0.73369 -1.79876,1.80464 -2.37862,3.21286 -0.57987,1.40821 -0.88163,3.41403 -0.9053,6.01746 0.7692,-1.17154 1.71,-2.04133 2.8224,-2.60935 1.11239,-0.56801 2.27804,-0.85203 3.49693,-0.85203 2.13011,0 3.94367,0.78399 5.44066,2.35195 1.49699,1.56799 2.2455,3.59452 2.2455,6.0796 0,1.63306 -0.35206,3.15072 -1.05619,4.55303 -0.70411,1.4023 -1.67154,2.47621 -2.90227,3.22174 -1.23074,0.74552 -2.62714,1.11829 -4.18922,1.11829 -2.66264,0 -4.83417,-0.97925 -6.51459,-2.93773 -1.68043,-1.95849 -2.52064,-5.18614 -2.52064,-9.68296 0,-5.02934 0.92896,-8.68597 2.7869,-10.96989 1.62124,-1.98806 3.8046,-2.98209 6.55009,-2.98209 2.04728,0 3.72474,0.57393 5.0324,1.72181 1.30765,1.14787 2.09165,2.7336 2.352,4.75716 z m -13.04694,11.21839 c 0,1.10054 0.23371,2.15374 0.70115,3.15961 0.46744,1.00586 1.12126,1.7721 1.96149,2.29871 0.84021,0.52659 1.72184,0.78989 2.64488,0.78989 1.34907,0 2.5088,-0.54436 3.47918,-1.63306 0.97039,-1.0887 1.45559,-2.56792 1.45559,-4.43765 0,-1.79872 -0.47928,-3.21582 -1.43783,-4.25126 -0.95856,-1.03546 -2.16561,-1.55319 -3.6212,-1.55319 -1.44374,0 -2.66856,0.51773 -3.67443,1.55319 -1.0059,1.03544 -1.50883,2.39337 -1.50883,4.07376 z m 27.64246,8.43153 V 81.72707 h 2.85791 v 2.64485 c 0.59169,-0.92304 1.37865,-1.6656 2.36088,-2.2277 0.98221,-0.56211 2.10053,-0.84316 3.35493,-0.84316 1.3964,0 2.54132,0.28993 3.4348,0.86979 0.89345,0.57985 1.52361,1.39046 1.89048,2.43182 1.49107,-2.20107 3.43184,-3.30161 5.8223,-3.30161 1.86976,0 3.30758,0.51772 4.31347,1.55318 1.00589,1.03546 1.50883,2.63005 1.50883,4.78379 v 12.94019 h -3.1774 V 88.70307 c 0,-1.27805 -0.10356,-2.19813 -0.31064,-2.76022 -0.20711,-0.5621 -0.58284,-1.01474 -1.12719,-1.35792 -0.54437,-0.34319 -1.18341,-0.51477 -1.9171,-0.51477 -1.32541,0 -2.42597,0.4408 -3.30168,1.32242 -0.87571,0.88161 -1.31357,2.29278 -1.31357,4.23352 v 10.95212 H 218.1789 V 88.3303 c 0,-1.42004 -0.26035,-2.48508 -0.78104,-3.1951 -0.5207,-0.71003 -1.37275,-1.06504 -2.55614,-1.06504 -0.89938,0 -1.73071,0.23667 -2.494,0.71002 -0.7633,0.47336 -1.31653,1.16563 -1.65972,2.07683 -0.34319,0.9112 -0.51478,2.22473 -0.51478,3.94064 v 9.78057 z"
     style="fill:#000000;fill-opacity:1;fill-rule:nonzero;stroke:none;stroke-width:0.16"
     id="path232" /><path
     d="m 300.12778,39.03736 v -26.0224 h 9.81627 c 1.72776,0 3.04725,0.0828 3.95847,0.24851 1.27806,0.21301 2.34904,0.61831 3.21291,1.21592 0.86389,0.5976 1.55912,1.43483 2.08574,2.51171 0.52661,1.07687 0.78991,2.26024 0.78991,3.55012 0,2.21291 -0.70411,4.0856 -2.11236,5.61808 -1.40824,1.53246 -3.95254,2.2987 -7.63291,2.2987 h -6.67435 v 10.57936 z m 3.44368,-13.65022 h 6.72762 c 2.22478,0 3.8046,-0.41418 4.73948,-1.24255 0.9349,-0.82837 1.40234,-1.99398 1.40234,-3.49686 0,-1.08871 -0.27515,-2.02063 -0.82542,-2.79573 -0.55028,-0.7751 -1.27511,-1.28691 -2.1745,-1.53542 -0.57986,-0.15384 -1.65083,-0.23076 -3.21291,-0.23077 h -6.65661 z m 32.62197,13.65022 v -2.37858 c -1.19523,1.86973 -2.95258,2.8046 -5.27203,2.8046 -1.50292,0 -2.88453,-0.41418 -4.14484,-1.24255 -1.26032,-0.82837 -2.23662,-1.98512 -2.92891,-3.47024 -0.69229,-1.48513 -1.03843,-3.19216 -1.03843,-5.12105 0,-1.88157 0.3136,-3.5886 0.9408,-5.12106 0.6272,-1.53246 1.568,-2.70696 2.8224,-3.52349 1.2544,-0.81653 2.65672,-1.2248 4.20698,-1.2248 1.13606,0 2.14785,0.23963 3.0354,0.7189 0.88756,0.47926 1.60941,1.1035 2.16562,1.87269 v -9.33682 h 3.17742 v 26.0224 z m -10.10029,-9.40782 c 0,2.41408 0.50887,4.21872 1.52659,5.41393 1.01772,1.1952 2.21887,1.79282 3.60344,1.79282 1.3964,0 2.58275,-0.57098 3.55906,-1.71295 0.9763,-1.14195 1.46445,-2.88446 1.46445,-5.22755 0,-2.57976 -0.49703,-4.47315 -1.49108,-5.68019 -0.99404,-1.20704 -2.21886,-1.81056 -3.67444,-1.81056 -1.42007,0 -2.60644,0.57984 -3.55906,1.73955 -0.95264,1.15971 -1.42896,2.98802 -1.42896,5.48495 z m 18.08678,-12.94021 v -3.67437 h 3.19519 v 3.67437 z m 0,22.34803 V 20.18621 h 3.19519 v 18.85115 z m 6.77023,-5.62694 3.15966,-0.49703 c 0.17751,1.26621 0.67157,2.23658 1.48219,2.91111 0.81064,0.67452 1.94373,1.01179 3.39932,1.01179 1.4674,0 2.55612,-0.2988 3.26617,-0.89642 0.71003,-0.5976 1.06506,-1.29875 1.06506,-2.10344 0,-0.72185 -0.3136,-1.28989 -0.9408,-1.70406 -0.43786,-0.28402 -1.52658,-0.64495 -3.26618,-1.08279 -2.34312,-0.59169 -3.96733,-1.1035 -4.87262,-1.53542 -0.90531,-0.43194 -1.59168,-1.02954 -2.05912,-1.79282 -0.46744,-0.76328 -0.70115,-1.60643 -0.70115,-2.52947 0,-0.84019 0.19228,-1.61825 0.57689,-2.33419 0.38461,-0.71595 0.90826,-1.31059 1.57096,-1.78394 0.49703,-0.36684 1.17451,-0.67748 2.03248,-0.93192 0.85797,-0.25441 1.77805,-0.38163 2.76027,-0.38163 1.47925,0 2.77804,0.21301 3.89634,0.63903 1.1183,0.42601 1.94373,1.00291 2.47626,1.73068 0.53252,0.72778 0.89937,1.70109 1.10056,2.91997 l -3.12418,0.42602 c -0.142,-0.97037 -0.55323,-1.72773 -1.23368,-2.27208 -0.68046,-0.54435 -1.64197,-0.81653 -2.88453,-0.81653 -1.46742,0 -2.51472,0.24259 -3.14192,0.72778 -0.6272,0.48518 -0.9408,1.0532 -0.9408,1.70406 0,0.41418 0.13018,0.78694 0.39051,1.11829 0.26036,0.34318 0.66863,0.62718 1.22484,0.85203 0.3195,0.11834 1.2603,0.39051 2.82238,0.81653 2.26029,0.60352 3.83717,1.09757 4.73064,1.48217 0.89346,0.3846 1.59461,0.94375 2.10347,1.67743 0.50887,0.73369 0.7633,1.64489 0.7633,2.7336 0,1.06504 -0.31064,2.06795 -0.93192,3.00872 -0.62128,0.94078 -1.51771,1.66856 -2.68927,2.18333 -1.17156,0.51476 -2.49697,0.77216 -3.97622,0.77216 -2.44962,0 -4.31643,-0.50885 -5.60042,-1.52656 -1.28398,-1.0177 -2.10348,-2.5265 -2.45849,-4.5264 z m 18.17696,0 3.15966,-0.49703 c 0.17751,1.26621 0.67157,2.23658 1.48221,2.91111 0.81061,0.67452 1.94371,1.01179 3.3993,1.01179 1.46741,0 2.55614,-0.2988 3.26617,-0.89642 0.71004,-0.5976 1.06506,-1.29875 1.06506,-2.10344 0,-0.72185 -0.3136,-1.28989 -0.9408,-1.70406 -0.43786,-0.28402 -1.52658,-0.64495 -3.26618,-1.08279 -2.34312,-0.59169 -3.96732,-1.1035 -4.87262,-1.53542 -0.9053,-0.43194 -1.59168,-1.02954 -2.05912,-1.79282 -0.46744,-0.76328 -0.70117,-1.60643 -0.70115,-2.52947 -2e-5,-0.84019 0.19228,-1.61825 0.57689,-2.33419 0.38461,-0.71595 0.90826,-1.31059 1.57096,-1.78394 0.49703,-0.36684 1.17453,-0.67748 2.03248,-0.93192 0.85797,-0.25441 1.77805,-0.38163 2.76027,-0.38163 1.47925,0 2.77802,0.21301 3.89634,0.63903 1.1183,0.42601 1.94373,1.00291 2.47626,1.73068 0.53252,0.72778 0.89937,1.70109 1.10056,2.91997 l -3.12416,0.42602 c -0.14202,-0.97037 -0.55325,-1.72773 -1.2337,-2.27208 -0.68046,-0.54435 -1.64197,-0.81653 -2.88453,-0.81653 -1.46742,0 -2.51472,0.24259 -3.14192,0.72778 -0.6272,0.48518 -0.9408,1.0532 -0.9408,1.70406 0,0.41418 0.13018,0.78694 0.39053,1.11829 0.26034,0.34318 0.66861,0.62718 1.22482,0.85203 0.3195,0.11834 1.2603,0.39051 2.8224,0.81653 2.26027,0.60352 3.83715,1.09757 4.73062,1.48217 0.89346,0.3846 1.59461,0.94375 2.10349,1.67743 0.50885,0.73369 0.76328,1.64489 0.76328,2.7336 0,1.06504 -0.31064,2.06795 -0.93192,3.00872 -0.6213,0.94078 -1.51771,1.66856 -2.68927,2.18333 -1.17156,0.51476 -2.49697,0.77216 -3.9762,0.77216 -2.44964,0 -4.31645,-0.50885 -5.60044,-1.52656 -1.28398,-1.0177 -2.10348,-2.5265 -2.45849,-4.5264 z m 16.50837,12.85144 v -2.30757 h 21.17686 v 2.30757 z m 35.3762,-7.2245 v -2.37858 c -1.19524,1.86973 -2.95259,2.8046 -5.27203,2.8046 -1.50293,0 -2.88453,-0.41418 -4.14485,-1.24255 -1.26032,-0.82837 -2.23662,-1.98512 -2.92891,-3.47024 -0.69227,-1.48513 -1.03841,-3.19216 -1.03841,-5.12105 0,-1.88157 0.31358,-3.5886 0.9408,-5.12106 0.62718,-1.53246 1.56798,-2.70696 2.8224,-3.52349 1.25438,-0.81653 2.6567,-1.2248 4.20696,-1.2248 1.13606,0 2.14787,0.23963 3.0354,0.7189 0.88756,0.47926 1.60943,1.1035 2.16562,1.87269 v -9.33682 h 3.17743 v 26.0224 z M 410.9114,29.62954 c 0,2.41408 0.50884,4.21872 1.52657,5.41393 1.01771,1.1952 2.21887,1.79282 3.60344,1.79282 1.3964,0 2.58277,-0.57098 3.55907,-1.71295 0.97629,-1.14195 1.46445,-2.88446 1.46445,-5.22755 0,-2.57976 -0.49702,-4.47315 -1.49109,-5.68019 -0.99404,-1.20704 -2.21886,-1.81056 -3.67443,-1.81056 -1.42008,0 -2.60645,0.57984 -3.55907,1.73955 -0.95264,1.15971 -1.42894,2.98802 -1.42894,5.48495 z m 18.33529,9.40782 v -26.0224 h 9.76303 c 1.98808,0 3.5827,0.2633 4.78387,0.7899 1.20113,0.52661 2.14193,1.33722 2.8224,2.43183 0.68043,1.09462 1.02067,2.23953 1.02067,3.43475 0,1.11237 -0.30178,2.15966 -0.9053,3.14186 -0.60353,0.9822 -1.51475,1.77507 -2.73364,2.37857 1.57392,0.46152 2.78393,1.24847 3.63008,2.36083 0.84611,1.11239 1.26918,2.42592 1.26918,3.94064 0,1.21888 -0.25739,2.35196 -0.77216,3.39925 -0.51478,1.04728 -1.15086,1.85495 -1.90822,2.42296 -0.7574,0.56802 -1.70708,0.99699 -2.84903,1.28691 -1.14198,0.28994 -2.54136,0.4349 -4.19809,0.4349 z m 3.44368,-15.08802 h 5.62706 c 1.52656,0 2.62122,-0.10059 3.28392,-0.30176 0.87571,-0.26035 1.53545,-0.69228 1.97923,-1.2958 0.44378,-0.60352 0.66565,-1.36088 0.66565,-2.27208 0,-0.86386 -0.20709,-1.62418 -0.62128,-2.28095 -0.41419,-0.65677 -1.00589,-1.10646 -1.77509,-1.34905 -0.76922,-0.24258 -2.0887,-0.36388 -3.95846,-0.36389 h -5.20103 z m 0,12.01716 h 6.47911 c 1.11236,0 1.89342,-0.0414 2.34312,-0.12426 0.79286,-0.142 1.45556,-0.37867 1.98809,-0.71002 0.53253,-0.33134 0.97039,-0.81356 1.31357,-1.44667 0.34318,-0.6331 0.51479,-1.36384 0.51479,-2.19221 0,-0.97036 -0.24852,-1.81352 -0.74554,-2.52945 -0.49703,-0.71595 -1.18637,-1.21888 -2.06798,-1.5088 -0.88165,-0.28994 -2.15085,-0.4349 -3.80759,-0.4349 h -6.01757 z m 20.53359,3.07086 V 20.18621 h 2.85788 v 2.64485 c 0.5917,-0.92304 1.37866,-1.6656 2.36088,-2.22772 0.98223,-0.56209 2.10053,-0.84315 3.35493,-0.84315 1.3964,0 2.54135,0.28994 3.43482,0.86978 0.89345,0.57985 1.52361,1.39046 1.89046,2.43184 1.49107,-2.20107 3.43184,-3.30162 5.82232,-3.30162 1.86975,0 3.30757,0.51773 4.31347,1.55319 1.00588,1.03545 1.50884,2.63004 1.50884,4.78379 v 12.94019 h -3.17743 V 27.16219 c -10e-6,-1.27803 -0.10355,-2.19811 -0.31064,-2.76021 -0.2071,-0.56211 -0.58283,-1.01475 -1.12718,-1.35793 -0.54437,-0.34317 -1.18339,-0.51477 -1.91711,-0.51477 -1.3254,0 -2.42596,0.44082 -3.30166,1.32243 -0.87573,0.88162 -1.31358,2.29279 -1.31358,4.23352 v 10.95213 h -3.19517 V 26.78944 c 0,-1.42005 -0.26035,-2.48509 -0.78104,-3.19512 -0.52071,-0.71002 -1.37274,-1.06504 -2.55613,-1.06504 -0.89939,0 -1.73072,0.23669 -2.49402,0.71003 -0.76328,0.47335 -1.31652,1.16563 -1.65971,2.07682 -0.34318,0.9112 -0.51478,2.22475 -0.51476,3.94064 v 9.78059 z"
     style="fill:#000000;fill-opacity:1;fill-rule:nonzero;stroke:none;stroke-width:0.16"
     id="path244" /><path
     d="m 260.70955,50.11557 h 256.8145"
     style="fill:none;stroke:#000000;stroke-width:0.259668;stroke-linecap:square;stroke-linejoin:bevel;stroke-miterlimit:10;stroke-dasharray:none;stroke-opacity:1"
     id="path252" /><path
     d="M 517.52405,3.63534 V 50.11557"
     style="fill:none;stroke:#000000;stroke-width:0.259668;stroke-linecap:square;stroke-linejoin:bevel;stroke-miterlimit:10;stroke-dasharray:none;stroke-opacity:1"
     id="path254" /><path
     d="m 517.52405,50.11557 v 76.08217"
     style="fill:none;stroke:#000000;stroke-width:0.259668;stroke-linecap:square;stroke-linejoin:bevel;stroke-miterlimit:10;stroke-dasharray:none;stroke-opacity:1"
     id="path256" /><path
     d="m 398.97871,97.50738 v 3.07084 h -17.20066 c -0.0237,-0.76918 0.10058,-1.5088 0.37277,-2.21881 0.43786,-1.17155 1.13901,-2.32533 2.10349,-3.46138 0.96446,-1.13603 2.3579,-2.44958 4.18034,-3.94064 2.82832,-2.31941 4.7395,-4.15659 5.73355,-5.51157 0.99406,-1.35496 1.49109,-2.63595 1.49109,-3.843 0,-1.26621 -0.45266,-2.3342 -1.35796,-3.20399 -0.90529,-0.86977 -2.08572,-1.30467 -3.54131,-1.30467 -1.53841,0 -2.76915,0.46152 -3.69219,1.38456 -0.92306,0.92302 -1.3905,2.20107 -1.40232,3.83413 l -3.28394,-0.33727 c 0.22485,-2.44958 1.07098,-4.31635 2.53839,-5.60032 1.4674,-1.28395 3.43777,-1.92593 5.91107,-1.92593 2.49696,0 4.47323,0.69227 5.92881,2.07681 1.45557,1.38455 2.18336,3.10045 2.18336,5.14768 0,1.04138 -0.213,2.065 -0.63904,3.07087 -0.42601,1.00585 -1.1331,2.06497 -2.12123,3.17736 -0.98814,1.11237 -2.63009,2.63891 -4.92589,4.57965 -1.9171,1.60939 -3.14782,2.70105 -3.69219,3.27499 -0.54437,0.57393 -0.99404,1.15083 -1.34907,1.73069 z m 8.32376,-11.04088 c -1.32539,-0.48519 -2.30762,-1.17746 -2.94666,-2.07684 -0.63902,-0.89936 -0.95854,-1.97622 -0.95854,-3.2306 0,-1.8934 0.68045,-3.48504 2.04136,-4.77492 1.3609,-1.28987 3.1715,-1.93481 5.43179,-1.93481 2.27211,0 4.10047,0.65973 5.48504,1.9792 1.38456,1.31945 2.07685,2.92589 2.07685,4.81928 0,1.20704 -0.31656,2.25729 -0.94966,3.15073 -0.63312,0.89346 -1.59464,1.58277 -2.88453,2.06796 1.59758,0.52068 2.81352,1.36088 3.64781,2.52057 0.8343,1.15971 1.25144,2.54426 1.25144,4.15365 0,2.22475 -0.78696,4.09448 -2.36087,5.6092 -1.57392,1.51472 -3.64486,2.27208 -6.21283,2.27208 -2.56797,0 -4.63891,-0.76032 -6.21283,-2.28096 -1.57392,-1.52064 -2.36088,-3.41699 -2.36088,-5.68907 0,-1.69223 0.42899,-3.10931 1.28694,-4.25127 0.85797,-1.14196 2.07983,-1.92003 3.66557,-2.3342 z m -0.63902,-5.41394 c 0,1.2307 0.39643,2.23658 1.18931,3.0176 0.79286,0.78102 1.82243,1.17154 3.08865,1.17154 1.23074,0 2.23959,-0.38756 3.02655,-1.16266 0.78696,-0.77512 1.18043,-1.72477 1.18043,-2.84898 0,-1.17155 -0.40531,-2.1567 -1.21594,-2.95548 -0.81062,-0.79877 -1.81947,-1.19816 -3.02654,-1.19816 -1.2189,0 -2.23069,0.39051 -3.03541,1.17153 -0.8047,0.78104 -1.20706,1.71591 -1.20705,2.80461 z m -1.02956,12.01717 c 0,0.91118 0.21597,1.7928 0.64791,2.64483 0.43193,0.85203 1.07393,1.51176 1.92598,1.9792 0.85203,0.46742 1.76917,0.70114 2.75139,0.70114 1.52658,0 2.7869,-0.49109 3.78095,-1.4733 0.99405,-0.98219 1.49107,-2.23066 1.49109,-3.74538 -2e-5,-1.53838 -0.51183,-2.81051 -1.53546,-3.81638 -1.02365,-1.00587 -2.30467,-1.5088 -3.84309,-1.5088 -1.50291,0 -2.74843,0.49702 -3.73657,1.49106 -0.98813,0.99403 -1.4822,2.23657 -1.4822,3.72763 z m 18.74357,7.50849 v -3.63886 h 3.63895 v 3.63886 z m 8.77464,-6.01745 3.07091,-0.284 c 0.26036,1.44371 0.75738,2.49099 1.49109,3.14185 0.7337,0.65085 1.6745,0.97628 2.8224,0.97628 0.98221,0 1.84314,-0.22484 2.58275,-0.67452 0.73962,-0.44968 1.34612,-1.05025 1.81948,-1.80169 0.47336,-0.75144 0.86979,-1.76618 1.18931,-3.04423 0.31952,-1.27804 0.47928,-2.57976 0.47928,-3.90513 0,-0.142 -0.006,-0.35501 -0.0178,-0.63903 -0.63903,1.0177 -1.51179,1.84311 -2.61826,2.47621 -1.10648,0.63311 -2.30467,0.94967 -3.59456,0.94967 -2.15379,0 -3.97621,-0.78103 -5.46729,-2.34309 -1.49108,-1.56205 -2.23663,-3.62112 -2.23663,-6.17722 0,-2.63891 0.77808,-4.76307 2.33426,-6.37246 1.55616,-1.60939 3.50581,-2.41408 5.84893,-2.41408 1.69225,0 3.23955,0.4556 4.64187,1.3668 1.40233,0.9112 2.46739,2.20995 3.19517,3.89625 0.72779,1.68631 1.09169,4.12703 1.09169,7.32213 0,3.32528 -0.36094,5.97309 -1.08281,7.94339 -0.72188,1.97032 -1.79581,3.47026 -3.2218,4.4998 -1.426,1.02953 -3.09753,1.5443 -5.01464,1.5443 -2.03544,0 -3.69811,-0.56507 -4.98801,-1.69518 -1.28991,-1.13013 -2.06503,-2.7188 -2.32538,-4.76605 z m 13.08245,-11.48464 c 0,-1.83424 -0.48816,-3.28978 -1.46445,-4.36666 -0.9763,-1.07686 -2.15083,-1.61531 -3.52357,-1.61531 -1.42008,0 -2.65673,0.57986 -3.70995,1.73957 -1.05321,1.15971 -1.57982,2.66259 -1.57982,4.50865 0,1.65672 0.49998,3.00282 1.49995,4.03826 0.99997,1.03546 2.23365,1.55318 3.70107,1.55318 1.47923,0 2.69517,-0.51772 3.64781,-1.55318 0.95264,-1.03544 1.42896,-2.47029 1.42896,-4.30451 z m 6.63742,4.6684 c 0,-3.07677 0.31656,-5.55298 0.94968,-7.42863 0.63311,-1.87564 1.57391,-3.32232 2.8224,-4.34003 1.24848,-1.01769 2.81944,-1.52654 4.71287,-1.52654 1.39641,0 2.62121,0.28105 3.67445,0.84315 1.05321,0.5621 1.92302,1.37272 2.60939,2.43184 0.68637,1.05912 1.22481,2.34899 1.61534,3.86963 0.39051,1.52064 0.58578,3.57083 0.58578,6.15058 0,3.05312 -0.3136,5.51749 -0.9408,7.39313 -0.6272,1.87565 -1.56504,3.32528 -2.81352,4.3489 -1.2485,1.02363 -2.82536,1.53544 -4.73064,1.53544 -2.5088,0 -4.47916,-0.89938 -5.91106,-2.6981 -1.71592,-2.16558 -2.57389,-5.69203 -2.57389,-10.57937 z m 3.28392,0 c 0,4.27198 0.49999,7.11504 1.49997,8.52918 0.99995,1.41413 2.23365,2.12119 3.70106,2.12119 1.46741,0 2.7011,-0.71002 3.70107,-2.13007 0.99997,-1.42005 1.49997,-4.26014 1.49997,-8.5203 0,-4.28381 -0.5,-7.12983 -1.49997,-8.53803 -0.99997,-1.40823 -2.24549,-2.11234 -3.73656,-2.11234 -1.46742,0 -2.63898,0.62128 -3.51469,1.86382 -1.10056,1.58572 -1.65085,4.51458 -1.65085,8.78655 z"
     style="fill:#000000;fill-opacity:1;fill-rule:nonzero;stroke:none;stroke-width:0.16"
     id="path264" /><path
     d="m 572.26287,39.03736 v -26.0224 h 9.81627 c 1.72775,0 3.04723,0.0828 3.95845,0.24851 1.27808,0.21301 2.34904,0.61831 3.21293,1.21592 0.86387,0.5976 1.55912,1.43483 2.08573,2.51171 0.5266,1.07687 0.78992,2.26024 0.78992,3.55012 0,2.21291 -0.70412,4.0856 -2.11236,5.61808 -1.40825,1.53246 -3.95254,2.2987 -7.63291,2.2987 h -6.67435 v 10.57936 z m 3.44368,-13.65022 h 6.7276 c 2.22478,0 3.80462,-0.41418 4.7395,-1.24255 0.93488,-0.82837 1.40232,-1.99398 1.40232,-3.49686 0,-1.08871 -0.27513,-2.02063 -0.8254,-2.79573 -0.55029,-0.7751 -1.27512,-1.28691 -2.1745,-1.53542 -0.57986,-0.15384 -1.65083,-0.23076 -3.21291,-0.23077 h -6.65661 z m 19.62827,5.28968 3.24843,-0.284 c 0.15384,1.30171 0.51181,2.36969 1.07392,3.20398 0.56212,0.83427 1.43488,1.5088 2.61828,2.02357 1.18339,0.51477 2.51472,0.77214 3.99395,0.77214 1.31358,0 2.47331,-0.19525 3.4792,-0.58576 1.00587,-0.39051 1.75437,-0.926 2.24548,-1.60643 0.49111,-0.68045 0.73666,-1.42301 0.73666,-2.22771 0,-0.81653 -0.23667,-1.52951 -0.71003,-2.13895 -0.47336,-0.60944 -1.2544,-1.12124 -2.34312,-1.53542 -0.69821,-0.27218 -2.24255,-0.69523 -4.63299,-1.26917 -2.39047,-0.57393 -4.06498,-1.11533 -5.02352,-1.62419 -1.24258,-0.65085 -2.16858,-1.4585 -2.77804,-2.42294 -0.60944,-0.96447 -0.91416,-2.04429 -0.91416,-3.23949 0,-1.31355 0.37277,-2.5413 1.11831,-3.68327 0.74553,-1.14195 1.83425,-2.00876 3.26617,-2.60046 1.43191,-0.59168 3.02357,-0.88752 4.775,-0.88752 1.92894,0 3.63006,0.31062 5.1034,0.9319 1.47332,0.62127 2.60642,1.53543 3.3993,2.74247 0.79288,1.20704 1.2189,2.57384 1.27806,4.1004 l -3.30166,0.24849 c -0.17752,-1.64488 -0.7781,-2.88742 -1.80173,-3.72761 -1.02363,-0.84021 -2.53542,-1.26031 -4.53536,-1.26031 -2.08278,0 -3.60048,0.38165 -4.55312,1.14492 -0.95264,0.76328 -1.42894,1.68336 -1.42894,2.76022 0,0.93486 0.33726,1.70406 1.01179,2.30758 0.6627,0.60352 2.39342,1.22184 5.19216,1.85495 2.79872,0.6331 4.71878,1.18632 5.76018,1.65968 1.51475,0.69819 2.63305,1.58277 3.35492,2.65371 0.72188,1.07096 1.0828,2.30462 1.0828,3.70101 0,1.38454 -0.39643,2.68921 -1.18931,3.914 -0.79286,1.2248 -1.93189,2.17741 -3.41705,2.85785 -1.48516,0.68044 -3.15671,1.02066 -5.01464,1.02066 -2.35496,0 -4.32828,-0.34317 -5.91994,-1.02954 -1.59166,-0.68635 -2.84014,-1.71884 -3.74544,-3.09747 -0.9053,-1.37864 -1.38162,-2.93773 -1.42896,-4.67729 z m 37.36147,8.36054 v -2.7691 c -1.46742,2.13008 -3.46144,3.19512 -5.98206,3.19512 -1.1124,0 -2.15083,-0.21301 -3.1153,-0.63903 -0.96446,-0.42601 -1.68041,-0.96149 -2.14785,-1.60643 -0.46746,-0.64494 -0.79584,-1.43483 -0.98519,-2.36971 -0.13017,-0.62719 -0.19526,-1.62122 -0.19526,-2.9821 v -11.6799 h 3.19517 v 10.4551 c 0,1.66856 0.0651,2.79277 0.19526,3.37263 0.20119,0.84019 0.6272,1.49992 1.27807,1.9792 0.65086,0.47926 1.45558,0.71889 2.41412,0.71889 0.95856,0 1.85794,-0.24555 2.69815,-0.73665 0.84021,-0.49111 1.43486,-1.15972 1.78397,-2.00583 0.3491,-0.84611 0.52366,-2.07385 0.52366,-3.68325 V 20.18621 h 3.19517 v 18.85115 z m 7.8445,0 V 20.18621 h 2.8579 v 2.64485 c 0.5917,-0.92304 1.37866,-1.6656 2.36087,-2.22772 0.98222,-0.56209 2.10053,-0.84315 3.35493,-0.84315 1.39641,0 2.54134,0.28994 3.43481,0.86978 0.89346,0.57985 1.52362,1.39046 1.89047,2.43184 1.49108,-2.20107 3.43185,-3.30162 5.82232,-3.30162 1.86976,0 3.30758,0.51773 4.31347,1.55319 1.00589,1.03545 1.50883,2.63004 1.50883,4.78379 v 12.94019 h -3.17742 V 27.16219 c 0,-1.27803 -0.10356,-2.19811 -0.31064,-2.76021 -0.20709,-0.56211 -0.58282,-1.01475 -1.12719,-1.35793 -0.54437,-0.34317 -1.18339,-0.51477 -1.9171,-0.51477 -1.32541,0 -2.42597,0.44082 -3.30167,1.32243 -0.87572,0.88162 -1.31356,2.29279 -1.31356,4.23352 v 10.95213 h -3.19519 V 26.78944 c 0,-1.42005 -0.26033,-2.48509 -0.78102,-3.19512 -0.52071,-0.71002 -1.37275,-1.06504 -2.55615,-1.06504 -0.89939,0 -1.73072,0.23669 -2.494,0.71003 -0.76329,0.47335 -1.31654,1.16563 -1.65972,2.07682 -0.34319,0.9112 -0.51477,2.22475 -0.51477,3.94064 v 9.78059 z m 27.31798,7.2245 v -2.30757 h 21.17687 v 2.30757 z m 28.09832,-7.2245 -6.90512,-26.0224 h 3.53244 l 3.95846,17.05834 c 0.42601,1.78689 0.79286,3.56195 1.10056,5.32518 0.6627,-2.78093 1.05321,-4.3844 1.17157,-4.81042 l 4.95251,-17.5731 h 4.15371 l 3.7277,13.17096 c 0.93488,3.26611 1.6094,6.33696 2.02361,9.21256 0.33133,-1.64488 0.76327,-3.53237 1.29581,-5.66245 l 4.08272,-16.72107 h 3.46142 l -7.13587,26.0224 h -3.31942 l -5.48504,-19.82744 c -0.46152,-1.65672 -0.73371,-2.67442 -0.81655,-3.0531 -0.27219,1.19521 -0.5266,2.21291 -0.76328,3.0531 l -5.52054,19.82744 z"
     style="fill:#000000;fill-opacity:1;fill-rule:nonzero;stroke:none;stroke-width:0.16"
     id="path276" /><path
     d="M 517.52405,50.11557 H 774.59822"
     style="fill:none;stroke:#000000;stroke-width:0.259668;stroke-linecap:square;stroke-linejoin:bevel;stroke-miterlimit:10;stroke-dasharray:none;stroke-opacity:1"
     id="path284" /><path
     d="M 774.59822,3.63534 V 50.11557"
     style="fill:none;stroke:#000000;stroke-width:0.259668;stroke-linecap:square;stroke-linejoin:bevel;stroke-miterlimit:10;stroke-dasharray:none;stroke-opacity:1"
     id="path286" /><path
     d="m 774.59822,50.11557 v 76.08217"
     style="fill:none;stroke:#000000;stroke-width:0.259668;stroke-linecap:square;stroke-linejoin:bevel;stroke-miterlimit:10;stroke-dasharray:none;stroke-opacity:1"
     id="path288" /><path
     d="m 651.03596,100.57822 h -3.19517 V 80.21827 c -0.76922,0.7337 -1.77806,1.46739 -3.02654,2.20107 -1.24848,0.7337 -2.36975,1.28397 -3.3638,1.65082 v -3.08861 c 1.78693,-0.84019 3.34901,-1.8579 4.68624,-3.0531 1.33723,-1.1952 2.28395,-2.35491 2.84015,-3.47912 h 2.05912 z m 9.95685,0 v -3.63886 h 3.63894 v 3.63886 z m 18.53766,0 v -6.23046 h -11.2896 v -2.92885 l 11.87537,-16.86309 h 2.6094 v 16.86309 h 3.51468 v 2.92885 h -3.51468 v 6.23046 z m 0,-9.15931 V 79.68576 l -8.14768,11.73315 z m 10.43613,3.14186 3.07091,-0.284 c 0.26035,1.44371 0.75737,2.49099 1.49109,3.14185 0.73369,0.65085 1.67449,0.97628 2.8224,0.97628 0.9822,0 1.84313,-0.22484 2.58275,-0.67452 0.73963,-0.44968 1.34611,-1.05025 1.81947,-1.80169 0.47336,-0.75144 0.86981,-1.76618 1.18931,-3.04423 0.31952,-1.27804 0.47928,-2.57976 0.47928,-3.90513 0,-0.142 -0.006,-0.35501 -0.0177,-0.63903 -0.63904,1.0177 -1.51179,1.84311 -2.61827,2.47621 -1.10648,0.63311 -2.30466,0.94967 -3.59456,0.94967 -2.15379,0 -3.97621,-0.78103 -5.4673,-2.34309 -1.49107,-1.56205 -2.23661,-3.62112 -2.23661,-6.17722 0,-2.63891 0.77808,-4.76307 2.33424,-6.37246 1.55616,-1.60939 3.50581,-2.41408 5.84895,-2.41408 1.69224,0 3.23953,0.4556 4.64187,1.3668 1.40232,0.9112 2.46738,2.20995 3.19517,3.89625 0.72777,1.68631 1.09168,4.12703 1.09168,7.32213 0,3.32528 -0.36095,5.97309 -1.08282,7.94339 -0.72187,1.97032 -1.79581,3.47026 -3.22179,4.4998 -1.42598,1.02953 -3.09754,1.5443 -5.01464,1.5443 -2.03544,0 -3.69811,-0.56507 -4.98802,-1.69518 -1.2899,-1.13013 -2.06502,-2.7188 -2.32537,-4.76605 z m 13.08245,-11.48464 c 0,-1.83424 -0.48815,-3.28978 -1.46445,-4.36666 -0.97631,-1.07686 -2.15083,-1.61531 -3.52357,-1.61531 -1.42006,0 -2.65672,0.57986 -3.70995,1.73957 -1.05322,1.15971 -1.57983,2.66259 -1.57983,4.50865 0,1.65672 0.49999,3.00282 1.49996,4.03826 0.99996,1.03546 2.23366,1.55318 3.70107,1.55318 1.47925,0 2.69518,-0.51772 3.64782,-1.55318 0.95263,-1.03544 1.42895,-2.47029 1.42895,-4.30451 z m 18.67255,17.50209 h -3.19516 V 80.21827 c -0.7692,0.7337 -1.77805,1.46739 -3.02653,2.20107 -1.24848,0.7337 -2.36975,1.28397 -3.36381,1.65082 v -3.08861 c 1.78693,-0.84019 3.34901,-1.8579 4.68626,-3.0531 1.33723,-1.1952 2.28393,-2.35491 2.84014,-3.47912 h 2.0591 z"
     style="fill:#000000;fill-opacity:1;fill-rule:nonzero;stroke:none;stroke-width:0.16"
     id="path296" /><path
     d="m 809.08271,39.03736 v -26.0224 h 9.81627 c 1.72776,0 3.04723,0.0828 3.95846,0.24851 1.27807,0.21301 2.34903,0.61831 3.21292,1.21592 0.86387,0.5976 1.55912,1.43483 2.08573,2.51171 0.52662,1.07687 0.78991,2.26024 0.78991,3.55012 0,2.21291 -0.70411,4.0856 -2.11235,5.61808 -1.40825,1.53246 -3.95254,2.2987 -7.63291,2.2987 h -6.67435 v 10.57936 z m 3.44368,-13.65022 h 6.7276 c 2.22478,0 3.80462,-0.41418 4.7395,-1.24255 0.93488,-0.82837 1.40232,-1.99398 1.40232,-3.49686 0,-1.08871 -0.27513,-2.02063 -0.82541,-2.79573 -0.55028,-0.7751 -1.27512,-1.28691 -2.17449,-1.53542 -0.57986,-0.15384 -1.65083,-0.23076 -3.21291,-0.23077 h -6.65661 z m 19.62829,5.28968 3.24841,-0.284 c 0.15384,1.30171 0.51181,2.36969 1.07394,3.20398 0.5621,0.83427 1.43486,1.5088 2.61825,2.02357 1.1834,0.51477 2.51472,0.77214 3.99397,0.77214 1.31357,0 2.4733,-0.19525 3.47919,-0.58576 1.00587,-0.39051 1.75436,-0.926 2.24548,-1.60643 0.49111,-0.68045 0.73666,-1.42301 0.73666,-2.22771 0,-0.81653 -0.23667,-1.52951 -0.71003,-2.13895 -0.47336,-0.60944 -1.2544,-1.12124 -2.34312,-1.53542 -0.69821,-0.27218 -2.24255,-0.69523 -4.63299,-1.26917 -2.39047,-0.57393 -4.06498,-1.11533 -5.02352,-1.62419 -1.24256,-0.65085 -2.16858,-1.4585 -2.77802,-2.42294 -0.60946,-0.96447 -0.91418,-2.04429 -0.91418,-3.23949 0,-1.31355 0.37277,-2.5413 1.11831,-3.68327 0.74553,-1.14195 1.83425,-2.00876 3.26617,-2.60046 1.43191,-0.59168 3.02357,-0.88752 4.775,-0.88752 1.92894,0 3.63006,0.31062 5.1034,0.9319 1.47332,0.62127 2.60642,1.53543 3.3993,2.74247 0.79288,1.20704 1.2189,2.57384 1.27806,4.1004 l -3.30166,0.24849 c -0.17752,-1.64488 -0.77809,-2.88742 -1.80173,-3.72761 -1.02363,-0.84021 -2.53542,-1.26031 -4.53536,-1.26031 -2.08278,0 -3.60048,0.38165 -4.55312,1.14492 -0.95262,0.76328 -1.42894,1.68336 -1.42894,2.76022 0,0.93486 0.33726,1.70406 1.01181,2.30758 0.66268,0.60352 2.3934,1.22184 5.19214,1.85495 2.79872,0.6331 4.71878,1.18632 5.76018,1.65968 1.51475,0.69819 2.63305,1.58277 3.35493,2.65371 0.72187,1.07096 1.08281,2.30462 1.08281,3.70101 0,1.38454 -0.39645,2.68921 -1.18933,3.914 -0.79286,1.2248 -1.93188,2.17741 -3.41705,2.85785 -1.48515,0.68044 -3.15671,1.02066 -5.01464,1.02066 -2.35495,0 -4.32828,-0.34317 -5.91994,-1.02954 -1.59166,-0.68635 -2.84014,-1.71884 -3.74544,-3.09747 -0.90529,-1.37864 -1.38161,-2.93773 -1.42894,-4.67729 z m 37.36145,8.36054 v -2.7691 c -1.4674,2.13008 -3.46144,3.19512 -5.98206,3.19512 -1.1124,0 -2.15083,-0.21301 -3.1153,-0.63903 -0.96446,-0.42601 -1.68041,-0.96149 -2.14785,-1.60643 -0.46744,-0.64494 -0.79584,-1.43483 -0.98519,-2.36971 -0.13017,-0.62719 -0.19526,-1.62122 -0.19526,-2.9821 v -11.6799 h 3.19518 v 10.4551 c 0,1.66856 0.0651,2.79277 0.19525,3.37263 0.20119,0.84019 0.6272,1.49992 1.27808,1.9792 0.65087,0.47926 1.45557,0.71889 2.41413,0.71889 0.95854,0 1.85792,-0.24555 2.69813,-0.73665 0.84021,-0.49111 1.43486,-1.15972 1.78398,-2.00583 0.34909,-0.84611 0.52365,-2.07385 0.52365,-3.68325 V 20.18621 h 3.19517 v 18.85115 z m 7.8445,0 V 20.18621 h 2.8579 v 2.64485 c 0.5917,-0.92304 1.37866,-1.6656 2.36088,-2.22772 0.98221,-0.56209 2.10052,-0.84315 3.35492,-0.84315 1.39641,0 2.54134,0.28994 3.43481,0.86978 0.89346,0.57985 1.52362,1.39046 1.89048,2.43184 1.49107,-2.20107 3.43184,-3.30162 5.82231,-3.30162 1.86976,0 3.30758,0.51773 4.31347,1.55319 1.00589,1.03545 1.50883,2.63004 1.50883,4.78379 v 12.94019 h -3.17742 V 27.16219 c 0,-1.27803 -0.10356,-2.19811 -0.31064,-2.76021 -0.20709,-0.56211 -0.58282,-1.01475 -1.12719,-1.35793 -0.54437,-0.34317 -1.18339,-0.51477 -1.9171,-0.51477 -1.32539,0 -2.42595,0.44082 -3.30167,1.32243 -0.87571,0.88162 -1.31356,2.29279 -1.31356,4.23352 v 10.95213 h -3.19517 V 26.78944 c 0,-1.42005 -0.26035,-2.48509 -0.78104,-3.19512 -0.52071,-0.71002 -1.37275,-1.06504 -2.55615,-1.06504 -0.89937,0 -1.73072,0.23669 -2.494,0.71003 -0.76329,0.47335 -1.31654,1.16563 -1.65971,2.07682 -0.3432,0.9112 -0.51478,2.22475 -0.51478,3.94064 v 9.78059 z m 27.31798,7.2245 v -2.30757 h 21.17687 v 2.30757 z m 35.37621,-7.2245 v -2.37858 c -1.19525,1.86973 -2.95259,2.8046 -5.27203,2.8046 -1.50291,0 -2.88453,-0.41418 -4.14485,-1.24255 -1.26032,-0.82837 -2.23662,-1.98512 -2.92889,-3.47024 -0.69229,-1.48513 -1.03844,-3.19216 -1.03844,-5.12105 0,-1.88157 0.31359,-3.5886 0.9408,-5.12106 0.62719,-1.53246 1.56799,-2.70696 2.8224,-3.52349 1.25439,-0.81653 2.65671,-1.2248 4.20696,-1.2248 1.13607,0 2.14788,0.23963 3.03543,0.7189 0.88753,0.47926 1.60941,1.1035 2.1656,1.87269 v -9.33682 h 3.17742 v 26.0224 z m -10.10029,-9.40782 c 0,2.41408 0.50885,4.21872 1.52658,5.41393 1.01771,1.1952 2.21886,1.79282 3.60344,1.79282 1.3964,0 2.58277,-0.57098 3.55907,-1.71295 0.97631,-1.14195 1.46445,-2.88446 1.46445,-5.22755 0,-2.57976 -0.49702,-4.47315 -1.49107,-5.68019 -0.99407,-1.20704 -2.21888,-1.81056 -3.67445,-1.81056 -1.42008,0 -2.60645,0.57984 -3.55907,1.73955 -0.95264,1.15971 -1.42895,2.98802 -1.42895,5.48495 z m 18.3353,9.40782 v -26.0224 h 9.76302 c 1.9881,0 3.58271,0.2633 4.78388,0.7899 1.20113,0.52661 2.14193,1.33722 2.8224,2.43183 0.68043,1.09462 1.02067,2.23953 1.02067,3.43475 0,1.11237 -0.30178,2.15966 -0.9053,3.14186 -0.60353,0.9822 -1.51475,1.77507 -2.73363,2.37857 1.5739,0.46152 2.78392,1.24847 3.63006,2.36083 0.84612,1.11239 1.26919,2.42592 1.26919,3.94064 0,1.21888 -0.25739,2.35196 -0.77216,3.39925 -0.51479,1.04728 -1.15087,1.85495 -1.90823,2.42296 -0.75739,0.56802 -1.70707,0.99699 -2.84902,1.28691 -1.14198,0.28994 -2.54136,0.4349 -4.1981,0.4349 z m 3.44368,-15.08802 h 5.62706 c 1.52656,0 2.62121,-0.10059 3.28392,-0.30176 0.87571,-0.26035 1.53545,-0.69228 1.97923,-1.2958 0.44377,-0.60352 0.66566,-1.36088 0.66566,-2.27208 0,-0.86386 -0.2071,-1.62418 -0.62129,-2.28095 -0.4142,-0.65677 -1.00589,-1.10646 -1.77509,-1.34905 -0.76922,-0.24258 -2.08869,-0.36388 -3.95847,-0.36389 h -5.20102 z m 0,12.01716 h 6.4791 c 1.11239,0 1.89343,-0.0414 2.34312,-0.12426 0.79287,-0.142 1.45557,-0.37867 1.9881,-0.71002 0.53253,-0.33134 0.97038,-0.81356 1.31357,-1.44667 0.34318,-0.6331 0.51478,-1.36384 0.51478,-2.19221 0,-0.97036 -0.24851,-1.81352 -0.74553,-2.52945 -0.49703,-0.71595 -1.18637,-1.21888 -2.06799,-1.5088 -0.88165,-0.28994 -2.15083,-0.4349 -3.80758,-0.4349 h -6.01757 z m 20.53358,3.07086 V 20.18621 h 2.85791 v 2.64485 c 0.59169,-0.92304 1.37864,-1.6656 2.36086,-2.22772 0.98223,-0.56209 2.10053,-0.84315 3.35493,-0.84315 1.3964,0 2.54134,0.28994 3.43481,0.86978 0.89346,0.57985 1.52362,1.39046 1.89047,2.43184 1.49107,-2.20107 3.43184,-3.30162 5.82232,-3.30162 1.86974,0 3.30757,0.51773 4.31347,1.55319 1.00587,1.03545 1.50883,2.63004 1.50883,4.78379 v 12.94019 h -3.17742 V 27.16219 c 0,-1.27803 -0.10355,-2.19811 -0.31064,-2.76021 -0.2071,-0.56211 -0.58283,-1.01475 -1.12718,-1.35793 -0.54437,-0.34317 -1.1834,-0.51477 -1.91711,-0.51477 -1.32541,0 -2.42597,0.44082 -3.30166,1.32243 -0.87573,0.88162 -1.31357,2.29279 -1.31357,4.23352 v 10.95213 h -3.19518 V 26.78944 c 0,-1.42005 -0.26034,-2.48509 -0.78104,-3.19512 -0.52069,-0.71002 -1.37274,-1.06504 -2.55613,-1.06504 -0.89939,0 -1.73072,0.23669 -2.494,0.71003 -0.7633,0.47335 -1.31655,1.16563 -1.65973,2.07682 -0.34318,0.9112 -0.51478,2.22475 -0.51477,3.94064 v 9.78059 z"
     style="fill:#000000;fill-opacity:1;fill-rule:nonzero;stroke:none;stroke-width:0.16"
     id="path308" /><path
     d="M 774.59822,50.11557 H 1031.6724"
     style="fill:none;stroke:#000000;stroke-width:0.259668;stroke-linecap:square;stroke-linejoin:bevel;stroke-miterlimit:10;stroke-dasharray:none;stroke-opacity:1"
     id="path316" /><path
     d="m 896.09274,93.70874 3.19517,-0.42602 c 0.36685,1.81058 0.99109,3.11523 1.87272,3.91402 0.88163,0.79878 1.95557,1.19816 3.22179,1.19816 1.50291,0 2.77211,-0.52068 3.80759,-1.56205 1.03547,-1.04136 1.5532,-2.33125 1.5532,-3.86963 0,-1.46738 -0.47927,-2.6774 -1.43783,-3.63 -0.95854,-0.95261 -2.17744,-1.42893 -3.65669,-1.42893 -0.60353,0 -1.35499,0.11833 -2.25436,0.35501 l 0.35502,-2.8046 c 0.21301,0.0237 0.38459,0.0355 0.51477,0.0355 1.36091,0 2.58573,-0.35501 3.67445,-1.06504 1.08872,-0.71002 1.63308,-1.80464 1.63308,-3.28386 0,-1.17155 -0.39644,-2.1419 -1.18931,-2.9111 -0.79288,-0.7692 -1.81651,-1.15379 -3.07091,-1.15379 -1.24258,0 -2.27805,0.39051 -3.10642,1.17153 -0.82838,0.78104 -1.36091,1.95258 -1.59758,3.51463 l -3.19517,-0.56802 c 0.39051,-2.1419 1.27807,-3.80158 2.66264,-4.97906 1.38458,-1.17745 3.10642,-1.76617 5.16552,-1.76617 1.42008,0 2.72773,0.30472 3.92296,0.91416 1.19523,0.60944 2.10939,1.44075 2.74251,2.49395 0.63312,1.05322 0.94968,2.1715 0.94968,3.35486 0,1.12421 -0.30176,2.14783 -0.90529,3.07087 -0.60354,0.92302 -1.497,1.65672 -2.6804,2.20107 1.53841,0.35501 2.73365,1.09166 3.58569,2.20995 0.85205,1.11829 1.27807,2.51763 1.27807,4.19802 0,2.27208 -0.82837,4.19803 -2.48514,5.77782 -1.65675,1.57981 -3.75136,2.36971 -6.28382,2.36971 -2.28395,0 -4.18035,-0.68043 -5.68919,-2.04131 -1.50881,-1.36088 -2.36974,-3.12411 -2.58275,-5.28969 z m 32.21653,6.86948 H 925.1141 V 80.21827 c -0.7692,0.7337 -1.77805,1.46739 -3.02653,2.20107 -1.24849,0.7337 -2.36976,1.28397 -3.3638,1.65082 v -3.08861 c 1.78692,-0.84019 3.349,-1.8579 4.68625,-3.0531 1.33723,-1.1952 2.28395,-2.35491 2.84015,-3.47912 h 2.0591 z m 9.95686,0 v -3.63886 h 3.63895 v 3.63886 z m 8.50839,-22.61427 v -3.07086 h 16.84563 v 2.48509 c -1.65675,1.76323 -3.29872,4.1063 -4.92589,7.02924 -1.62717,2.92293 -2.88453,5.92871 -3.77206,9.01732 -0.63904,2.1774 -1.04731,4.5619 -1.22482,7.15348 h -3.28393 c 0.0355,-2.04723 0.43785,-4.52048 1.20707,-7.41974 0.7692,-2.89928 1.87272,-5.69499 3.31054,-8.38717 1.43783,-2.69217 2.96738,-4.96129 4.58863,-6.80736 z m 20.00389,15.74479 3.19516,-0.42602 c 0.36683,1.81058 0.99109,3.11523 1.87272,3.91402 0.88163,0.79878 1.95556,1.19816 3.22179,1.19816 1.50292,0 2.77212,-0.52068 3.80759,-1.56205 1.03546,-1.04136 1.5532,-2.33125 1.5532,-3.86963 0,-1.46738 -0.47928,-2.6774 -1.43782,-3.63 -0.95856,-0.95261 -2.17746,-1.42893 -3.65669,-1.42893 -0.60354,0 -1.35499,0.11833 -2.25437,0.35501 l 0.35501,-2.8046 c 0.21301,0.0237 0.38461,0.0355 0.51478,0.0355 1.3609,0 2.58571,-0.35501 3.67445,-1.06504 1.08872,-0.71002 1.63307,-1.80464 1.63307,-3.28386 0,-1.17155 -0.39643,-2.1419 -1.18931,-2.9111 -0.79288,-0.7692 -1.81651,-1.15379 -3.07091,-1.15379 -1.24256,0 -2.27803,0.39051 -3.10642,1.17153 -0.82837,0.78104 -1.36089,1.95258 -1.59758,3.51463 l -3.19517,-0.56802 c 0.39053,-2.1419 1.27808,-3.80158 2.66264,-4.97906 1.38457,-1.17745 3.10641,-1.76617 5.16553,-1.76617 1.42007,0 2.72772,0.30472 3.92295,0.91416 1.19523,0.60944 2.10941,1.44075 2.74253,2.49395 0.63312,1.05322 0.94968,2.1715 0.94968,3.35486 0,1.12421 -0.30178,2.14783 -0.9053,3.07087 -0.60354,0.92302 -1.49701,1.65672 -2.6804,2.20107 1.53842,0.35501 2.73365,1.09166 3.5857,2.20995 0.85203,1.11829 1.27806,2.51763 1.27806,4.19802 0,2.27208 -0.82838,4.19803 -2.48514,5.77782 -1.65675,1.57981 -3.75135,2.36971 -6.28382,2.36971 -2.28397,0 -4.18035,-0.68043 -5.68918,-2.04131 -1.50883,-1.36088 -2.36975,-3.12411 -2.58275,-5.28969 z"
     style="fill:#000000;fill-opacity:1;fill-rule:nonzero;stroke:none;stroke-width:0.16"
     id="path324" /></svg>
