<?xml version="1.0" encoding="UTF-8" standalone="no"?>
<!-- Created with Inkscape (http://www.inkscape.org/) -->

<svg
   version="1.1"
   id="svg2"
   xml:space="preserve"
   width="174.70279"
   height="74.199814"
   viewBox="0 0 174.70278 74.199814"
   sodipodi:docname="afd_homework_1_schematic_2.svg"
   inkscape:version="1.1 (c4e8f9ed74, 2021-05-24)"
   xmlns:inkscape="http://www.inkscape.org/namespaces/inkscape"
   xmlns:sodipodi="http://sodipodi.sourceforge.net/DTD/sodipodi-0.dtd"
   xmlns="http://www.w3.org/2000/svg"
   xmlns:svg="http://www.w3.org/2000/svg"><sodipodi:namedview
     id="namedview699"
     pagecolor="#ffffff"
     bordercolor="#666666"
     borderopacity="1.0"
     inkscape:pageshadow="2"
     inkscape:pageopacity="0.0"
     inkscape:pagecheckerboard="0"
     showgrid="false"
     inkscape:snap-object-midpoints="true"
     inkscape:zoom="0.87406167"
     inkscape:cx="38.326815"
     inkscape:cy="101.25144"
     inkscape:window-width="1366"
     inkscape:window-height="740"
     inkscape:window-x="0"
     inkscape:window-y="0"
     inkscape:window-maximized="1"
     inkscape:current-layer="svg2" /><defs
     id="defs6" /><path
     d="m 43.109125,16.186026 v -7.65311 h 1.01286 v 3.14269 h 3.97838 v -3.14269 h 1.01288 v 7.65311 h -1.01288 v -3.6073 h -3.97838 v 3.6073 z m 6.84678,0 2.93942,-7.65311 h 1.09119 l 3.13259,7.65311 h -1.15384 l -0.89278,-2.31786 h -3.20047 l -0.84057,2.31786 z m 2.20848,-3.14269 h 2.59483 l -0.79881,-2.11947 c -0.24365,-0.64384 -0.42464,-1.17285 -0.54298,-1.58699 -0.0975,0.4907 -0.23494,0.97795 -0.41246,1.46169 z m 5.77838,3.14269 v -7.65311 h 3.39364 c 0.6822,0 1.20083,0.0687 1.55585,0.20621 0.35503,0.13747 0.63869,0.38023 0.85101,0.72824 0.21232,0.34803 0.31848,0.73261 0.31848,1.15371 0,0.54293 -0.17576,1.00058 -0.52731,1.37296 -0.35155,0.3724 -0.89453,0.60906 -1.62895,0.70999 0.268,0.12877 0.47164,0.25579 0.61085,0.38109 0.29586,0.27145 0.57605,0.61078 0.84058,1.01796 l 1.33136,2.08295 h -1.27392 l -1.01288,-1.59223 c -0.29586,-0.45939 -0.53949,-0.81089 -0.73093,-1.05451 -0.19144,-0.24363 -0.36286,-0.41416 -0.51427,-0.5116 -0.15141,-0.0975 -0.30543,-0.16531 -0.46205,-0.2036 -0.11486,-0.0244 -0.30282,-0.0365 -0.56387,-0.0365 h -1.17472 v 3.39848 z m 1.01287,-4.27551 h 2.17715 c 0.46293,0 0.82491,-0.0478 1.08597,-0.14356 0.26104,-0.0957 0.45944,-0.24884 0.59518,-0.4594 0.13575,-0.21056 0.20362,-0.43937 0.20362,-0.68648 0,-0.36195 -0.13139,-0.6595 -0.39418,-0.89268 -0.2628,-0.23317 -0.67785,-0.34976 -1.24521,-0.34976 h -2.42253 z m 6.65883,4.27551 v -7.65311 h 1.52453 l 1.81168,5.41877 c 0.16707,0.50464 0.28889,0.88226 0.36547,1.13283 0.087,-0.27841 0.22277,-0.68736 0.40725,-1.2268 l 1.83256,-5.3248 h 1.36267 v 7.65311 h -0.97632 v -6.40543 l -2.22414,6.40543 h -0.91367 l -2.21369,-6.51506 v 6.51506 z m 8.62486,-3.72736 c 0,-1.27031 0.34111,-2.26479 1.02332,-2.98346 0.6822,-0.71867 1.56281,-1.07801 2.6418,-1.07801 0.70658,0 1.34354,0.1688 1.91088,0.50638 0.56735,0.33758 0.99983,0.80829 1.29743,1.41211 0.2976,0.60383 0.44638,1.28856 0.44638,2.05423 0,0.77609 -0.15662,1.47041 -0.46989,2.08294 -0.31324,0.61251 -0.75704,1.07626 -1.33134,1.39123 -0.5743,0.31496 -1.19387,0.47245 -1.85867,0.47245 -0.7205,0 -1.36442,-0.17402 -1.93176,-0.52205 -0.56735,-0.34801 -0.99722,-0.82307 -1.28959,-1.42517 -0.29236,-0.60208 -0.43856,-1.23897 -0.43856,-1.91065 z m 1.0442,0.0157 c 0,0.92225 0.248,1.64877 0.74398,2.1795 0.496,0.53074 1.11816,0.79611 1.86651,0.79611 0.76226,0 1.38965,-0.26798 1.88216,-0.80393 0.49251,-0.53597 0.73877,-1.2964 0.73877,-2.28131 0,-0.62298 -0.1053,-1.16677 -0.31587,-1.63138 -0.21058,-0.46461 -0.51861,-0.82482 -0.92411,-1.08062 -0.40549,-0.2558 -0.8606,-0.3837 -1.36528,-0.3837 -0.71703,0 -1.33397,0.24622 -1.85085,0.73869 -0.51687,0.49245 -0.77531,1.31467 -0.77531,2.46664 z m 7.56688,3.71169 v -7.6531 h 1.03897 l 4.02015,6.00867 v -6.00867 h 0.9711 v 7.6531 h -1.03898 l -4.02014,-6.0139 v 6.0139 z m 7.90142,0 v -7.6531 h 1.01288 v 7.6531 z m 8.25605,-2.68328 1.012885,0.2558 c -0.212345,0.83179 -0.594345,1.46606 -1.146025,1.90283 -0.55168,0.43677 -1.22606,0.65517 -2.02313,0.65517 -0.82492,0 -1.49581,-0.16794 -2.01269,-0.50378 -0.51687,-0.33584 -0.91019,-0.82221 -1.17994,-1.4591 -0.26974,-0.63688 -0.40462,-1.32076 -0.40462,-2.0516 0,-0.797 0.15227,-1.49218 0.45683,-2.08556 0.30456,-0.59339 0.7379,-1.04408 1.30003,-1.35208 0.56211,-0.308 1.1808,-0.46201 1.85605,-0.46201 0.76574,0 1.40968,0.19489 1.93178,0.58469 0.52209,0.38979 0.88582,0.93793 1.09118,1.64443 l -0.99722,0.23491 c -0.1775,-0.55685 -0.43508,-0.96229 -0.7727,-1.21635 -0.33763,-0.25407 -0.76226,-0.38109 -1.27392,-0.38109 -0.58822,0 -1.07987,0.14094 -1.47493,0.42285 -0.39505,0.2819 -0.67264,0.66038 -0.83273,1.13544 -0.16012,0.47505 -0.24018,0.96489 -0.24018,1.46953 0,0.65082 0.0949,1.21896 0.28454,1.70447 0.1897,0.48549 0.48469,0.8483 0.88496,1.08845 0.40028,0.24014 0.83362,0.3602 1.30004,0.3602 0.56734,0 1.04766,-0.16356 1.44097,-0.49072 0.39331,-0.32713 0.65959,-0.81264 0.79882,-1.45648 z m 5.182975,2.68328 v -7.6531 h 2.87154 c 0.58475,0 1.05376,0.0774 1.40706,0.23232 0.35328,0.15486 0.63,0.39326 0.83014,0.71518 0.20013,0.32192 0.30021,0.65864 0.30021,1.01015 0,0.32715 -0.0888,0.63515 -0.26627,0.92401 -0.17752,0.28887 -0.44554,0.52204 -0.80404,0.69954 0.46292,0.13573 0.81882,0.36717 1.06768,0.6943 0.24887,0.32716 0.37332,0.71346 0.37332,1.15893 0,0.35847 -0.0757,0.6917 -0.22712,0.99971 -0.15141,0.308 -0.3385,0.54552 -0.56125,0.71258 -0.22277,0.16706 -0.5021,0.29322 -0.83797,0.37848 -0.33589,0.0853 -0.74749,0.1279 -1.23477,0.1279 z m 1.01287,-4.43734 h 1.65505 c 0.44901,0 0.77096,-0.0296 0.96589,-0.0887 0.25755,-0.0766 0.45162,-0.2036 0.58213,-0.38108 0.13053,-0.17751 0.19579,-0.40024 0.19579,-0.66821 0,-0.25407 -0.0609,-0.47768 -0.18273,-0.67083 -0.12183,-0.19316 -0.29586,-0.3254 -0.5221,-0.39676 -0.22624,-0.0713 -0.61434,-0.107 -1.16427,-0.107 h -1.52976 z m 0,3.53421 h 1.90566 c 0.32719,0 0.5569,-0.0122 0.68917,-0.0365 0.2332,-0.0418 0.42813,-0.11136 0.58475,-0.20881 0.15663,-0.0974 0.28541,-0.23927 0.38635,-0.42546 0.10093,-0.18619 0.15141,-0.4011 0.15141,-0.64472 0,-0.28537 -0.0731,-0.53334 -0.21928,-0.7439 -0.14619,-0.21056 -0.34894,-0.35847 -0.60824,-0.44373 -0.25931,-0.0853 -0.63262,-0.1279 -1.1199,-0.1279 h -1.76992 z m 5.31893,0.90313 2.93942,-7.6531 h 1.09118 l 3.1326,7.6531 h -1.15384 l -0.8928,-2.31785 h -3.20045 l -0.84059,2.31785 z m 2.20848,-3.14268 h 2.59483 l -0.79882,-2.11948 c -0.24365,-0.64384 -0.42464,-1.17284 -0.54297,-1.58699 -0.0975,0.49071 -0.23495,0.97795 -0.41247,1.4617 z m 5.72094,3.14268 v -7.6531 h 1.01286 v 6.74997 h 3.76956 v 0.90313 z m 5.14226,0 2.9394,-7.6531 h 1.09119 l 3.13259,7.6531 h -1.15384 l -0.89278,-2.31785 h -3.20047 l -0.84057,2.31785 z m 2.20846,-3.14268 h 2.59483 l -0.79881,-2.11948 c -0.24365,-0.64384 -0.42464,-1.17284 -0.54298,-1.58699 -0.0975,0.49071 -0.23494,0.97795 -0.41246,1.4617 z m 5.75227,3.14268 v -7.6531 h 1.03898 l 4.02016,6.00867 v -6.00867 h 0.9711 v 7.6531 h -1.03897 l -4.02016,-6.0139 v 6.0139 z m 13.19029,-2.68328 1.01288,0.2558 c -0.21234,0.83179 -0.59434,1.46606 -1.14602,1.90283 -0.55168,0.43677 -1.22606,0.65517 -2.02312,0.65517 -0.82492,0 -1.49582,-0.16794 -2.01268,-0.50378 -0.5169,-0.33584 -0.91021,-0.82221 -1.17996,-1.4591 -0.26974,-0.63688 -0.40462,-1.32076 -0.40462,-2.0516 0,-0.797 0.15227,-1.49218 0.45683,-2.08556 0.30456,-0.59339 0.73791,-1.04408 1.30003,-1.35208 0.56213,-0.308 1.1808,-0.46201 1.85607,-0.46201 0.76573,0 1.40966,0.19489 1.93176,0.58469 0.52209,0.38979 0.88582,0.93793 1.09118,1.64443 l -0.99721,0.23491 c -0.17751,-0.55685 -0.43508,-0.96229 -0.77271,-1.21635 -0.33761,-0.25407 -0.76225,-0.38109 -1.27392,-0.38109 -0.58822,0 -1.07987,0.14094 -1.47493,0.42285 -0.39505,0.2819 -0.67264,0.66038 -0.83273,1.13544 -0.16011,0.47505 -0.24018,0.96489 -0.24018,1.46953 0,0.65082 0.0949,1.21896 0.28455,1.70447 0.18969,0.48549 0.48468,0.8483 0.88496,1.08845 0.40027,0.24014 0.83361,0.3602 1.30003,0.3602 0.56733,0 1.04766,-0.16356 1.44099,-0.49072 0.3933,-0.32713 0.65957,-0.81264 0.7988,-1.45648 z m 2.27845,2.68328 v -7.6531 h 5.53424 v 0.90314 h -4.52138 v 2.34395 h 4.23421 v 0.8979 h -4.23421 v 2.60498 h 4.69888 v 0.90313 z"
     style="fill:#000000;fill-opacity:1;fill-rule:nonzero;stroke:none;stroke-width:0.16"
     id="path378" /><path
     d="M 29.835695,0.51735502 H 171.94343 V 23.279616 H 29.835695 Z"
     style="fill:none;stroke:#0000cd;stroke-width:1.03471;stroke-linecap:butt;stroke-linejoin:bevel;stroke-miterlimit:10;stroke-dasharray:none;stroke-opacity:1"
     id="path386" /><path
     d="M 0.51735502,0.51735502 H 29.835695 V 23.279616 H 0.51735502 Z"
     style="fill:none;stroke:#0000cd;stroke-width:1.03471;stroke-linecap:butt;stroke-linejoin:bevel;stroke-miterlimit:10;stroke-dasharray:none;stroke-opacity:1"
     id="path388" /><path
     d="m 17.073595,9.829196 -2.41445,1.37953 -2.06953,-1.37953 v -5.17324"
     style="fill:none;stroke:#0000cd;stroke-width:0.344902;stroke-linecap:butt;stroke-linejoin:bevel;stroke-miterlimit:10;stroke-dasharray:none;stroke-opacity:1"
     id="path390" /><path
     d="m 7.760715,6.035486 2.06953,-1.37953 2.75937,0.68976"
     style="fill:none;stroke:#0000cd;stroke-width:0.344902;stroke-linecap:butt;stroke-linejoin:bevel;stroke-miterlimit:10;stroke-dasharray:none;stroke-opacity:1"
     id="path392" /><path
     d="m 5.346265,9.829196 0.68984,-1.37954 h 3.10429"
     style="fill:none;stroke:#0000cd;stroke-width:0.344902;stroke-linecap:butt;stroke-linejoin:bevel;stroke-miterlimit:10;stroke-dasharray:none;stroke-opacity:1"
     id="path394" /><path
     d="m 12.589615,17.761496 0.68984,2.75906"
     style="fill:none;stroke:#0000cd;stroke-width:0.344902;stroke-linecap:butt;stroke-linejoin:bevel;stroke-miterlimit:10;stroke-dasharray:none;stroke-opacity:1"
     id="path396" /><path
     d="m 12.589615,13.278016 0.68984,2.0693"
     style="fill:none;stroke:#0000cd;stroke-width:0.344902;stroke-linecap:butt;stroke-linejoin:bevel;stroke-miterlimit:10;stroke-dasharray:none;stroke-opacity:1"
     id="path398" /><path
     d="m 10.520085,12.588256 2.06953,0.68976 v 4.48348 l -2.06953,-1.03465"
     style="fill:none;stroke:#0000cd;stroke-width:0.344902;stroke-linecap:butt;stroke-linejoin:bevel;stroke-miterlimit:10;stroke-dasharray:none;stroke-opacity:1"
     id="path400" /><path
     d="m 7.760715,13.967786 -1.72461,-1.37953 v 4.13859 l 1.72461,1.72441"
     style="fill:none;stroke:#0000cd;stroke-width:0.344902;stroke-linecap:butt;stroke-linejoin:bevel;stroke-miterlimit:10;stroke-dasharray:none;stroke-opacity:1"
     id="path402" /><path
     d="m 10.520085,12.588256 -2.75937,1.37953 v 4.48347 l 2.75937,-1.72441 z"
     style="fill:none;stroke:#0000cd;stroke-width:0.344902;stroke-linecap:butt;stroke-linejoin:bevel;stroke-miterlimit:10;stroke-dasharray:none;stroke-opacity:1"
     id="path404" /><path
     d="m 14.659145,5.345716 -2.06953,-0.68976 v -1.37954 l 2.06953,-0.689761 2.41445,0.689761 v 1.37954 z"
     style="fill:none;stroke:#0000cd;stroke-width:0.344902;stroke-linecap:butt;stroke-linejoin:bevel;stroke-miterlimit:10;stroke-dasharray:none;stroke-opacity:1"
     id="path406" /><path
     d="m 21.902505,6.035486 -2.06953,-1.37953 -2.75938,0.68976"
     style="fill:none;stroke:#0000cd;stroke-width:0.344902;stroke-linecap:butt;stroke-linejoin:bevel;stroke-miterlimit:10;stroke-dasharray:none;stroke-opacity:1"
     id="path408" /><path
     d="m 20.522815,8.449656 -1.37969,-1.72441 2.75938,-0.68976 v 2.41417"
     style="fill:none;stroke:#0000cd;stroke-width:0.344902;stroke-linecap:butt;stroke-linejoin:bevel;stroke-miterlimit:10;stroke-dasharray:none;stroke-opacity:1"
     id="path410" /><path
     d="m 23.972035,9.829196 -0.68985,-1.37954 h -2.75937"
     style="fill:none;stroke:#0000cd;stroke-width:0.344902;stroke-linecap:butt;stroke-linejoin:bevel;stroke-miterlimit:10;stroke-dasharray:none;stroke-opacity:1"
     id="path412" /><path
     d="m 23.972035,9.829196 v 4.13859 h -0.68985"
     style="fill:none;stroke:#0000cd;stroke-width:0.344902;stroke-linecap:butt;stroke-linejoin:bevel;stroke-miterlimit:10;stroke-dasharray:none;stroke-opacity:1"
     id="path414" /><path
     d="m 20.522815,11.208726 0.68984,-1.37953"
     style="fill:none;stroke:#0000cd;stroke-width:0.344902;stroke-linecap:butt;stroke-linejoin:bevel;stroke-miterlimit:10;stroke-dasharray:none;stroke-opacity:1"
     id="path416" /><path
     d="m 17.073595,17.761496 -0.68984,2.75906"
     style="fill:none;stroke:#0000cd;stroke-width:0.344902;stroke-linecap:butt;stroke-linejoin:bevel;stroke-miterlimit:10;stroke-dasharray:none;stroke-opacity:1"
     id="path418" /><path
     d="m 17.073595,13.278016 -0.68984,2.0693"
     style="fill:none;stroke:#0000cd;stroke-width:0.344902;stroke-linecap:butt;stroke-linejoin:bevel;stroke-miterlimit:10;stroke-dasharray:none;stroke-opacity:1"
     id="path420" /><path
     d="m 19.143125,12.588256 -2.06953,0.68976 v 4.48348 l 2.06953,-1.03465"
     style="fill:none;stroke:#0000cd;stroke-width:0.344902;stroke-linecap:butt;stroke-linejoin:bevel;stroke-miterlimit:10;stroke-dasharray:none;stroke-opacity:1"
     id="path422" /><path
     d="m 23.282185,12.588256 -2.75937,-1.37953"
     style="fill:none;stroke:#0000cd;stroke-width:0.344902;stroke-linecap:butt;stroke-linejoin:bevel;stroke-miterlimit:10;stroke-dasharray:none;stroke-opacity:1"
     id="path424" /><path
     d="m 21.902505,13.967786 1.37968,-1.37953 v 4.13859 l -1.37968,1.72441"
     style="fill:none;stroke:#0000cd;stroke-width:0.344902;stroke-linecap:butt;stroke-linejoin:bevel;stroke-miterlimit:10;stroke-dasharray:none;stroke-opacity:1"
     id="path426" /><path
     d="m 19.143125,12.588256 2.75938,1.37953 v 4.48347 l -2.75938,-1.72441 z"
     style="fill:none;stroke:#0000cd;stroke-width:0.344902;stroke-linecap:butt;stroke-linejoin:bevel;stroke-miterlimit:10;stroke-dasharray:none;stroke-opacity:1"
     id="path428" /><path
     d="m 13.279455,20.520556 h 1.37969 m -1.37969,-5.17324 v 5.17324 m 0,-5.17324 h 1.37969 m 2.41445,-10.69136 v 5.17324 m 4.13906,0 h 2.75938 m -9.31289,10.69136 h 1.72461 m 0,-5.17324 v 5.17324 m -1.72461,-5.17324 h 1.72461"
     style="fill:none;stroke:#0000cd;stroke-width:0.344902;stroke-linecap:butt;stroke-linejoin:bevel;stroke-miterlimit:10;stroke-dasharray:none;stroke-opacity:1"
     id="path430" /><path
     d="m 3.276735,23.279616 h 32.42263 v 3.10395 H 3.276735 Z"
     style="fill:#0000cd;fill-opacity:1;fill-rule:nonzero;stroke:none;stroke-width:0.344902"
     id="path436" /><path
     d="m 35.699365,23.279606 v 3.10395 H 174.70279 V 3.276406 h -2.75936 v 20.0032 z"
     style="fill:#0000cd;fill-opacity:1;fill-rule:nonzero;stroke:none;stroke-width:0.16"
     id="path438" /><path
     d="m 14.659145,5.345706 2.41445,-0.68976 v 5.17325 l -2.41445,1.37952 z"
     style="fill:#0000cd;fill-opacity:1;fill-rule:nonzero;stroke:none;stroke-width:0.16"
     id="path440" /><path
     d="m 12.589615,4.655956 2.06953,0.68976 v 5.86301 l -2.06953,-1.37953 z"
     style="fill:none;stroke:#0000cd;stroke-width:0.344902;stroke-linecap:butt;stroke-linejoin:bevel;stroke-miterlimit:10;stroke-dasharray:none;stroke-opacity:1"
     id="path444" /><path
     d="m 12.589615,4.655956 2.06953,0.68976"
     style="fill:none;stroke:#0000cd;stroke-width:0.344902;stroke-linecap:butt;stroke-linejoin:bevel;stroke-miterlimit:10;stroke-dasharray:none;stroke-opacity:1"
     id="path446" /><path
     d="m 17.073595,13.278006 -0.68984,2.0693 v 5.17325 l 0.68984,-2.75908 z"
     style="fill:#0000cd;fill-opacity:1;fill-rule:nonzero;stroke:none;stroke-width:0.16"
     id="path450" /><path
     d="m 10.520085,12.588246 -2.75938,1.37954 v 4.48347 l 2.75938,-1.72442 z"
     style="fill:#0000cd;fill-opacity:1;fill-rule:nonzero;stroke:none;stroke-width:0.16"
     id="path452" /><path
     d="m 19.143125,12.588246 -2.06953,0.68976 v 4.48347 l 2.06953,-1.03464 z"
     style="fill:#0000cd;fill-opacity:1;fill-rule:nonzero;stroke:none;stroke-width:0.16"
     id="path454" /><path
     d="m 19.143125,12.588246 2.75937,1.37954 v 4.48347 l -2.75937,-1.72442 z"
     style="fill:#0000cd;fill-opacity:1;fill-rule:nonzero;stroke:none;stroke-width:0.16"
     id="path456" /><path
     d="m 21.212655,9.829196 -0.68984,1.37952 2.75937,1.37953 v 1.37954 h 0.68984 v -4.13859 z"
     style="fill:#0000cd;fill-opacity:1;fill-rule:nonzero;stroke:none;stroke-width:0.16"
     id="path458" /><path
     d="m 19.143125,6.725236 2.75937,-0.68976 v 2.41418 h -1.37968 z"
     style="fill:#0000cd;fill-opacity:1;fill-rule:nonzero;stroke:none;stroke-width:0.16"
     id="path460" /><path
     d="m 10.520085,12.588246 2.06953,0.68976 0.68984,2.0693 v 5.17325 l -0.68984,-2.75908 -2.06953,-1.03464 z"
     style="fill:#0000cd;fill-opacity:1;fill-rule:nonzero;stroke:none;stroke-width:0.16"
     id="path462" /><path
     d="m 7.760705,6.035476 2.75938,0.68976 -1.37969,1.72442 h -1.37969 z"
     style="fill:#0000cd;fill-opacity:1;fill-rule:nonzero;stroke:none;stroke-width:0.16"
     id="path464" /><path
     d="m 6.036105,13.967786 h -0.68985 v -4.13859 h 3.1043 l 0.68984,1.37952 -3.10429,1.37953 z"
     style="fill:#0000cd;fill-opacity:1;fill-rule:nonzero;stroke:none;stroke-width:0.16"
     id="path466" /><path
     d="m 12.645525,38.205916 v -6.6656 h 0.88218 v 2.73718 h 3.46505 v -2.73718 h 0.88218 v 6.6656 h -0.88218 v -3.14183 h -3.46505 v 3.14183 z m 9.74215,-0.59562 c -0.30315,0.25765 -0.59494,0.43952 -0.87535,0.54562 -0.28042,0.10608 -0.5813,0.15913 -0.90264,0.15913 -0.53052,0 -0.93827,-0.12958 -1.22323,-0.38875 -0.28496,-0.25917 -0.42745,-0.59034 -0.42745,-0.99347 0,-0.23645 0.0538,-0.45242 0.16143,-0.64792 0.10762,-0.19552 0.24859,-0.35239 0.4229,-0.47059 0.17432,-0.11823 0.37061,-0.20765 0.58888,-0.26828 0.16067,-0.0424 0.40319,-0.0834 0.72757,-0.12275 0.66087,-0.0788 1.14743,-0.17278 1.45968,-0.2819 0.003,-0.11216 0.005,-0.18339 0.005,-0.2137 0,-0.33344 -0.0773,-0.56835 -0.23191,-0.70477 -0.20918,-0.18489 -0.51991,-0.27734 -0.9322,-0.27734 -0.38501,0 -0.66922,0.0674 -0.85262,0.20234 -0.18341,0.13488 -0.31907,0.37358 -0.40699,0.71611 l -0.80032,-0.10912 c 0.0727,-0.34253 0.1925,-0.61912 0.35923,-0.82979 0.16674,-0.21068 0.40775,-0.37284 0.72303,-0.48652 0.31528,-0.11366 0.68058,-0.17049 1.0959,-0.17049 0.41229,0 0.74727,0.0485 1.00495,0.14549 0.25768,0.097 0.44715,0.219 0.56842,0.36601 0.12126,0.14703 0.20614,0.33267 0.25464,0.55699 0.0273,0.13944 0.0409,0.39103 0.0409,0.75477 v 1.09123 c 0,0.76084 0.0174,1.24204 0.0523,1.4436 0.0349,0.20159 0.10384,0.39482 0.20691,0.57972 h -0.8549 c -0.0849,-0.16975 -0.13945,-0.36829 -0.1637,-0.59562 z m -0.0682,-1.82782 c -0.29709,0.12124 -0.74272,0.22432 -1.3369,0.30918 -0.33651,0.0485 -0.57448,0.10307 -0.71393,0.1637 -0.13945,0.0606 -0.24707,0.14928 -0.32286,0.26598 -0.0758,0.11669 -0.11368,0.24629 -0.11368,0.38875 0,0.21824 0.0826,0.40011 0.24783,0.54562 0.16521,0.14549 0.40698,0.21824 0.72529,0.21824 0.31528,0 0.5957,-0.069 0.84125,-0.20688 0.24556,-0.13792 0.42593,-0.32661 0.54113,-0.56608 0.0879,-0.1849 0.13187,-0.45771 0.13187,-0.81842 z m 2.08231,2.42344 v -4.82869 h 0.73666 v 0.73203 c 0.18796,-0.34253 0.36151,-0.56835 0.52067,-0.67747 0.15915,-0.10912 0.33422,-0.16368 0.52521,-0.16368 0.27587,0 0.55629,0.0879 0.84125,0.26371 l -0.28193,0.75931 c -0.20008,-0.11821 -0.40016,-0.17733 -0.60024,-0.17733 -0.17887,0 -0.33954,0.0538 -0.48202,0.16141 -0.14248,0.10762 -0.24404,0.2569 -0.30467,0.44787 -0.0909,0.291 -0.13642,0.60927 -0.13642,0.95482 v 2.52802 z m 3.10563,0 v -4.82869 h 0.73211 v 0.67747 c 0.15158,-0.23643 0.35318,-0.42664 0.60479,-0.57062 0.25162,-0.14399 0.5381,-0.21597 0.85944,-0.21597 0.35773,0 0.65103,0.0743 0.87991,0.22278 0.22888,0.14853 0.39031,0.35618 0.48429,0.62291 0.38197,-0.56379 0.87914,-0.84569 1.49151,-0.84569 0.47898,0 0.84731,0.13261 1.10499,0.39784 0.25768,0.26523 0.38653,0.67368 0.38653,1.22536 v 3.31461 h -0.81397 v -3.0418 c 0,-0.32737 -0.0265,-0.56305 -0.0796,-0.70704 -0.0531,-0.14396 -0.1493,-0.25992 -0.28875,-0.34782 -0.13946,-0.0879 -0.30315,-0.13186 -0.49111,-0.13186 -0.33953,0 -0.62146,0.11292 -0.8458,0.33874 -0.22433,0.22582 -0.3365,0.5873 -0.3365,1.08442 v 2.80536 h -0.81851 v -3.13728 c 0,-0.36375 -0.0667,-0.63655 -0.20008,-0.81842 -0.13339,-0.18187 -0.35166,-0.27282 -0.65482,-0.27282 -0.2304,0 -0.44336,0.0606 -0.63889,0.18188 -0.19554,0.12124 -0.33726,0.29857 -0.42518,0.53196 -0.0879,0.23341 -0.13187,0.56988 -0.13187,1.0094 v 2.50528 z m 7.44831,-2.41434 c -2e-5,-0.89421 0.24857,-1.55653 0.74574,-1.98696 0.41533,-0.35768 0.9216,-0.53651 1.51882,-0.53651 0.6639,0 1.20654,0.21749 1.62793,0.65246 0.42138,0.43498 0.63207,1.03591 0.63207,1.8028 0,0.62139 -0.0932,1.11018 -0.27965,1.46634 -0.18645,0.35617 -0.45778,0.63277 -0.81397,0.82979 -0.35621,0.19704 -0.74501,0.29555 -1.16638,0.29555 -0.67605,0 -1.22248,-0.21673 -1.63931,-0.65019 -0.41684,-0.43347 -0.62527,-1.05789 -0.62525,-1.87328 z m 0.84125,0 c 0,0.61835 0.13489,1.08138 0.4047,1.38904 0.26981,0.30766 0.60934,0.4615 1.01861,0.4615 0.40622,0 0.74424,-0.15459 1.01405,-0.46377 0.2698,-0.30919 0.4047,-0.78053 0.4047,-1.41405 0,-0.59715 -0.13566,-1.04955 -0.40698,-1.35722 -0.27132,-0.30768 -0.60859,-0.4615 -1.01177,-0.4615 -0.40927,0 -0.7488,0.15307 -1.01861,0.45922 -0.26981,0.30616 -0.4047,0.76841 -0.4047,1.38678 z m 4.63788,2.41434 v -4.82869 h 0.73666 v 0.68656 c 0.3547,-0.53045 0.86702,-0.79568 1.53699,-0.79568 0.29104,0 0.55856,0.0523 0.80261,0.15686 0.24403,0.10458 0.42669,0.24173 0.54795,0.41149 0.12125,0.16974 0.20615,0.37131 0.25464,0.60472 0.0303,0.15155 0.0455,0.41678 0.0455,0.79568 v 2.96906 h -0.81851 v -2.93722 c 0,-0.33344 -0.0318,-0.58275 -0.0955,-0.74795 -0.0637,-0.1652 -0.17659,-0.29706 -0.33878,-0.39557 -0.16218,-0.0985 -0.35242,-0.14778 -0.57069,-0.14778 -0.34862,0 -0.6495,0.11064 -0.90264,0.33192 -0.25312,0.22128 -0.37969,0.64109 -0.37969,1.25946 v 2.63714 z m 5.17903,-5.7244 v -0.9412 h 0.81851 v 0.9412 z m 0,5.7244 v -4.82869 h 0.81851 v 4.82869 z m 5.21302,-1.76869 0.80488,0.10457 c -0.0879,0.55471 -0.31301,0.98893 -0.67528,1.30266 -0.36227,0.31373 -0.80715,0.47059 -1.33464,0.47059 -0.66086,0 -1.19214,-0.21598 -1.59382,-0.64792 -0.40168,-0.43195 -0.60251,-1.05107 -0.60251,-1.85737 0,-0.52136 0.0864,-0.97756 0.25918,-1.36858 0.1728,-0.39102 0.43579,-0.68429 0.78896,-0.87981 0.35317,-0.1955 0.73742,-0.29326 1.15275,-0.29326 0.52445,0 0.95341,0.13261 1.28688,0.39784 0.33347,0.26523 0.5472,0.64185 0.64117,1.12987 l -0.79578,0.12277 c -0.0758,-0.32434 -0.20993,-0.56835 -0.40243,-0.73203 -0.19251,-0.16368 -0.42518,-0.24552 -0.69801,-0.24552 -0.41229,0 -0.74728,0.14776 -1.00496,0.44331 -0.25768,0.29553 -0.38652,0.7631 -0.38652,1.40267 0,0.64869 0.12429,1.12003 0.37288,1.41406 0.24858,0.29402 0.57296,0.44104 0.97312,0.44104 0.32135,0 0.58964,-0.0985 0.80488,-0.29555 0.21524,-0.19702 0.35165,-0.50014 0.40925,-0.90934 z m 1.57338,1.76869 v -6.6656 h 2.50101 c 0.50929,0 0.9178,0.0675 1.2255,0.20233 0.3077,0.1349 0.5487,0.34253 0.72302,0.62291 0.17431,0.28039 0.26148,0.57367 0.26148,0.87981 0,0.28493 -0.0773,0.5532 -0.23192,0.80479 -0.15461,0.25158 -0.38804,0.45467 -0.70029,0.60926 0.4032,0.11822 0.71317,0.31979 0.92993,0.60472 0.21676,0.28494 0.32512,0.62141 0.32512,1.00939 0,0.31223 -0.0659,0.60245 -0.19779,0.87072 -0.13187,0.26826 -0.29483,0.47514 -0.48885,0.62064 -0.19401,0.14549 -0.43729,0.25538 -0.72984,0.32963 -0.29254,0.0743 -0.65102,0.1114 -1.07544,0.1114 z m 0.88217,-3.86477 h 1.44149 c 0.39107,0 0.67149,-0.0258 0.84127,-0.0773 0.22432,-0.0667 0.39332,-0.17733 0.50702,-0.33192 0.11368,-0.15459 0.17051,-0.34857 0.17051,-0.58198 0,-0.22128 -0.053,-0.41603 -0.15915,-0.58426 -0.10611,-0.16824 -0.25768,-0.28342 -0.45474,-0.34557 -0.19704,-0.0621 -0.53505,-0.0932 -1.01404,-0.0932 h -1.33236 z m 0,3.07817 h 1.65976 c 0.28496,0 0.48504,-0.0106 0.60026,-0.0318 0.2031,-0.0364 0.37286,-0.097 0.5093,-0.18187 0.13641,-0.0849 0.24857,-0.2084 0.33649,-0.37056 0.0879,-0.16218 0.13187,-0.34935 0.13187,-0.56154 0,-0.24856 -0.0637,-0.46453 -0.19099,-0.64792 -0.12733,-0.18337 -0.3039,-0.31221 -0.52976,-0.38646 -0.22585,-0.0743 -0.55097,-0.11141 -0.97539,-0.11141 h -1.54154 z m 8.41143,0.19098 c -0.30315,0.25765 -0.59495,0.43952 -0.87536,0.54562 -0.28042,0.10608 -0.5813,0.15913 -0.90264,0.15913 -0.53051,0 -0.93826,-0.12958 -1.22322,-0.38875 -0.28497,-0.25917 -0.42745,-0.59034 -0.42745,-0.99347 0,-0.23645 0.0538,-0.45242 0.16142,-0.64792 0.10763,-0.19552 0.24859,-0.35239 0.42291,-0.47059 0.17431,-0.11823 0.37061,-0.20765 0.58887,-0.26828 0.16067,-0.0424 0.4032,-0.0834 0.72758,-0.12275 0.66086,-0.0788 1.14742,-0.17278 1.45968,-0.2819 0.003,-0.11216 0.004,-0.18339 0.004,-0.2137 0,-0.33344 -0.0773,-0.56835 -0.2319,-0.70477 -0.20919,-0.18489 -0.51992,-0.27734 -0.93221,-0.27734 -0.38501,0 -0.66922,0.0674 -0.85263,0.20234 -0.1834,0.13488 -0.31907,0.37358 -0.40697,0.71611 l -0.80032,-0.10912 c 0.0727,-0.34253 0.19249,-0.61912 0.35923,-0.82979 0.16674,-0.21068 0.40774,-0.37284 0.72302,-0.48652 0.31527,-0.11366 0.68058,-0.17049 1.09589,-0.17049 0.41229,0 0.74728,0.0485 1.00496,0.14549 0.25768,0.097 0.44715,0.219 0.56842,0.36601 0.12126,0.14703 0.20614,0.33267 0.25465,0.55699 0.0273,0.13944 0.0409,0.39103 0.0409,0.75477 v 1.09123 c 0,0.76084 0.0174,1.24204 0.0523,1.4436 0.0349,0.20159 0.10382,0.39482 0.2069,0.57972 h -0.8549 c -0.0849,-0.16975 -0.13946,-0.36829 -0.1637,-0.59562 z m -0.0682,-1.82782 c -0.29709,0.12124 -0.74274,0.22432 -1.33691,0.30918 -0.3365,0.0485 -0.57448,0.10307 -0.71392,0.1637 -0.13946,0.0606 -0.24707,0.14928 -0.32287,0.26598 -0.0758,0.11669 -0.11368,0.24629 -0.11368,0.38875 0,0.21824 0.0826,0.40011 0.24783,0.54562 0.16521,0.14549 0.40699,0.21824 0.72529,0.21824 0.31528,0 0.5957,-0.069 0.84125,-0.20688 0.24555,-0.13792 0.42594,-0.32661 0.54114,-0.56608 0.0879,-0.1849 0.13187,-0.45771 0.13187,-0.81842 z m 2.0732,2.42344 v -6.6656 h 0.81853 v 6.6656 z m 5.23578,-0.59562 c -0.30316,0.25765 -0.59495,0.43952 -0.87536,0.54562 -0.28042,0.10608 -0.5813,0.15913 -0.90264,0.15913 -0.53053,0 -0.93826,-0.12958 -1.22322,-0.38875 -0.28498,-0.25917 -0.42746,-0.59034 -0.42746,-0.99347 0,-0.23645 0.0538,-0.45242 0.16143,-0.64792 0.10763,-0.19552 0.24859,-0.35239 0.42291,-0.47059 0.1743,-0.11823 0.37061,-0.20765 0.58886,-0.26828 0.16068,-0.0424 0.4032,-0.0834 0.72757,-0.12275 0.66088,-0.0788 1.14744,-0.17278 1.4597,-0.2819 0.003,-0.11216 0.004,-0.18339 0.004,-0.2137 0,-0.33344 -0.0773,-0.56835 -0.23191,-0.70477 -0.20918,-0.18489 -0.51992,-0.27734 -0.9322,-0.27734 -0.38501,0 -0.66922,0.0674 -0.85263,0.20234 -0.18341,0.13488 -0.31907,0.37358 -0.40697,0.71611 l -0.80032,-0.10912 c 0.0727,-0.34253 0.19249,-0.61912 0.35923,-0.82979 0.16673,-0.21068 0.40774,-0.37284 0.72302,-0.48652 0.31527,-0.11366 0.68058,-0.17049 1.09591,-0.17049 0.41227,0 0.74726,0.0485 1.00494,0.14549 0.25768,0.097 0.44715,0.219 0.56842,0.36601 0.12126,0.14703 0.20614,0.33267 0.25465,0.55699 0.0273,0.13944 0.0409,0.39103 0.0409,0.75477 v 1.09123 c 0,0.76084 0.0174,1.24204 0.0523,1.4436 0.0349,0.20159 0.10382,0.39482 0.20689,0.57972 h -0.85489 c -0.0849,-0.16975 -0.13946,-0.36829 -0.1637,-0.59562 z m -0.0682,-1.82782 c -0.29709,0.12124 -0.74274,0.22432 -1.33691,0.30918 -0.3365,0.0485 -0.57448,0.10307 -0.71392,0.1637 -0.13946,0.0606 -0.24708,0.14928 -0.32287,0.26598 -0.0758,0.11669 -0.11368,0.24629 -0.11368,0.38875 0,0.21824 0.0826,0.40011 0.24783,0.54562 0.16521,0.14549 0.40699,0.21824 0.72529,0.21824 0.31528,0 0.5957,-0.069 0.84125,-0.20688 0.24555,-0.13792 0.42594,-0.32661 0.54114,-0.56608 0.0879,-0.1849 0.13187,-0.45771 0.13187,-0.81842 z m 2.09139,2.42344 v -4.82869 h 0.73667 v 0.68656 c 0.35469,-0.53045 0.86701,-0.79568 1.53699,-0.79568 0.29103,0 0.55855,0.0523 0.8026,0.15686 0.24403,0.10458 0.42668,0.24173 0.54795,0.41149 0.12126,0.16974 0.20614,0.37131 0.25464,0.60472 0.0303,0.15155 0.0455,0.41678 0.0455,0.79568 v 2.96906 h -0.81853 v -2.93722 c 0,-0.33344 -0.0318,-0.58275 -0.0955,-0.74795 -0.0637,-0.1652 -0.17659,-0.29706 -0.33877,-0.39557 -0.16219,-0.0985 -0.35243,-0.14778 -0.57069,-0.14778 -0.34864,0 -0.64952,0.11064 -0.90264,0.33192 -0.25313,0.22128 -0.37971,0.64109 -0.37971,1.25946 v 2.63714 z m 8.32576,-1.76869 0.80486,0.10457 c -0.0879,0.55471 -0.313,0.98893 -0.67526,1.30266 -0.36227,0.31373 -0.80715,0.47059 -1.33464,0.47059 -0.66088,0 -1.19216,-0.21598 -1.59382,-0.64792 -0.40168,-0.43195 -0.60253,-1.05107 -0.60253,-1.85737 0,-0.52136 0.0864,-0.97756 0.2592,-1.36858 0.1728,-0.39102 0.43577,-0.68429 0.78896,-0.87981 0.35317,-0.1955 0.73742,-0.29326 1.15273,-0.29326 0.52447,0 0.95343,0.13261 1.2869,0.39784 0.33346,0.26523 0.54718,0.64185 0.64117,1.12987 l -0.79578,0.12277 c -0.0758,-0.32434 -0.20993,-0.56835 -0.40243,-0.73203 -0.19251,-0.16368 -0.42518,-0.24552 -0.69802,-0.24552 -0.4123,0 -0.74728,0.14776 -1.00496,0.44331 -0.25768,0.29553 -0.38651,0.7631 -0.38651,1.40267 0,0.64869 0.12429,1.12003 0.37287,1.41406 0.24859,0.29402 0.57296,0.44104 0.97313,0.44104 0.32135,0 0.58963,-0.0985 0.80487,-0.29555 0.21524,-0.19702 0.35166,-0.50014 0.40926,-0.90934 z m 4.81106,0.21369 0.84579,0.10458 c -0.13339,0.49408 -0.38047,0.87752 -0.74122,1.15034 -0.36075,0.2728 -0.82155,0.40921 -1.38238,0.40921 -0.70634,0 -1.26642,-0.21749 -1.68023,-0.65248 -0.4138,-0.43497 -0.6207,-1.04499 -0.6207,-1.83008 0,-0.81235 0.20917,-1.44285 0.62752,-1.89145 0.41835,-0.44863 0.96101,-0.67293 1.62794,-0.67293 0.64572,0 1.17321,0.21976 1.58246,0.65928 0.40926,0.43952 0.61389,1.05789 0.61389,1.85509 0,0.0485 -0.002,0.12124 -0.004,0.21825 h -3.60147 c 0.0303,0.53045 0.18038,0.93664 0.45019,1.21855 0.26981,0.28188 0.6063,0.42284 1.0095,0.42284 0.30011,0 0.55627,-0.0788 0.7685,-0.23643 0.21219,-0.15763 0.38045,-0.40921 0.50475,-0.75477 z m -2.68748,-1.32312 h 2.69656 c -0.0364,-0.40617 -0.13945,-0.71081 -0.30921,-0.9139 -0.26072,-0.31525 -0.59874,-0.47286 -1.01405,-0.47286 -0.37592,0 -0.69195,0.12579 -0.94811,0.37737 -0.25618,0.25159 -0.39789,0.58805 -0.42519,1.00939 z"
     style="fill:#1e90ff;fill-opacity:1;fill-rule:nonzero;stroke:none;stroke-width:0.16"
     id="path602" /><path
     d="m 12.645525,49.587046 v -6.6656 h 0.88218 v 2.73717 h 3.46505 v -2.73717 h 0.88218 v 6.6656 h -0.88218 v -3.14184 h -3.46505 v 3.14184 z m 6.65908,0 v -6.6656 h 2.50102 c 0.5093,0 0.9178,0.0674 1.2255,0.20234 0.3077,0.13488 0.54871,0.34253 0.72302,0.62291 0.17431,0.28038 0.26147,0.57365 0.26147,0.87981 0,0.28493 -0.0773,0.55318 -0.23191,0.80477 -0.15461,0.2516 -0.38804,0.45468 -0.70029,0.60928 0.4032,0.1182 0.71317,0.31979 0.92993,0.60472 0.21675,0.28492 0.32513,0.62139 0.32513,1.00939 0,0.31221 -0.0659,0.60245 -0.19781,0.8707 -0.13187,0.26827 -0.29482,0.47515 -0.48883,0.62064 -0.19402,0.14551 -0.43731,0.25538 -0.72985,0.32965 -0.29254,0.0743 -0.65102,0.11139 -1.07544,0.11139 z m 0.88218,-3.86477 h 1.44149 c 0.39107,0 0.67149,-0.0258 0.84125,-0.0773 0.22434,-0.0667 0.39335,-0.17733 0.50703,-0.33192 0.11368,-0.15459 0.17052,-0.34859 0.17052,-0.58199 0,-0.22128 -0.0531,-0.41603 -0.15915,-0.58427 -0.10611,-0.16822 -0.25768,-0.28341 -0.45473,-0.34555 -0.19705,-0.0621 -0.53507,-0.0932 -1.01405,-0.0932 h -1.33236 z m 0,3.07818 h 1.65976 c 0.28497,0 0.48505,-0.0106 0.60025,-0.0318 0.20311,-0.0364 0.37288,-0.097 0.5093,-0.18188 0.13642,-0.0849 0.24858,-0.2084 0.3365,-0.37057 0.0879,-0.16216 0.13187,-0.34935 0.13187,-0.56152 0,-0.24856 -0.0637,-0.46453 -0.19099,-0.64792 -0.12732,-0.18339 -0.30391,-0.31221 -0.52976,-0.38648 -0.22585,-0.0743 -0.55098,-0.11139 -0.9754,-0.11139 h -1.54153 z m 9.33453,0 v 0.78659 h -4.40634 c -0.006,-0.19702 0.0258,-0.38648 0.0955,-0.56835 0.11217,-0.30008 0.29178,-0.59563 0.53886,-0.88662 0.24707,-0.291 0.60403,-0.62746 1.07089,-1.0094 0.72453,-0.59411 1.21413,-1.0647 1.46878,-1.41177 0.25465,-0.34707 0.38197,-0.6752 0.38197,-0.98439 0,-0.32433 -0.11596,-0.5979 -0.34787,-0.82068 -0.23191,-0.2228 -0.53431,-0.3342 -0.90719,-0.3342 -0.3941,0 -0.70938,0.11823 -0.94584,0.35466 -0.23646,0.23643 -0.3562,0.56379 -0.35923,0.9821 l -0.84126,-0.0864 c 0.0576,-0.62745 0.27436,-1.10563 0.65027,-1.43451 0.37591,-0.32888 0.88066,-0.49333 1.51425,-0.49333 0.63966,0 1.14592,0.17733 1.5188,0.53197 0.37288,0.35466 0.55932,0.79418 0.55932,1.31858 0,0.26675 -0.0546,0.52894 -0.1637,0.78659 -0.10914,0.25766 -0.29027,0.52894 -0.5434,0.81389 -0.25314,0.28492 -0.67376,0.67595 -1.26188,1.17305 -0.49111,0.41226 -0.80639,0.69187 -0.94584,0.8389 -0.13945,0.14701 -0.25465,0.29478 -0.3456,0.44331 z"
     style="fill:#0000ff;fill-opacity:1;fill-rule:nonzero;stroke:none;stroke-width:0.16"
     id="path734" /><path
     d="m 12.663715,60.968186 v -6.6656 h 4.49729 v 0.78659 h -3.61511 v 2.06424 h 3.12855 v 0.78659 h -3.12855 v 3.02818 z m 5.52753,0 v -4.82871 h 0.73666 v 0.73204 c 0.18796,-0.34252 0.36151,-0.56834 0.52067,-0.67748 0.15915,-0.10912 0.33422,-0.16368 0.52521,-0.16368 0.27587,0 0.55629,0.0879 0.84125,0.26372 l -0.28193,0.75931 c -0.20008,-0.11821 -0.40016,-0.17733 -0.60024,-0.17733 -0.17887,0 -0.33954,0.0538 -0.48202,0.16142 -0.14248,0.1076 -0.24404,0.25688 -0.30467,0.44786 -0.0909,0.29099 -0.13642,0.60926 -0.13642,0.95483 v 2.52802 z m 6.41152,-1.55501 0.8458,0.10458 c -0.13339,0.49408 -0.38046,0.87753 -0.74121,1.15033 -0.36076,0.27282 -0.82155,0.40922 -1.38239,0.40922 -0.70634,0 -1.26642,-0.21749 -1.68023,-0.65247 -0.4138,-0.43497 -0.6207,-1.045 -0.6207,-1.83009 0,-0.81235 0.20917,-1.44285 0.62753,-1.89146 0.41835,-0.44862 0.96099,-0.67293 1.62793,-0.67293 0.64572,0 1.17321,0.21976 1.58246,0.65928 0.40926,0.43954 0.61389,1.05789 0.61389,1.85511 0,0.0485 -0.001,0.12125 -0.005,0.21824 h -3.60147 c 0.0303,0.53046 0.18037,0.93664 0.45018,1.21854 0.26981,0.28191 0.60631,0.42285 1.00951,0.42285 0.30012,0 0.55628,-0.0788 0.76849,-0.23643 0.21221,-0.15762 0.38046,-0.40922 0.50475,-0.75477 z m -2.68746,-1.32312 h 2.69655 c -0.0364,-0.40618 -0.13945,-0.71082 -0.30921,-0.9139 -0.26072,-0.31525 -0.59873,-0.47287 -1.01405,-0.47287 -0.37591,0 -0.69195,0.12579 -0.94812,0.37738 -0.25616,0.2516 -0.39789,0.58805 -0.42517,1.00939 z m 7.63456,4.72867 v -2.36433 c -0.12732,0.17883 -0.30542,0.32736 -0.5343,0.44558 -0.22889,0.11822 -0.47217,0.17733 -0.72985,0.17733 -0.57296,0 -1.06634,-0.22887 -1.48015,-0.68658 -0.4138,-0.45769 -0.6207,-1.08517 -0.6207,-1.88237 0,-0.48499 0.0841,-0.91996 0.25237,-1.30492 0.16825,-0.38496 0.41229,-0.67672 0.73212,-0.87527 0.31982,-0.19853 0.67073,-0.29781 1.0527,-0.29781 0.59721,0 1.0671,0.25159 1.40967,0.75477 v -0.64565 h 0.73666 v 6.67925 z m -2.52375,-4.27854 c 0,0.62141 0.13035,1.08744 0.39107,1.39814 0.26071,0.31071 0.57296,0.46605 0.93674,0.46605 0.34863,0 0.64875,-0.14778 0.90037,-0.44331 0.25162,-0.29555 0.37743,-0.74491 0.37743,-1.34813 0,-0.64261 -0.13264,-1.12608 -0.39789,-1.45043 -0.26526,-0.32434 -0.57675,-0.4865 -0.93447,-0.4865 -0.3547,0 -0.65558,0.1508 -0.90265,0.4524 -0.24707,0.3016 -0.3706,0.77219 -0.3706,1.41178 z m 4.63789,4.27854 v -8.51614 h 1.80528 v 0.67747 h -0.98677 v 7.1612 h 0.98677 v 0.67747 z m 5.42184,-1.85054 h -0.81852 v -5.21519 c -0.19705,0.18794 -0.45548,0.37588 -0.77531,0.56381 -0.31982,0.18794 -0.60707,0.32888 -0.86171,0.42285 v -0.79114 c 0.45776,-0.21521 0.85792,-0.4759 1.20048,-0.78204 0.34258,-0.30616 0.58509,-0.60322 0.72757,-0.89117 h 0.52749 z m 3.6875,1.85054 h -1.80528 v -0.67747 h 0.98677 v -7.1612 h -0.98677 v -0.67747 h 1.80528 z m 5.52189,-5.76989 h -4.40179 v -0.76385 h 4.40179 z m 0,2.02333 h -4.40179 v -0.76387 h 4.40179 z m 0.95729,-3.89661 v -0.78659 h 4.3154 v 0.63655 c -0.42442,0.45164 -0.84504,1.05184 -1.26188,1.80054 -0.41683,0.7487 -0.73894,1.51862 -0.9663,2.30976 -0.1637,0.55774 -0.26829,1.16853 -0.31376,1.83237 h -0.84125 c 0.009,-0.5244 0.11216,-1.15792 0.30922,-1.90056 0.19704,-0.74266 0.47974,-1.45877 0.84806,-2.14837 0.36834,-0.6896 0.76016,-1.27083 1.17549,-1.7437 z m 11.15565,3.17821 v -0.78205 l 2.82387,-0.004 v 2.47346 c -0.43352,0.34555 -0.88067,0.60549 -1.34145,0.77978 -0.4608,0.17428 -0.93371,0.26144 -1.41877,0.26144 -0.6548,0 -1.24974,-0.1402 -1.78482,-0.42058 -0.53505,-0.28038 -0.939,-0.68581 -1.21185,-1.21627 -0.27283,-0.53047 -0.40925,-1.12306 -0.40925,-1.77779 0,-0.64868 0.13565,-1.25416 0.40698,-1.81645 0.27132,-0.56229 0.66163,-0.97984 1.17092,-1.25264 0.50932,-0.2728 1.09591,-0.40922 1.75981,-0.40922 0.48202,0 0.91781,0.0781 1.30736,0.23416 0.38955,0.15611 0.69498,0.3736 0.91627,0.65247 0.22132,0.27888 0.38956,0.64262 0.50476,1.09123 l -0.79578,0.21825 c -0.10003,-0.3395 -0.22434,-0.60624 -0.37288,-0.80024 -0.14854,-0.194 -0.36075,-0.34934 -0.63662,-0.46604 -0.27588,-0.11671 -0.58205,-0.17506 -0.91855,-0.17506 -0.4032,0 -0.75182,0.0614 -1.04589,0.18414 -0.29406,0.12277 -0.53128,0.28418 -0.71164,0.48424 -0.18039,0.20007 -0.3206,0.41983 -0.42063,0.65928 -0.16977,0.41224 -0.25465,0.85935 -0.25465,1.34132 0,0.59411 0.10232,1.09123 0.30694,1.49134 0.20462,0.40011 0.50248,0.69717 0.89355,0.89117 0.39106,0.194 0.80639,0.29099 1.24595,0.29099 0.38199,0 0.75485,-0.0735 1.11864,-0.22051 0.3638,-0.14701 0.63965,-0.30387 0.82762,-0.47059 v -1.24128 h -1.95989 z m 4.14859,2.61442 v -6.6656 h 0.88218 v 2.73717 h 3.46506 v -2.73717 h 0.88217 v 6.6656 h -0.88217 v -3.14184 h -3.46506 v 3.14184 z m 6.15887,0 v -0.66384 l 3.07398,-3.52831 c -0.34862,0.0182 -0.65632,0.0273 -0.9231,0.0273 h -1.96898 v -0.66384 h 3.94706 v 0.54108 l -2.61471,3.06454 -0.50475,0.55925 c 0.36682,-0.0273 0.7109,-0.0409 1.03224,-0.0409 h 2.23274 v 0.70475 z"
     style="fill:#000080;fill-opacity:1;fill-rule:nonzero;stroke:none;stroke-width:0.16"
     id="path1298" /><path
     d="m 12.349955,69.102906 c 0,-1.1064 0.29709,-1.97256 0.89127,-2.5985 0.59418,-0.62595 1.36116,-0.93891 2.30094,-0.93891 0.6154,0 1.17017,0.14701 1.66431,0.44104 0.49414,0.29402 0.87081,0.70398 1.13001,1.2299 0.25919,0.52591 0.38879,1.12231 0.38879,1.78917 0,0.67595 -0.13642,1.28067 -0.40926,1.81416 -0.27283,0.53349 -0.65935,0.93739 -1.15956,1.21173 -0.5002,0.27432 -1.03982,0.41149 -1.61884,0.41149 -0.62753,0 -1.18836,-0.15157 -1.6825,-0.45469 -0.49414,-0.30312 -0.86854,-0.71688 -1.12319,-1.24128 -0.25465,-0.52438 -0.38197,-1.0791 -0.38197,-1.66411 z m 0.90946,0.0136 c 0,0.80326 0.216,1.43603 0.64799,1.89829 0.432,0.46225 0.97388,0.69339 1.62566,0.69339 0.66391,0 1.21034,-0.23341 1.63931,-0.70021 0.42896,-0.46682 0.64344,-1.12912 0.64344,-1.98696 0,-0.54258 -0.0917,-1.01621 -0.27511,-1.42086 -0.18341,-0.40468 -0.4517,-0.7184 -0.80487,-0.94119 -0.35318,-0.2228 -0.74955,-0.33419 -1.18913,-0.33419 -0.62449,0 -1.16183,0.21445 -1.61202,0.64336 -0.45018,0.42893 -0.67527,1.14504 -0.67527,2.14837 z m 6.48591,3.23277 v -4.82869 h 0.73667 v 0.73203 c 0.18795,-0.34253 0.36151,-0.56835 0.52066,-0.67747 0.15916,-0.10912 0.33423,-0.16368 0.52522,-0.16368 0.27587,0 0.55629,0.0879 0.84125,0.26371 l -0.28193,0.75931 c -0.20008,-0.11822 -0.40017,-0.17733 -0.60025,-0.17733 -0.17886,0 -0.33953,0.0538 -0.48201,0.16141 -0.14248,0.10762 -0.24404,0.2569 -0.30467,0.44786 -0.0909,0.29101 -0.13642,0.60928 -0.13642,0.95483 v 2.52802 z m 6.23873,0 v -0.60927 c -0.30619,0.47893 -0.75637,0.71839 -1.35055,0.71839 -0.38501,0 -0.73894,-0.10608 -1.0618,-0.31828 -0.32286,-0.21217 -0.57296,-0.50848 -0.7503,-0.88889 -0.17735,-0.38042 -0.26602,-0.81767 -0.26602,-1.31175 0,-0.48196 0.0803,-0.91921 0.24101,-1.31176 0.16067,-0.39252 0.40167,-0.69337 0.72302,-0.90252 0.32134,-0.20916 0.68058,-0.31373 1.07771,-0.31373 0.29103,0 0.55022,0.0614 0.77759,0.18414 0.22736,0.12275 0.41229,0.28266 0.55477,0.47968 v -2.39161 h 0.81397 v 6.6656 z m -2.58742,-2.4098 c 0,0.61836 0.13036,1.08063 0.39107,1.38677 0.26071,0.30615 0.56841,0.45923 0.9231,0.45923 0.35772,0 0.66164,-0.14625 0.91174,-0.43876 0.2501,-0.29252 0.37515,-0.73887 0.37515,-1.33904 0,-0.6608 -0.12733,-1.1458 -0.38197,-1.45498 -0.25465,-0.30917 -0.56842,-0.46376 -0.9413,-0.46376 -0.36378,0 -0.66769,0.14853 -0.91173,0.44558 -0.24404,0.29706 -0.36606,0.76538 -0.36606,1.40496 z m 7.93469,0.85479 0.8458,0.10459 c -0.13339,0.49408 -0.38046,0.87752 -0.74121,1.15034 -0.36076,0.2728 -0.82155,0.4092 -1.38239,0.4092 -0.70635,0 -1.26642,-0.21749 -1.68023,-0.65247 -0.4138,-0.43497 -0.6207,-1.04499 -0.6207,-1.83008 0,-0.81235 0.20917,-1.44285 0.62753,-1.89147 0.41835,-0.44861 0.96099,-0.67291 1.62793,-0.67291 0.64572,0 1.1732,0.21976 1.58246,0.65928 0.40926,0.43952 0.61389,1.05789 0.61389,1.85509 0,0.0485 -0.001,0.12124 -0.005,0.21825 h -3.60147 c 0.0303,0.53045 0.18037,0.93663 0.45018,1.21853 0.26981,0.2819 0.60631,0.42286 1.0095,0.42286 0.30013,0 0.55629,-0.0788 0.7685,-0.23644 0.21221,-0.15762 0.38046,-0.4092 0.50475,-0.75477 z m -2.68746,-1.32311 h 2.69655 c -0.0364,-0.40619 -0.13945,-0.71081 -0.30921,-0.9139 -0.26072,-0.31525 -0.59873,-0.47288 -1.01405,-0.47288 -0.37592,0 -0.69195,0.12581 -0.94812,0.37739 -0.25616,0.25159 -0.39789,0.58805 -0.42517,1.00939 z m 4.54694,2.87812 v -4.82869 h 0.73667 v 0.73203 c 0.18795,-0.34253 0.3615,-0.56835 0.52065,-0.67747 0.15917,-0.10912 0.33424,-0.16368 0.52522,-0.16368 0.27587,0 0.55629,0.0879 0.84125,0.26371 l -0.28192,0.75931 c -0.20008,-0.11822 -0.40018,-0.17733 -0.60026,-0.17733 -0.17885,0 -0.33952,0.0538 -0.48201,0.16141 -0.14248,0.10762 -0.24404,0.2569 -0.30466,0.44786 -0.091,0.29101 -0.13643,0.60928 -0.13643,0.95483 v 2.52802 z m 3.12382,1.85054 v -8.51614 h 1.80528 v 0.67747 h -0.98677 v 7.1612 h 0.98677 v 0.67747 z m 5.42184,-1.85054 h -0.81851 v -5.21517 c -0.19706,0.18793 -0.45549,0.37587 -0.77531,0.56381 -0.31984,0.18792 -0.60708,0.32888 -0.86172,0.42284 v -0.79115 c 0.45776,-0.2152 0.85792,-0.47589 1.20048,-0.78205 0.34256,-0.30614 0.58509,-0.6032 0.72757,-0.89116 h 0.52749 z m 3.6875,1.85054 h -1.80528 v -0.67747 h 0.98677 v -7.1612 h -0.98677 v -0.67747 h 1.80528 z m 5.52189,-5.76987 h -4.40179 v -0.76387 h 4.40179 z m 0,2.02331 h -4.40179 v -0.76386 h 4.40179 z m 0.90274,0.15005 0.85944,-0.0728 c 0.0637,0.4183 0.21144,0.7328 0.44336,0.94345 0.2319,0.21067 0.51157,0.31602 0.83897,0.31602 0.3941,0 0.72757,-0.14853 1.00042,-0.44559 0.27283,-0.29705 0.40925,-0.69112 0.40925,-1.18217 0,-0.4668 -0.13112,-0.83509 -0.39335,-1.10487 -0.26222,-0.26977 -0.60555,-0.40467 -1.02996,-0.40467 -0.26375,0 -0.50172,0.0599 -0.71392,0.1796 -0.21221,0.11973 -0.37895,0.27509 -0.50021,0.46605 l -0.7685,-0.10003 0.64573,-3.42373 h 3.31498 v 0.78205 h -2.66018 l -0.35923,1.79144 c 0.40016,-0.27888 0.82003,-0.41831 1.2596,-0.41831 0.58206,0 1.07317,0.20157 1.47333,0.60472 0.40017,0.40316 0.60025,0.92148 0.60025,1.555 0,0.60321 -0.17584,1.12457 -0.52749,1.56409 -0.42745,0.53955 -1.01102,0.80935 -1.75072,0.80935 -0.6063,0 -1.10121,-0.16976 -1.48468,-0.50925 -0.38351,-0.33949 -0.60253,-0.78963 -0.65709,-1.3504 z"
     style="fill:#000080;fill-opacity:1;fill-rule:nonzero;stroke:none;stroke-width:0.16"
     id="path1310" /></svg>
