<?xml version="1.0" encoding="UTF-8" standalone="no"?>
<!-- Created with Inkscape (http://www.inkscape.org/) -->

<svg
   version="1.1"
   id="svg2"
   xml:space="preserve"
   width="188.33452"
   height="113.0015"
   viewBox="0 0 188.33451 113.0015"
   sodipodi:docname="afd_homework_1_schematic_sparam.svg"
   inkscape:version="1.1 (c4e8f9ed74, 2021-05-24)"
   xmlns:inkscape="http://www.inkscape.org/namespaces/inkscape"
   xmlns:sodipodi="http://sodipodi.sourceforge.net/DTD/sodipodi-0.dtd"
   xmlns="http://www.w3.org/2000/svg"
   xmlns:svg="http://www.w3.org/2000/svg"><sodipodi:namedview
     id="namedview579"
     pagecolor="#ffffff"
     bordercolor="#666666"
     borderopacity="1.0"
     inkscape:pageshadow="2"
     inkscape:pageopacity="0.0"
     inkscape:pagecheckerboard="0"
     showgrid="false"
     inkscape:zoom="1.0617101"
     inkscape:cx="88.065471"
     inkscape:cy="89.007348"
     inkscape:window-width="1366"
     inkscape:window-height="740"
     inkscape:window-x="0"
     inkscape:window-y="0"
     inkscape:window-maximized="1"
     inkscape:current-layer="svg2" /><defs
     id="defs6" /><path
     d="m 54.606755,16.303951 1.26164,-0.110288 c 0.0597,0.505488 0.19879,0.920224 0.41711,1.244192 0.21831,0.323968 0.55728,0.585904 1.01689,0.785808 0.45962,0.199888 0.97669,0.29984 1.55121,0.29984 0.51017,0 0.9606,-0.07582 1.35127,-0.227472 0.39067,-0.151648 0.68138,-0.359584 0.87212,-0.623808 0.19074,-0.26424 0.28611,-0.552592 0.28611,-0.865088 0,-0.317072 -0.0919,-0.593936 -0.27577,-0.830608 -0.18385,-0.236656 -0.48719,-0.435408 -0.91004,-0.59624 -0.27117,-0.105696 -0.87097,-0.269984 -1.79939,-0.492848 -0.92843,-0.22288 -1.57879,-0.43312 -1.95107,-0.63072 -0.4826,-0.252752 -0.84225,-0.566384 -1.07895,-0.940896 -0.2367,-0.374528 -0.35505,-0.793856 -0.35505,-1.257984 0,-0.51008 0.14477,-0.986848 0.43433,-1.430304 0.28956,-0.44344 0.71241,-0.780064 1.26854,-1.009824 0.55614,-0.22976 1.17432,-0.344656 1.85455,-0.344656 0.74918,0 1.40987,0.12064 1.9821,0.361888 0.57222,0.241264 1.0123,0.596256 1.32024,1.064976 0.30794,0.46872 0.47341,0.999488 0.49639,1.592288 l -1.28233,0.0965 c -0.0689,-0.638752 -0.3022,-1.121264 -0.69977,-1.447536 -0.39756,-0.326256 -0.98472,-0.489392 -1.76147,-0.489392 -0.80893,0 -1.39838,0.148192 -1.76838,0.444592 -0.36999,0.2964 -0.55498,0.653696 -0.55498,1.071872 0,0.363024 0.13099,0.661728 0.39297,0.896096 0.25738,0.234352 0.92957,0.474464 2.01656,0.72032 1.087,0.24584 1.83272,0.460672 2.23718,0.644496 0.58831,0.27112 1.02265,0.614624 1.30302,1.030512 0.28036,0.415872 0.42054,0.894944 0.42054,1.437184 0,0.537664 -0.15397,1.044304 -0.46191,1.51992 -0.30794,0.475616 -0.75032,0.845536 -1.32714,1.109776 -0.57682,0.26424 -1.22603,0.396352 -1.94762,0.396352 -0.91464,0 -1.68105,-0.133264 -2.29923,-0.399792 -0.61819,-0.266544 -1.10308,-0.667488 -1.45469,-1.202848 -0.3516,-0.535344 -0.5366,-1.140784 -0.55498,-1.816304 z m 9.22973,0.21368 v -1.247632 h 3.81251 v 1.247632 z m 5.33586,3.032928 V 9.445391 h 3.81252 c 0.67103,0 1.18351,0.03216 1.53741,0.0965 0.49639,0.08272 0.91234,0.240112 1.24786,0.472176 0.33552,0.232064 0.60554,0.557184 0.81007,0.97536 0.20453,0.418176 0.3068,0.877712 0.3068,1.378608 0,0.859328 -0.27348,1.586544 -0.82042,2.181648 -0.54694,0.595088 -1.53512,0.89264 -2.96452,0.89264 h -2.59223 v 4.10824 z m 1.33749,-5.300736 h 2.61291 c 0.86408,0 1.47766,-0.160832 1.84076,-0.482512 0.3631,-0.321664 0.54465,-0.77432 0.54465,-1.35792 0,-0.422768 -0.10686,-0.784656 -0.32058,-1.085648 -0.21373,-0.301008 -0.49524,-0.499744 -0.84455,-0.596256 -0.22521,-0.05974 -0.64116,-0.0896 -1.24786,-0.0896 h -2.58533 z m 6.96841,5.300736 3.88146,-10.105168 h 1.4409 l 4.13654,10.105168 h -1.52363 l -1.17891,-3.060496 h -4.22617 l -1.10997,3.060496 z m 2.91627,-4.1496 h 3.42643 l -1.05481,-2.79856 c -0.32174,-0.850144 -0.56074,-1.54864 -0.71701,-2.095488 -0.12869,0.647952 -0.31024,1.291296 -0.54464,1.930048 z m 7.63026,4.1496 V 9.445391 h 4.48126 c 0.90084,0 1.58567,0.09075 2.05448,0.272272 0.46881,0.18152 0.8434,0.502048 1.12376,0.961568 0.28037,0.459536 0.42055,0.967328 0.42055,1.52336 0,0.71688 -0.2321,1.321168 -0.69632,1.812864 -0.46421,0.491712 -1.18121,0.804192 -2.151,0.937456 0.3539,0.170032 0.62278,0.33776 0.80663,0.5032 0.39067,0.358432 0.76066,0.80648 1.10997,1.344144 l 1.75803,2.750304 h -1.68219 l -1.33749,-2.102368 c -0.39067,-0.606592 -0.7124,-1.07072 -0.96519,-1.392384 -0.25279,-0.32168 -0.47915,-0.546848 -0.67908,-0.67552 -0.19994,-0.128672 -0.40331,-0.218288 -0.61014,-0.268832 -0.15168,-0.03216 -0.39987,-0.04826 -0.74458,-0.04826 h -1.5512 v 4.48736 z m 1.33749,-5.645376 h 2.87489 c 0.61129,0 1.08929,-0.0632 1.43401,-0.189568 0.34471,-0.126368 0.60669,-0.32856 0.78594,-0.606592 0.17925,-0.278016 0.26887,-0.58016 0.26887,-0.906432 0,-0.477904 -0.1735,-0.870816 -0.52051,-1.178704 -0.34701,-0.307888 -0.8951,-0.461824 -1.64428,-0.461824 h -3.19892 z m 7.7243,5.645376 3.881455,-10.105168 h 1.44089 l 4.13655,10.105168 h -1.52363 l -1.17891,-3.060496 h -4.226165 l -1.10998,3.060496 z m 2.916255,-4.1496 h 3.42644 l -1.05482,-2.79856 c -0.32173,-0.850144 -0.56073,-1.54864 -0.717,-2.095488 -0.12869,0.647952 -0.31024,1.291296 -0.54464,1.930048 z m 7.56822,4.1496 V 9.445391 h 2.01312 l 2.3923,7.15496 c 0.22062,0.66632 0.38148,1.164928 0.4826,1.495792 0.1149,-0.367632 0.29415,-0.907584 0.53775,-1.619872 l 2.41988,-7.03088 h 1.79939 v 10.105168 h -1.28922 v -8.457744 l -2.93695,8.457744 h -1.20649 l -2.92315,-8.602496 v 8.602496 z m 11.82335,0 V 9.445391 h 7.30788 v 1.192496 h -5.9704 v 3.09496 h 5.59123 v 1.1856 h -5.59123 v 3.439632 h 6.20482 v 1.19248 z m 11.95985,0 v -8.912672 h -3.32992 V 9.445391 h 8.0111 v 1.192496 h -3.34371 v 8.912672 z m 6.07768,0 V 9.445391 h 7.30789 v 1.192496 h -5.9704 v 3.09496 h 5.59121 v 1.1856 h -5.59121 v 3.439632 h 6.20481 v 1.19248 z m 9.40897,0 V 9.445391 h 4.48127 c 0.90083,0 1.58566,0.09075 2.05448,0.272272 0.4688,0.18152 0.84339,0.502048 1.12376,0.961568 0.28037,0.459536 0.42054,0.967328 0.42054,1.52336 0,0.71688 -0.23211,1.321168 -0.69632,1.812864 -0.46421,0.491712 -1.18121,0.804192 -2.15099,0.937456 0.35389,0.170032 0.62277,0.33776 0.80662,0.5032 0.39068,0.358432 0.76066,0.80648 1.10997,1.344144 l 1.75803,2.750304 h -1.68219 l -1.33749,-2.102368 c -0.39067,-0.606592 -0.7124,-1.07072 -0.96518,-1.392384 -0.2528,-0.32168 -0.47915,-0.546848 -0.67909,-0.67552 -0.19993,-0.128672 -0.40331,-0.218288 -0.61014,-0.268832 -0.15167,-0.03216 -0.39986,-0.04826 -0.74458,-0.04826 h -1.5512 v 4.48736 z m 1.33749,-5.645376 h 2.8749 c 0.61128,0 1.08929,-0.0632 1.434,-0.189568 0.34472,-0.126368 0.60669,-0.32856 0.78595,-0.606592 0.17925,-0.278016 0.26886,-0.58016 0.26886,-0.906432 0,-0.477904 -0.1735,-0.870816 -0.52051,-1.178704 -0.34701,-0.307888 -0.8951,-0.461824 -1.64427,-0.461824 h -3.19893 z m 8.37925,2.398768 1.26165,-0.110288 c 0.0597,0.505488 0.19878,0.920224 0.4171,1.244192 0.21832,0.323968 0.55728,0.585904 1.0169,0.785808 0.45961,0.199888 0.97669,0.29984 1.55121,0.29984 0.51018,0 0.9606,-0.07582 1.35127,-0.227472 0.39067,-0.151648 0.68137,-0.359584 0.87213,-0.623808 0.19073,-0.26424 0.28611,-0.552592 0.28611,-0.865088 0,-0.317072 -0.0919,-0.593936 -0.27578,-0.830608 -0.18385,-0.236656 -0.4872,-0.435408 -0.91003,-0.59624 -0.27118,-0.105696 -0.87098,-0.269984 -1.79941,-0.492848 -0.92843,-0.22288 -1.57878,-0.43312 -1.95107,-0.63072 -0.48259,-0.252752 -0.84224,-0.566384 -1.07894,-0.940896 -0.23671,-0.374528 -0.35506,-0.793856 -0.35506,-1.257984 0,-0.51008 0.14478,-0.986848 0.43434,-1.430304 0.28956,-0.44344 0.7124,-0.780064 1.26854,-1.009824 0.55613,-0.22976 1.17432,-0.344656 1.85454,-0.344656 0.74919,0 1.40988,0.12064 1.9821,0.361888 0.57222,0.241264 1.0123,0.596256 1.32026,1.064976 0.30793,0.46872 0.47339,0.999488 0.49638,1.592288 l -1.28234,0.0965 c -0.0689,-0.638752 -0.3022,-1.121264 -0.69976,-1.447536 -0.39756,-0.326256 -0.98473,-0.489392 -1.76147,-0.489392 -0.80893,0 -1.39838,0.148192 -1.76838,0.444592 -0.36999,0.2964 -0.55498,0.653696 -0.55498,1.071872 0,0.363024 0.13099,0.661728 0.39296,0.896096 0.25739,0.234352 0.92957,0.474464 2.01658,0.72032 1.08699,0.24584 1.8327,0.460672 2.23718,0.644496 0.58829,0.27112 1.02263,0.614624 1.30301,1.030512 0.28035,0.415872 0.42054,0.894944 0.42054,1.437184 0,0.537664 -0.15396,1.044304 -0.46192,1.51992 -0.30793,0.475616 -0.75033,0.845536 -1.32713,1.109776 -0.57682,0.26424 -1.22603,0.396352 -1.94762,0.396352 -0.91464,0 -1.68105,-0.133264 -2.29923,-0.399792 -0.61819,-0.266544 -1.10307,-0.667488 -1.45469,-1.202848 -0.3516,-0.535344 -0.53661,-1.140784 -0.55499,-1.816304 z"
     style="fill:#000000;fill-opacity:1;fill-rule:nonzero;stroke:none;stroke-width:0.16"
     id="path194" /><path
     d="M 39.397615,0.68313497 H 184.69079 V 31.193904 H 39.397615 Z"
     style="fill:none;stroke:#0000cd;stroke-width:1.36627;stroke-linecap:butt;stroke-linejoin:bevel;stroke-miterlimit:10;stroke-dasharray:none;stroke-opacity:1"
     id="path202" /><path
     d="M 0.68313497,0.68313497 H 39.397615 V 31.193904 H 0.68313497 Z"
     style="fill:none;stroke:#0000cd;stroke-width:1.36627;stroke-linecap:butt;stroke-linejoin:bevel;stroke-miterlimit:10;stroke-dasharray:none;stroke-opacity:1"
     id="path204" /><path
     d="m 22.545435,12.978519 -2.73279,1.821539 -3.18825,-1.821539 V 6.14775"
     style="fill:none;stroke:#0000cd;stroke-width:0.455425;stroke-linecap:butt;stroke-linejoin:bevel;stroke-miterlimit:10;stroke-dasharray:none;stroke-opacity:1"
     id="path206" /><path
     d="m 10.247885,8.424673 2.73279,-2.276923 3.64372,1.366154"
     style="fill:none;stroke:#0000cd;stroke-width:0.455425;stroke-linecap:butt;stroke-linejoin:bevel;stroke-miterlimit:10;stroke-dasharray:none;stroke-opacity:1"
     id="path208" /><path
     d="m 7.515105,12.978519 0.91093,-1.821538 h 3.64371"
     style="fill:none;stroke:#0000cd;stroke-width:0.455425;stroke-linecap:butt;stroke-linejoin:bevel;stroke-miterlimit:10;stroke-dasharray:none;stroke-opacity:1"
     id="path210" /><path
     d="m 16.624395,23.452366 0.91093,3.643076"
     style="fill:none;stroke:#0000cd;stroke-width:0.455425;stroke-linecap:butt;stroke-linejoin:bevel;stroke-miterlimit:10;stroke-dasharray:none;stroke-opacity:1"
     id="path212" /><path
     d="m 16.624395,17.532366 0.91093,3.187692"
     style="fill:none;stroke:#0000cd;stroke-width:0.455425;stroke-linecap:butt;stroke-linejoin:bevel;stroke-miterlimit:10;stroke-dasharray:none;stroke-opacity:1"
     id="path214" /><path
     d="m 13.891605,16.621596 2.73279,0.91077 v 5.92 l -2.73279,-0.91077"
     style="fill:none;stroke:#0000cd;stroke-width:0.455425;stroke-linecap:butt;stroke-linejoin:bevel;stroke-miterlimit:10;stroke-dasharray:none;stroke-opacity:1"
     id="path216" /><path
     d="m 10.247885,18.898519 -1.82185,-2.276923 v 5.92 l 1.82185,1.821539"
     style="fill:none;stroke:#0000cd;stroke-width:0.455425;stroke-linecap:butt;stroke-linejoin:bevel;stroke-miterlimit:10;stroke-dasharray:none;stroke-opacity:1"
     id="path218" /><path
     d="m 13.891605,16.621596 -3.64372,2.276923 v 5.464616 l 3.64372,-1.821539 z"
     style="fill:none;stroke:#0000cd;stroke-width:0.455425;stroke-linecap:butt;stroke-linejoin:bevel;stroke-miterlimit:10;stroke-dasharray:none;stroke-opacity:1"
     id="path220" /><path
     d="M 19.812645,7.513904 16.624395,6.14775 V 4.326212 l 3.18825,-0.910769 2.73279,0.910769 V 6.14775 Z"
     style="fill:none;stroke:#0000cd;stroke-width:0.455425;stroke-linecap:butt;stroke-linejoin:bevel;stroke-miterlimit:10;stroke-dasharray:none;stroke-opacity:1"
     id="path222" /><path
     d="M 28.921935,8.424673 26.189145,6.14775 22.545435,7.513904"
     style="fill:none;stroke:#0000cd;stroke-width:0.455425;stroke-linecap:butt;stroke-linejoin:bevel;stroke-miterlimit:10;stroke-dasharray:none;stroke-opacity:1"
     id="path224" /><path
     d="m 27.100075,11.156981 -1.82186,-1.821538 3.64372,-0.91077 v 2.732308"
     style="fill:none;stroke:#0000cd;stroke-width:0.455425;stroke-linecap:butt;stroke-linejoin:bevel;stroke-miterlimit:10;stroke-dasharray:none;stroke-opacity:1"
     id="path226" /><path
     d="m 32.110185,12.978519 -0.91093,-1.821538 h -4.09918"
     style="fill:none;stroke:#0000cd;stroke-width:0.455425;stroke-linecap:butt;stroke-linejoin:bevel;stroke-miterlimit:10;stroke-dasharray:none;stroke-opacity:1"
     id="path228" /><path
     d="m 32.110185,12.978519 v 5.92 h -0.91093"
     style="fill:none;stroke:#0000cd;stroke-width:0.455425;stroke-linecap:butt;stroke-linejoin:bevel;stroke-miterlimit:10;stroke-dasharray:none;stroke-opacity:1"
     id="path230" /><path
     d="m 27.100075,14.800058 0.91093,-1.821539"
     style="fill:none;stroke:#0000cd;stroke-width:0.455425;stroke-linecap:butt;stroke-linejoin:bevel;stroke-miterlimit:10;stroke-dasharray:none;stroke-opacity:1"
     id="path232" /><path
     d="m 22.545435,23.452366 -0.91093,3.643076"
     style="fill:none;stroke:#0000cd;stroke-width:0.455425;stroke-linecap:butt;stroke-linejoin:bevel;stroke-miterlimit:10;stroke-dasharray:none;stroke-opacity:1"
     id="path234" /><path
     d="m 22.545435,17.532366 -0.91093,3.187692"
     style="fill:none;stroke:#0000cd;stroke-width:0.455425;stroke-linecap:butt;stroke-linejoin:bevel;stroke-miterlimit:10;stroke-dasharray:none;stroke-opacity:1"
     id="path236" /><path
     d="m 25.278215,16.621596 -2.73278,0.91077 v 5.92 l 2.73278,-0.91077"
     style="fill:none;stroke:#0000cd;stroke-width:0.455425;stroke-linecap:butt;stroke-linejoin:bevel;stroke-miterlimit:10;stroke-dasharray:none;stroke-opacity:1"
     id="path238" /><path
     d="m 31.199255,16.621596 -4.09918,-1.821538"
     style="fill:none;stroke:#0000cd;stroke-width:0.455425;stroke-linecap:butt;stroke-linejoin:bevel;stroke-miterlimit:10;stroke-dasharray:none;stroke-opacity:1"
     id="path240" /><path
     d="m 28.921935,18.898519 2.27732,-2.276923 v 5.92 l -2.27732,1.821539"
     style="fill:none;stroke:#0000cd;stroke-width:0.455425;stroke-linecap:butt;stroke-linejoin:bevel;stroke-miterlimit:10;stroke-dasharray:none;stroke-opacity:1"
     id="path242" /><path
     d="m 25.278215,16.621596 3.64372,2.276923 v 5.464616 l -3.64372,-1.821539 z"
     style="fill:none;stroke:#0000cd;stroke-width:0.455425;stroke-linecap:butt;stroke-linejoin:bevel;stroke-miterlimit:10;stroke-dasharray:none;stroke-opacity:1"
     id="path244" /><path
     d="m 17.535325,27.095442 h 2.27732 m -2.27732,-6.375384 v 6.375384 m 0,-6.375384 h 2.27732 M 22.545435,6.14775 v 6.830769 m 5.46557,0 h 4.09918 m -12.29754,14.116923 h 1.82186 m 0,-6.375384 v 6.375384 m -1.82186,-6.375384 h 1.82186"
     style="fill:none;stroke:#0000cd;stroke-width:0.455425;stroke-linecap:butt;stroke-linejoin:bevel;stroke-miterlimit:10;stroke-dasharray:none;stroke-opacity:1"
     id="path246" /><path
     d="m 4.326855,31.193903 v 3.643072 H 188.33451 V 4.326207 h -3.64371 v 26.867696 z"
     style="fill:#0000cd;fill-opacity:1;fill-rule:nonzero;stroke:none;stroke-width:0.16"
     id="path250" /><path
     d="m 19.812645,7.513903 2.73279,-1.36616 v 6.830768 l -2.73279,1.821536 z"
     style="fill:#0000cd;fill-opacity:1;fill-rule:nonzero;stroke:none;stroke-width:0.16"
     id="path252" /><path
     d="m 16.624395,6.14775 3.18825,1.366154 v 7.286154 l -3.18825,-1.821539 z"
     style="fill:none;stroke:#0000cd;stroke-width:0.455425;stroke-linecap:butt;stroke-linejoin:bevel;stroke-miterlimit:10;stroke-dasharray:none;stroke-opacity:1"
     id="path256" /><path
     d="m 16.624395,6.14775 3.18825,1.366154"
     style="fill:none;stroke:#0000cd;stroke-width:0.455425;stroke-linecap:butt;stroke-linejoin:bevel;stroke-miterlimit:10;stroke-dasharray:none;stroke-opacity:1"
     id="path258" /><path
     d="m 22.545435,17.532351 -0.91093,3.187696 v 6.375392 l 0.91093,-3.643088 z"
     style="fill:#0000cd;fill-opacity:1;fill-rule:nonzero;stroke:none;stroke-width:0.16"
     id="path262" /><path
     d="m 13.891605,16.621583 -3.64371,2.276928 v 5.464624 l 3.64371,-1.821552 z"
     style="fill:#0000cd;fill-opacity:1;fill-rule:nonzero;stroke:none;stroke-width:0.16"
     id="path264" /><path
     d="m 25.278215,16.621583 -2.73278,0.910768 v 5.92 l 2.73278,-0.910768 z"
     style="fill:#0000cd;fill-opacity:1;fill-rule:nonzero;stroke:none;stroke-width:0.16"
     id="path266" /><path
     d="m 25.278215,16.621583 3.64372,2.276928 v 5.464624 l -3.64372,-1.821552 z"
     style="fill:#0000cd;fill-opacity:1;fill-rule:nonzero;stroke:none;stroke-width:0.16"
     id="path268" /><path
     d="m 28.011005,12.978511 -0.91093,1.821536 4.09918,1.821536 v 2.276928 h 0.91093 v -5.92 z"
     style="fill:#0000cd;fill-opacity:1;fill-rule:nonzero;stroke:none;stroke-width:0.16"
     id="path270" /><path
     d="m 25.278215,9.335439 3.64372,-0.910768 v 2.732304 h -1.82186 z"
     style="fill:#0000cd;fill-opacity:1;fill-rule:nonzero;stroke:none;stroke-width:0.16"
     id="path272" /><path
     d="m 13.891605,16.621583 2.73279,0.910768 0.91093,3.187696 v 6.375392 l -0.91093,-3.643088 -2.73279,-0.910768 z"
     style="fill:#0000cd;fill-opacity:1;fill-rule:nonzero;stroke:none;stroke-width:0.16"
     id="path274" /><path
     d="m 10.247895,8.424671 3.64371,0.910768 -1.82186,1.821536 h -1.82185 z"
     style="fill:#0000cd;fill-opacity:1;fill-rule:nonzero;stroke:none;stroke-width:0.16"
     id="path276" /><path
     d="m 8.426035,18.898511 h -0.91093 v -5.92 h 3.64371 l 0.91093,1.821536 -3.64371,1.821536 z"
     style="fill:#0000cd;fill-opacity:1;fill-rule:nonzero;stroke:none;stroke-width:0.16"
     id="path278" /><path
     d="m 16.265895,62.647265 1.09885,-0.096 c 0.052,0.44025 0.17313,0.80147 0.36328,1.08365 0.19015,0.28216 0.48538,0.5103 0.88569,0.68441 0.40031,0.1741 0.85066,0.26115 1.35105,0.26115 0.44434,0 0.83665,-0.0661 1.17691,-0.19812 0.34027,-0.13208 0.59346,-0.31319 0.75959,-0.54332 0.16613,-0.23014 0.24919,-0.48129 0.24919,-0.75345 0,-0.27618 -0.0801,-0.51731 -0.24018,-0.72344 -0.16013,-0.20613 -0.42433,-0.37923 -0.79262,-0.51931 -0.23618,-0.0921 -0.75859,-0.23514 -1.56721,-0.42927 -0.80863,-0.19411 -1.37507,-0.37721 -1.69932,-0.54933 -0.42033,-0.22012 -0.73357,-0.49329 -0.93973,-0.81948 -0.20616,-0.3262 -0.30924,-0.69141 -0.30924,-1.09567 0,-0.44425 0.1261,-0.8595 0.37829,-1.24574 0.2522,-0.38623 0.62048,-0.67941 1.10486,-0.87952 0.48438,-0.20013 1.02279,-0.30019 1.61525,-0.30019 0.65251,0 1.22796,0.10507 1.72634,0.3152 0.49839,0.21012 0.88169,0.51931 1.1499,0.92755 0.2682,0.40824 0.41232,0.87053 0.43233,1.38683 l -1.11687,0.084 c -0.06,-0.55634 -0.2632,-0.97658 -0.60947,-1.26075 -0.34627,-0.28418 -0.85767,-0.42626 -1.53419,-0.42626 -0.70454,0 -1.21794,0.12907 -1.5402,0.38723 -0.32224,0.25816 -0.48337,0.56935 -0.48337,0.93357 0,0.31618 0.11409,0.57634 0.34227,0.78047 0.22417,0.20411 0.80962,0.41324 1.75636,0.62737 0.94673,0.21413 1.59624,0.40123 1.94851,0.56133 0.5124,0.23614 0.89069,0.53533 1.13488,0.89755 0.24419,0.36221 0.36629,0.77946 0.36629,1.25175 0,0.46828 -0.13411,0.90955 -0.40232,1.32379 -0.2682,0.41425 -0.6535,0.73645 -1.15589,0.96659 -0.50239,0.23013 -1.06783,0.3452 -1.69632,0.3452 -0.79662,0 -1.46414,-0.11606 -2.00255,-0.34821 -0.53842,-0.23214 -0.96075,-0.58134 -1.26699,-1.04763 -0.30623,-0.46627 -0.46736,-0.9936 -0.48337,-1.58195 z m 8.59723,2.82769 v -8.80128 h 3.32058 c 0.58445,0 1.03079,0.028 1.33903,0.084 0.43234,0.0721 0.79462,0.20914 1.08685,0.41125 0.29222,0.20213 0.52741,0.4853 0.70554,0.84951 0.17814,0.36422 0.26721,0.76446 0.26721,1.20073 0,0.74845 -0.23818,1.38183 -0.71455,1.90013 -0.47637,0.51832 -1.33704,0.77747 -2.58201,0.77747 h -2.25775 v 3.57815 z m 1.1649,-4.61676 h 2.27577 c 0.75258,0 1.287,-0.14008 1.60324,-0.42026 0.31625,-0.28016 0.47437,-0.6744 0.47437,-1.1827 0,-0.36823 -0.0931,-0.68341 -0.27922,-0.94557 -0.18614,-0.26216 -0.43133,-0.43527 -0.73557,-0.51931 -0.19615,-0.052 -0.55843,-0.078 -1.08684,-0.078 h -2.25175 z m 10.66884,4.61676 h -1.08084 v -6.88612 c -0.2602,0.24814 -0.60147,0.4963 -1.02379,0.74444 -0.42233,0.24815 -0.80162,0.43426 -1.13788,0.55834 v -1.04462 c 0.60446,-0.28418 1.13287,-0.62839 1.58522,-1.03263 0.45235,-0.40424 0.7726,-0.79648 0.96075,-1.1767 h 0.69654 z"
     style="fill:#0000ff;fill-opacity:1;fill-rule:nonzero;stroke:none;stroke-width:0.16"
     id="path426" /><path
     d="m 16.265895,77.674955 1.09885,-0.0961 c 0.052,0.44028 0.17313,0.80149 0.36328,1.08367 0.19015,0.28216 0.48538,0.5103 0.88569,0.6844 0.40031,0.17411 0.85066,0.26117 1.35105,0.26117 0.44434,0 0.83665,-0.066 1.17691,-0.19813 0.34027,-0.13208 0.59346,-0.31319 0.75959,-0.54333 0.16613,-0.23013 0.24919,-0.48128 0.24919,-0.75344 0,-0.27618 -0.0801,-0.51731 -0.24018,-0.72344 -0.16013,-0.20613 -0.42433,-0.37923 -0.79262,-0.51931 -0.23618,-0.0921 -0.75859,-0.23514 -1.56721,-0.42927 -0.80863,-0.19411 -1.37507,-0.37721 -1.69932,-0.54932 -0.42033,-0.22013 -0.73357,-0.4933 -0.93973,-0.81949 -0.20616,-0.32619 -0.30924,-0.69143 -0.30924,-1.09567 0,-0.44425 0.1261,-0.85952 0.37829,-1.24574 0.2522,-0.38622 0.62048,-0.67941 1.10486,-0.87954 0.48438,-0.20011 1.02279,-0.30017 1.61525,-0.30017 0.65251,0 1.22796,0.10507 1.72634,0.3152 0.49839,0.21011 0.88169,0.51931 1.1499,0.92755 0.2682,0.40824 0.41232,0.87053 0.43233,1.38683 l -1.11687,0.084 c -0.06,-0.55633 -0.2632,-0.97659 -0.60947,-1.26075 -0.34627,-0.28418 -0.85767,-0.42626 -1.53419,-0.42626 -0.70454,0 -1.21794,0.12908 -1.5402,0.38724 -0.32224,0.25814 -0.48337,0.56934 -0.48337,0.93355 0,0.31619 0.11409,0.57635 0.34227,0.78048 0.22417,0.20411 0.80962,0.41325 1.75636,0.62737 0.94673,0.21413 1.59624,0.40124 1.94851,0.56133 0.5124,0.23615 0.89069,0.53533 1.13488,0.89754 0.24419,0.36222 0.36629,0.77947 0.36629,1.25176 0,0.46827 -0.13411,0.90955 -0.40232,1.32379 -0.2682,0.41426 -0.6535,0.73645 -1.15589,0.96658 -0.50239,0.23014 -1.06783,0.34521 -1.69632,0.34521 -0.79662,0 -1.46414,-0.11608 -2.00255,-0.34821 -0.53842,-0.23214 -0.96075,-0.58136 -1.26699,-1.04763 -0.30623,-0.46629 -0.46736,-0.9936 -0.48337,-1.58195 z m 10.81895,1.86112 0.15612,0.95458 c -0.30423,0.064 -0.57644,0.0961 -0.81663,0.0961 -0.3923,0 -0.69654,-0.062 -0.91271,-0.18611 -0.21617,-0.12407 -0.36828,-0.28717 -0.45635,-0.48928 -0.0881,-0.20213 -0.1321,-0.62739 -0.1321,-1.27578 v -3.66821 h -0.79262 v -0.84049 h 0.79262 v -1.57895 l 1.07483,-0.6484 v 2.22735 h 1.08684 v 0.84049 h -1.08684 v 3.72824 c 0,0.3082 0.019,0.50631 0.0571,0.59437 0.038,0.0881 0.10008,0.1581 0.18614,0.21013 0.0861,0.052 0.20917,0.0781 0.36929,0.0781 0.12009,0 0.27822,-0.0141 0.47437,-0.042 z m 5.41813,-1.08665 1.11686,0.13808 c -0.17613,0.6524 -0.50239,1.1587 -0.97876,1.51891 -0.47637,0.36022 -1.08484,0.54034 -1.82541,0.54034 -0.93273,0 -1.6723,-0.28719 -2.21872,-0.86152 -0.54643,-0.57436 -0.81964,-1.37984 -0.81964,-2.41647 0,-1.07264 0.27621,-1.90513 0.82864,-2.49749 0.55243,-0.59235 1.26899,-0.88854 2.14967,-0.88854 0.85266,0 1.5492,0.29018 2.08962,0.87053 0.54042,0.58035 0.81063,1.39685 0.81063,2.44947 0,0.0641 -0.002,0.1601 -0.006,0.28818 h -4.75569 c 0.04,0.70041 0.23818,1.23673 0.59446,1.60896 0.35628,0.37222 0.80062,0.55833 1.33304,0.55833 0.3963,0 0.73456,-0.10406 1.01478,-0.31219 0.28022,-0.20811 0.50239,-0.54032 0.66652,-0.99659 z m -3.54876,-1.74704 h 3.56077 c -0.048,-0.53634 -0.18415,-0.93858 -0.40832,-1.20674 -0.34427,-0.41624 -0.79062,-0.62437 -1.33904,-0.62437 -0.49639,0 -0.91371,0.1661 -1.25197,0.49831 -0.33826,0.33219 -0.52541,0.77646 -0.56144,1.3328 z m 6.01619,6.24374 v -8.81929 h 0.98477 v 0.82849 c 0.23218,-0.32419 0.49438,-0.56734 0.78661,-0.72944 0.29222,-0.16209 0.6465,-0.24315 1.06282,-0.24315 0.54442,0 1.02479,0.1401 1.44112,0.42026 0.41632,0.28017 0.73056,0.6754 0.94273,1.18571 0.21216,0.5103 0.31825,1.06965 0.31825,1.67801 0,0.65239 -0.11709,1.23975 -0.35128,1.76205 -0.23418,0.52232 -0.57444,0.92256 -1.02079,1.20072 -0.44635,0.27818 -0.91571,0.41727 -1.40809,0.41727 -0.36028,0 -0.68353,-0.0761 -0.96975,-0.22815 -0.28623,-0.15209 -0.52141,-0.34421 -0.70555,-0.57635 v 3.10387 z m 0.97876,-5.59536 c 0,0.8205 0.16613,1.42685 0.49839,1.81909 0.33225,0.39224 0.73457,0.58835 1.20693,0.58835 0.48038,0 0.8917,-0.20312 1.23396,-0.60936 0.34227,-0.40624 0.5134,-1.03561 0.5134,-1.88813 0,-0.81249 -0.16713,-1.42086 -0.50139,-1.8251 -0.33426,-0.40424 -0.73357,-0.60637 -1.19793,-0.60637 -0.46036,0 -0.86767,0.21514 -1.22195,0.64539 -0.35427,0.43026 -0.53141,1.05564 -0.53141,1.87613 z m 11.54047,-2.02321 h -5.81251 v -1.00861 h 5.81251 z m 0,2.6716 h -5.81251 v -1.00861 h 5.81251 z m 5.26321,2.5035 h -1.08084 v -6.88613 c -0.2602,0.24815 -0.60147,0.49629 -1.02379,0.74445 -0.42234,0.24814 -0.80163,0.43426 -1.13789,0.55834 v -1.04464 c 0.60447,-0.28416 1.13288,-0.62837 1.58523,-1.03261 0.45235,-0.40426 0.7726,-0.79648 0.96075,-1.17672 h 0.69654 z m 2.76166,-4.34061 c 0,-1.04062 0.10708,-1.87813 0.32125,-2.51251 0.21416,-0.63437 0.53241,-1.12366 0.95474,-1.46787 0.42233,-0.34421 0.95374,-0.51632 1.59424,-0.51632 0.47236,0 0.88668,0.0951 1.24296,0.28518 0.35628,0.19011 0.65051,0.46427 0.88269,0.8225 0.23218,0.35821 0.41432,0.79446 0.54642,1.30878 0.1321,0.51431 0.19816,1.20773 0.19816,2.08024 0,1.03263 -0.10609,1.86613 -0.31825,2.50051 -0.21217,0.63437 -0.52941,1.12468 -0.95174,1.47088 -0.42233,0.34621 -0.95574,0.51932 -1.60024,0.51932 -0.84866,0 -1.51518,-0.3042 -1.99955,-0.91255 -0.58046,-0.73245 -0.87068,-1.92517 -0.87068,-3.57816 z m 1.11086,0 c 0,1.44488 0.16913,2.40645 0.5074,2.88474 0.33826,0.47829 0.75558,0.71742 1.25197,0.71742 0.49638,0 0.91371,-0.24014 1.25197,-0.72043 0.33826,-0.48029 0.50739,-1.44086 0.50739,-2.88173 0,-1.44886 -0.16913,-2.41144 -0.50739,-2.88773 -0.33826,-0.47628 -0.75959,-0.71443 -1.26398,-0.71443 -0.49639,0 -0.89269,0.21013 -1.18892,0.63039 -0.37229,0.53632 -0.55844,1.52691 -0.55844,2.97177 z m 9.53684,4.34061 v -8.80128 h 1.75336 l 2.08362,6.23174 c 0.19215,0.58036 0.33226,1.01461 0.42033,1.30279 0.10007,-0.32019 0.25619,-0.79048 0.46836,-1.41085 l 2.10764,-6.12368 h 1.56721 v 8.80128 h -1.12287 v -7.36642 l -2.55798,7.36642 h -1.05082 l -2.54598,-7.4925 v 7.4925 z m 10.30976,0 v -8.80128 h 1.16491 v 3.61416 h 4.57555 v -3.61416 h 1.1649 v 8.80128 h -1.1649 v -4.1485 h -4.57555 v 4.1485 z m 8.13271,0 v -0.87653 l 4.05915,-4.6588 c -0.46036,0.024 -0.86667,0.036 -1.21894,0.036 h -2.60002 v -0.87653 h 5.21204 v 0.71444 l -3.45268,4.04643 -0.66651,0.73843 c 0.48437,-0.036 0.93872,-0.054 1.36305,-0.054 h 2.94829 v 0.93056 z"
     style="fill:#000080;fill-opacity:1;fill-rule:nonzero;stroke:none;stroke-width:0.16"
     id="path618" /><path
     d="m 22.943075,92.444495 1.1649,0.29418 c -0.24419,0.95657 -0.68353,1.68601 -1.31802,2.18832 -0.63449,0.5023 -1.41009,0.75345 -2.3268,0.75345 -0.94874,0 -1.72034,-0.19312 -2.3148,-0.57936 -0.59446,-0.38622 -1.04681,-0.94556 -1.35705,-1.678 -0.31024,-0.73244 -0.46536,-1.51891 -0.46536,-2.35942 0,-0.91654 0.17513,-1.71603 0.5254,-2.39843 0.35027,-0.68242 0.84866,-1.20072 1.49516,-1.55495 0.6465,-0.3542 1.35806,-0.53131 2.13466,-0.53131 0.88068,0 1.62126,0.22413 2.22172,0.6724 0.60047,0.44827 1.01879,1.07866 1.25498,1.89114 l -1.14689,0.27016 c -0.20416,-0.64039 -0.50039,-1.10666 -0.88869,-1.39883 -0.3883,-0.29218 -0.87668,-0.43828 -1.46514,-0.43828 -0.67652,0 -1.24196,0.1621 -1.69632,0.48631 -0.45435,0.32419 -0.7736,0.75945 -0.95774,1.30577 -0.18414,0.54634 -0.27621,1.10967 -0.27621,1.69002 0,0.74845 0.10908,1.40184 0.32725,1.96018 0.21817,0.55833 0.55743,0.97558 1.01779,1.25176 0.46036,0.27616 0.95874,0.41424 1.49516,0.41424 0.65251,0 1.20494,-0.18812 1.65729,-0.56434 0.45235,-0.37622 0.75859,-0.93456 0.91871,-1.67501 z m 6.82369,1.03263 1.11687,0.13808 c -0.17614,0.6524 -0.50239,1.1587 -0.97876,1.51891 -0.47637,0.36022 -1.08484,0.54032 -1.82542,0.54032 -0.93272,0 -1.67229,-0.28717 -2.21872,-0.86151 -0.54642,-0.57435 -0.81963,-1.37984 -0.81963,-2.41646 0,-1.07264 0.27621,-1.90514 0.82864,-2.49749 0.55243,-0.59237 1.26898,-0.88854 2.14967,-0.88854 0.85266,0 1.5492,0.29017 2.08962,0.87053 0.54042,0.58035 0.81063,1.39683 0.81063,2.44947 0,0.064 -0.002,0.16009 -0.006,0.28817 h -4.75569 c 0.04,0.70042 0.23818,1.23674 0.59446,1.60896 0.35628,0.37223 0.80062,0.55834 1.33303,0.55834 0.39631,0 0.73457,-0.10406 1.01479,-0.31219 0.28022,-0.20811 0.50239,-0.54032 0.66652,-0.99659 z m -3.54875,-1.74706 h 3.56076 c -0.048,-0.53632 -0.18414,-0.93856 -0.40831,-1.20672 -0.34427,-0.41626 -0.79062,-0.62437 -1.33904,-0.62437 -0.49639,0 -0.91371,0.1661 -1.25197,0.49829 -0.33827,0.33221 -0.52541,0.77646 -0.56144,1.3328 z m 6.01619,3.80029 v -6.37583 h 0.97275 v 0.90655 c 0.46837,-0.70043 1.14489,-1.05064 2.02958,-1.05064 0.3843,0 0.73757,0.069 1.05982,0.20713 0.32225,0.13808 0.56344,0.31919 0.72356,0.54332 0.16012,0.22414 0.27221,0.4903 0.33626,0.79848 0.04,0.20012 0.0601,0.55033 0.0601,1.05064 v 3.92035 h -1.08084 v -3.87834 c 0,-0.44025 -0.042,-0.76945 -0.12609,-0.98758 -0.0841,-0.21813 -0.23319,-0.39224 -0.44735,-0.52232 -0.21417,-0.13008 -0.46536,-0.19512 -0.75358,-0.19512 -0.46036,0 -0.85767,0.14609 -1.19193,0.43827 -0.33426,0.29218 -0.50139,0.84651 -0.50139,1.66299 v 3.4821 z m 9.19265,-0.96658 0.15612,0.95458 c -0.30423,0.064 -0.57645,0.0961 -0.81663,0.0961 -0.39231,0 -0.69654,-0.062 -0.91271,-0.18612 -0.21617,-0.12408 -0.36829,-0.28716 -0.45635,-0.48929 -0.0881,-0.20211 -0.13211,-0.62738 -0.13211,-1.27576 v -3.66821 h -0.79261 v -0.8405 h 0.79261 v -1.57896 l 1.07484,-0.64838 v 2.22734 h 1.08684 v 0.8405 h -1.08684 v 3.72824 c 0,0.30819 0.019,0.5063 0.057,0.59435 0.038,0.0881 0.10008,0.1581 0.18614,0.21013 0.0861,0.052 0.20916,0.078 0.36929,0.078 0.12009,0 0.27821,-0.0141 0.47437,-0.042 z m 5.41812,-1.08665 1.11687,0.13808 c -0.17614,0.6524 -0.50239,1.1587 -0.97876,1.51891 -0.47637,0.36022 -1.08484,0.54032 -1.82541,0.54032 -0.93273,0 -1.6723,-0.28717 -2.21873,-0.86151 -0.54642,-0.57435 -0.81963,-1.37984 -0.81963,-2.41646 0,-1.07264 0.27621,-1.90514 0.82864,-2.49749 0.55243,-0.59237 1.26898,-0.88854 2.14967,-0.88854 0.85266,0 1.5492,0.29017 2.08962,0.87053 0.54042,0.58035 0.81063,1.39683 0.81063,2.44947 0,0.064 -0.002,0.16009 -0.006,0.28817 h -4.75569 c 0.04,0.70042 0.23818,1.23674 0.59446,1.60896 0.35628,0.37223 0.80062,0.55834 1.33303,0.55834 0.39631,0 0.73457,-0.10406 1.01479,-0.31219 0.28021,-0.20811 0.50239,-0.54032 0.66652,-0.99659 z m -3.54875,-1.74706 h 3.56076 c -0.048,-0.53632 -0.18414,-0.93856 -0.40831,-1.20672 -0.34427,-0.41626 -0.79062,-0.62437 -1.33904,-0.62437 -0.49639,0 -0.91371,0.1661 -1.25197,0.49829 -0.33827,0.33221 -0.52541,0.77646 -0.56144,1.3328 z m 6.00418,3.80029 v -6.37583 h 0.97275 v 0.96658 c 0.2482,-0.45227 0.47738,-0.75045 0.68754,-0.89454 0.21016,-0.14408 0.44134,-0.21613 0.69354,-0.21613 0.36428,0 0.73456,0.11608 1.11086,0.34821 l -0.37229,1.0026 c -0.26421,-0.15609 -0.52841,-0.23414 -0.79262,-0.23414 -0.23618,0 -0.44834,0.071 -0.63649,0.21314 -0.18815,0.14208 -0.32225,0.3392 -0.40231,0.59134 -0.12009,0.38424 -0.18014,0.8045 -0.18014,1.26077 v 3.338 z m 9.78735,-5.17511 h -5.8125 v -1.0086 h 5.8125 z m 0,2.6716 h -5.8125 v -1.0086 h 5.8125 z m 1.2641,-5.14508 v -1.03863 h 5.69843 v 0.8405 c -0.56044,0.59637 -1.11587,1.38885 -1.6663,2.37744 -0.55042,0.98859 -0.97575,2.0052 -1.27599,3.04982 -0.21616,0.73645 -0.35427,1.54293 -0.41432,2.41946 h -1.11086 c 0.012,-0.69242 0.14811,-1.52891 0.40832,-2.50951 0.2602,-0.98059 0.63349,-1.92616 1.11987,-2.8367 0.48637,-0.91054 1.00377,-1.67802 1.5522,-2.30238 z m 14.73087,4.19651 v -1.03261 l 3.7289,-0.006 v 3.26597 c -0.57245,0.45627 -1.16291,0.79949 -1.77138,1.02961 -0.60847,0.23015 -1.23296,0.34522 -1.87345,0.34522 -0.86467,0 -1.65028,-0.18512 -2.35683,-0.55534 -0.70655,-0.37023 -1.23996,-0.90554 -1.60024,-1.60597 -0.36028,-0.70042 -0.54042,-1.48288 -0.54042,-2.34741 0,-0.85651 0.17914,-1.65598 0.53742,-2.39843 0.35827,-0.74245 0.87367,-1.29378 1.5462,-1.654 0.67252,-0.36021 1.44712,-0.54032 2.3238,-0.54032 0.63649,0 1.21193,0.10305 1.72634,0.30918 0.5144,0.20613 0.91771,0.4933 1.20994,0.86152 0.29222,0.36823 0.5144,0.84851 0.66652,1.44087 l -1.05082,0.28817 c -0.1321,-0.44827 -0.29623,-0.80048 -0.49238,-1.05664 -0.19616,-0.25614 -0.47637,-0.46128 -0.84065,-0.61536 -0.36429,-0.15409 -0.7686,-0.23115 -1.21295,-0.23115 -0.53241,0 -0.99277,0.0811 -1.38107,0.24315 -0.3883,0.1621 -0.70154,0.37523 -0.93973,0.63939 -0.23818,0.26415 -0.42332,0.55432 -0.55543,0.87052 -0.22417,0.54433 -0.33626,1.13468 -0.33626,1.77107 0,0.78446 0.1351,1.44086 0.40532,1.96918 0.2702,0.52831 0.66351,0.92055 1.17991,1.17671 0.5164,0.25614 1.06482,0.38422 1.64528,0.38422 0.50439,0 0.99677,-0.0971 1.47714,-0.29117 0.48038,-0.19413 0.84466,-0.40125 1.09285,-0.62137 v -1.639 h -2.58801 z m 5.47817,3.45208 v -8.80128 h 1.16491 v 3.61416 h 4.57555 v -3.61416 h 1.1649 v 8.80128 h -1.1649 v -4.1485 h -4.57555 v 4.1485 z m 8.13271,0 v -0.87653 l 4.05915,-4.6588 c -0.46036,0.024 -0.86667,0.036 -1.21894,0.036 h -2.60002 v -0.87653 h 5.21205 v 0.71442 l -3.45268,4.04643 -0.66652,0.73845 c 0.48437,-0.036 0.93872,-0.054 1.36306,-0.054 h 2.94828 v 0.93056 z"
     style="fill:#000080;fill-opacity:1;fill-rule:nonzero;stroke:none;stroke-width:0.16"
     id="path630" /><path
     d="m 16.265895,107.73035 1.09885,-0.0961 c 0.052,0.44028 0.17313,0.80149 0.36328,1.08365 0.19015,0.28218 0.48538,0.51031 0.88569,0.68442 0.40031,0.17409 0.85066,0.26115 1.35105,0.26115 0.44434,0 0.83665,-0.066 1.17691,-0.19811 0.34027,-0.13208 0.59346,-0.3132 0.75959,-0.54333 0.16613,-0.23014 0.24919,-0.4813 0.24919,-0.75346 0,-0.27616 -0.0801,-0.51731 -0.24018,-0.72344 -0.16013,-0.20611 -0.42433,-0.37921 -0.79262,-0.51931 -0.23618,-0.0921 -0.75859,-0.23513 -1.56721,-0.42925 -0.80863,-0.19411 -1.37507,-0.37723 -1.69932,-0.54932 -0.42033,-0.22015 -0.73357,-0.4933 -0.93973,-0.81951 -0.20616,-0.32619 -0.30924,-0.69141 -0.30924,-1.09565 0,-0.44427 0.1261,-0.85952 0.37829,-1.24574 0.2522,-0.38624 0.62048,-0.67941 1.10486,-0.87954 0.48438,-0.20011 1.02279,-0.30017 1.61525,-0.30017 0.65251,0 1.22796,0.10505 1.72634,0.31518 0.49839,0.21013 0.88169,0.51931 1.1499,0.92755 0.2682,0.40826 0.41232,0.87053 0.43233,1.38684 l -1.11687,0.0841 c -0.06,-0.55634 -0.2632,-0.97659 -0.60947,-1.26077 -0.34627,-0.28416 -0.85767,-0.42625 -1.53419,-0.42625 -0.70454,0 -1.21794,0.12908 -1.5402,0.38723 -0.32224,0.25816 -0.48337,0.56934 -0.48337,0.93357 0,0.31619 0.11409,0.57633 0.34227,0.78046 0.22417,0.20413 0.80962,0.41325 1.75636,0.62738 0.94673,0.21412 1.59624,0.40124 1.94851,0.56134 0.5124,0.23614 0.89069,0.53531 1.13488,0.89754 0.24419,0.36222 0.36629,0.77947 0.36629,1.25174 0,0.46829 -0.13411,0.90955 -0.40232,1.32381 -0.2682,0.41424 -0.6535,0.73643 -1.15589,0.96657 -0.50239,0.23015 -1.06783,0.3452 -1.69632,0.3452 -0.79662,0 -1.46414,-0.11606 -2.00255,-0.3482 -0.53842,-0.23213 -0.96075,-0.58135 -1.26699,-1.04764 -0.30623,-0.46627 -0.46736,-0.99358 -0.48337,-1.58193 z m 8.45912,5.27115 v -8.8193 h 0.98477 v 0.82852 c 0.23217,-0.32421 0.49438,-0.56735 0.78661,-0.72944 0.29222,-0.1621 0.6465,-0.24316 1.06282,-0.24316 0.54442,0 1.0248,0.14008 1.44112,0.42026 0.41632,0.28016 0.73057,0.67541 0.94273,1.18571 0.21217,0.51031 0.31825,1.06963 0.31825,1.678 0,0.6524 -0.11709,1.23975 -0.35128,1.76207 -0.23418,0.52232 -0.57444,0.92256 -1.02079,1.20072 -0.44634,0.27816 -0.91571,0.41724 -1.40809,0.41724 -0.36028,0 -0.68353,-0.076 -0.96975,-0.22812 -0.28622,-0.1521 -0.52141,-0.34421 -0.70555,-0.57636 v 3.10386 z m 0.97876,-5.59536 c 0,0.8205 0.16613,1.42686 0.49839,1.8191 0.33226,0.39223 0.73457,0.58836 1.20693,0.58836 0.48038,0 0.8917,-0.20312 1.23396,-0.60938 0.34227,-0.40624 0.5134,-1.03562 0.5134,-1.88813 0,-0.81248 -0.16713,-1.42085 -0.50139,-1.82509 -0.33426,-0.40425 -0.73357,-0.60636 -1.19793,-0.60636 -0.46036,0 -0.86767,0.21512 -1.22195,0.64539 -0.35427,0.43025 -0.53141,1.05563 -0.53141,1.87611 z m 10.01529,2.36542 c -0.40031,0.34021 -0.78561,0.58036 -1.1559,0.72044 -0.37028,0.14009 -0.76759,0.21012 -1.19192,0.21012 -0.70054,0 -1.23896,-0.1711 -1.61525,-0.51331 -0.3763,-0.34219 -0.56444,-0.77945 -0.56444,-1.31177 0,-0.3122 0.0711,-0.59736 0.21317,-0.85552 0.1421,-0.25816 0.32825,-0.46528 0.55843,-0.62138 0.23018,-0.1561 0.48938,-0.27416 0.7776,-0.35421 0.21217,-0.056 0.53241,-0.11006 0.96075,-0.16209 0.87267,-0.10407 1.51517,-0.22815 1.92749,-0.37223 0.004,-0.14809 0.006,-0.24214 0.006,-0.28217 0,-0.44026 -0.10208,-0.75045 -0.30623,-0.93056 -0.27622,-0.24415 -0.68654,-0.36621 -1.23096,-0.36621 -0.5084,0 -0.88369,0.089 -1.12587,0.26715 -0.24219,0.17811 -0.42133,0.4933 -0.53742,0.94557 l -1.05682,-0.14408 c 0.0961,-0.45227 0.2542,-0.81749 0.47437,-1.09567 0.22017,-0.27816 0.53841,-0.49228 0.95474,-0.64238 0.41632,-0.1501 0.8987,-0.22514 1.44712,-0.22514 0.54442,0 0.98677,0.064 1.32703,0.19212 0.34027,0.12808 0.59046,0.28918 0.75058,0.48329 0.16013,0.19411 0.27221,0.43927 0.33626,0.73544 0.036,0.18411 0.054,0.51631 0.054,0.99659 v 1.44087 c 0,1.00461 0.023,1.64 0.0691,1.90616 0.046,0.26616 0.13711,0.52131 0.27321,0.76545 h -1.12887 c -0.11209,-0.22414 -0.18414,-0.4863 -0.21617,-0.78648 z m -0.0901,-2.41344 c -0.3923,0.1601 -0.98076,0.29618 -1.76537,0.40824 -0.44434,0.064 -0.75859,0.13608 -0.94273,0.21613 -0.18414,0.08 -0.32625,0.19712 -0.42633,0.35122 -0.10008,0.15409 -0.15012,0.32518 -0.15012,0.51329 0,0.28818 0.10909,0.52832 0.32726,0.72044 0.21817,0.19212 0.53742,0.28817 0.95774,0.28817 0.41632,0 0.78661,-0.091 1.11086,-0.27315 0.32426,-0.18211 0.56244,-0.43126 0.71456,-0.74746 0.11609,-0.24414 0.17413,-0.60436 0.17413,-1.08064 z m 2.76167,3.19992 v -6.37584 h 0.97275 v 0.90655 c 0.46836,-0.70042 1.14489,-1.05063 2.02957,-1.05063 0.3843,0 0.73758,0.069 1.05983,0.20712 0.32225,0.13808 0.56343,0.3192 0.72356,0.54333 0.16012,0.22415 0.27221,0.49031 0.33626,0.79848 0.04,0.20013 0.06,0.55034 0.06,1.05064 v 3.92035 h -1.08084 v -3.87833 c 0,-0.44026 -0.042,-0.76946 -0.1261,-0.9876 -0.0841,-0.21813 -0.23318,-0.39223 -0.44735,-0.52231 -0.21416,-0.13008 -0.46536,-0.19512 -0.75358,-0.19512 -0.46036,0 -0.85766,0.1461 -1.19192,0.43828 -0.33426,0.29217 -0.50139,0.84649 -0.50139,1.66299 v 3.48209 z m 12.51923,-5.17512 h -5.81251 v -1.00859 h 5.81251 z m 0,2.67162 h -5.81251 v -1.00861 h 5.81251 z m 6.8004,-4.1425 -1.07484,0.084 c -0.0961,-0.42424 -0.23218,-0.73243 -0.40831,-0.92454 -0.29223,-0.30819 -0.65251,-0.46229 -1.08084,-0.46229 -0.34427,0 -0.64651,0.0961 -0.90671,0.28818 -0.34026,0.24816 -0.60847,0.61036 -0.80462,1.08665 -0.19615,0.47629 -0.29823,1.15469 -0.30624,2.03522 0.2602,-0.39623 0.57845,-0.69042 0.95474,-0.88253 0.37629,-0.19211 0.7706,-0.28818 1.18292,-0.28818 0.72056,0 1.33403,0.26517 1.84043,0.79549 0.50639,0.53032 0.75959,1.21573 0.75959,2.05623 0,0.55233 -0.1191,1.06564 -0.35728,1.53993 -0.23819,0.47429 -0.56544,0.83751 -0.98176,1.08965 -0.41633,0.25216 -0.88869,0.37822 -1.4171,0.37822 -0.9007,0 -1.63527,-0.3312 -2.20371,-0.99358 -0.56844,-0.6624 -0.85266,-1.75406 -0.85266,-3.27498 0,-1.70102 0.31424,-2.93776 0.94273,-3.71022 0.54842,-0.6724 1.287,-1.00861 2.21572,-1.00861 0.69253,0 1.25997,0.19411 1.70232,0.58235 0.44234,0.38823 0.70755,0.92456 0.79562,1.60896 z m -4.41343,3.79429 c 0,0.37223 0.0791,0.72843 0.23719,1.06864 0.15812,0.34021 0.37929,0.59936 0.66351,0.77747 0.28422,0.1781 0.58245,0.26716 0.8947,0.26716 0.45635,0 0.84865,-0.18412 1.17691,-0.55234 0.32825,-0.36822 0.49238,-0.86851 0.49238,-1.5009 0,-0.60836 -0.16213,-1.08764 -0.48638,-1.43787 -0.32425,-0.35021 -0.73257,-0.52531 -1.22495,-0.52531 -0.48838,0 -0.9027,0.1751 -1.24296,0.52531 -0.34027,0.35023 -0.5104,0.80949 -0.5104,1.37784 z m 13.608,-0.60037 v -1.03262 l 3.72889,-0.006 v 3.26597 c -0.57244,0.45627 -1.1629,0.79947 -1.77137,1.02961 -0.60848,0.23015 -1.23296,0.3452 -1.87346,0.3452 -0.86467,0 -1.65028,-0.1851 -2.35682,-0.55532 -0.70656,-0.37023 -1.23997,-0.90554 -1.60025,-1.60597 -0.36028,-0.70042 -0.54041,-1.48288 -0.54041,-2.34741 0,-0.85651 0.17913,-1.656 0.53741,-2.39843 0.35828,-0.74245 0.87368,-1.29378 1.5462,-1.654 0.67252,-0.36023 1.44712,-0.54032 2.3238,-0.54032 0.6365,0 1.21194,0.10305 1.72634,0.30918 0.5144,0.20613 0.91771,0.4933 1.20994,0.86152 0.29223,0.36823 0.5144,0.84851 0.66652,1.44087 l -1.05081,0.28817 c -0.13211,-0.44827 -0.29624,-0.80048 -0.49239,-1.05664 -0.19615,-0.25616 -0.47637,-0.46128 -0.84065,-0.61537 -0.36429,-0.15408 -0.7686,-0.23114 -1.21294,-0.23114 -0.53242,0 -0.99277,0.0811 -1.38107,0.24315 -0.38831,0.1621 -0.70155,0.37522 -0.93973,0.63938 -0.23819,0.26416 -0.42333,0.55433 -0.55543,0.87053 -0.22418,0.54432 -0.33626,1.13468 -0.33626,1.77105 0,0.78448 0.1351,1.44088 0.40531,1.96919 0.27021,0.52832 0.66352,0.92056 1.17992,1.17672 0.5164,0.25614 1.06482,0.38422 1.64527,0.38422 0.50439,0 0.99677,-0.0971 1.47715,-0.29117 0.48037,-0.19413 0.84465,-0.40125 1.09285,-0.62137 v -1.639 z m 5.47817,3.45208 v -8.80129 h 1.1649 v 3.61417 h 4.57555 v -3.61417 h 1.16491 v 8.80129 h -1.16491 v -4.14849 h -4.57555 v 4.14849 z m 8.13271,0 v -0.87652 l 4.05915,-4.6588 c -0.46036,0.024 -0.86668,0.036 -1.21895,0.036 h -2.60001 v -0.87653 h 5.21204 v 0.71444 l -3.45268,4.04643 -0.66652,0.73845 c 0.48438,-0.036 0.93873,-0.054 1.36306,-0.054 h 2.94829 v 0.93056 z"
     style="fill:#000080;fill-opacity:1;fill-rule:nonzero;stroke:none;stroke-width:0.16"
     id="path642" /><path
     d="m 16.265895,47.619585 1.09885,-0.0961 c 0.052,0.44025 0.17313,0.80149 0.36328,1.08365 0.19015,0.28217 0.48538,0.5103 0.88569,0.68441 0.40031,0.1741 0.85066,0.26115 1.35105,0.26115 0.44434,0 0.83665,-0.066 1.17691,-0.19811 0.34027,-0.13208 0.59346,-0.3132 0.75959,-0.54333 0.16613,-0.23014 0.24919,-0.48129 0.24919,-0.75345 0,-0.27616 -0.0801,-0.51731 -0.24018,-0.72344 -0.16013,-0.20611 -0.42433,-0.37922 -0.79262,-0.51931 -0.23618,-0.0921 -0.75859,-0.23514 -1.56721,-0.42925 -0.80863,-0.19413 -1.37507,-0.37723 -1.69932,-0.54933 -0.42033,-0.22014 -0.73357,-0.4933 -0.93973,-0.8195 -0.20616,-0.3262 -0.30924,-0.69141 -0.30924,-1.09565 0,-0.44427 0.1261,-0.85952 0.37829,-1.24576 0.2522,-0.38623 0.62048,-0.67941 1.10486,-0.87952 0.48438,-0.20013 1.02279,-0.30018 1.61525,-0.30018 0.65251,0 1.22796,0.10506 1.72634,0.31519 0.49839,0.21012 0.88169,0.51931 1.1499,0.92755 0.2682,0.40825 0.41232,0.87053 0.43233,1.38683 l -1.11687,0.0841 c -0.06,-0.55634 -0.2632,-0.97659 -0.60947,-1.26077 -0.34627,-0.28416 -0.85767,-0.42625 -1.53419,-0.42625 -0.70454,0 -1.21794,0.12908 -1.5402,0.38723 -0.32224,0.25816 -0.48337,0.56934 -0.48337,0.93357 0,0.31619 0.11409,0.57633 0.34227,0.78046 0.22417,0.20413 0.80962,0.41325 1.75636,0.62738 0.94673,0.21412 1.59624,0.40124 1.94851,0.56134 0.5124,0.23614 0.89069,0.53531 1.13488,0.89754 0.24419,0.3622 0.36629,0.77947 0.36629,1.25174 0,0.46829 -0.13411,0.90955 -0.40232,1.32379 -0.2682,0.41426 -0.6535,0.73645 -1.15589,0.96659 -0.50239,0.23013 -1.06783,0.3452 -1.69632,0.3452 -0.79662,0 -1.46414,-0.11606 -2.00255,-0.3482 -0.53842,-0.23215 -0.96075,-0.58135 -1.26699,-1.04764 -0.30623,-0.46627 -0.46736,-0.99358 -0.48337,-1.58193 z m 7.46235,5.27115 v -0.78046 h 7.16356 v 0.78046 z m 7.9677,-2.44346 v -8.80129 h 3.32058 c 0.58445,0 1.0308,0.028 1.33904,0.0841 0.43233,0.072 0.79461,0.20913 1.08684,0.41125 0.29223,0.20212 0.52741,0.48529 0.70555,0.84952 0.17813,0.3642 0.2672,0.76444 0.2672,1.20072 0,0.74844 -0.23818,1.38182 -0.71455,1.90014 -0.47637,0.5183 -1.33704,0.77746 -2.582,0.77746 h -2.25775 v 3.57816 z m 1.16491,-4.61678 h 2.27576 c 0.75258,0 1.287,-0.14008 1.60324,-0.42024 0.31625,-0.28018 0.47437,-0.67442 0.47437,-1.18272 0,-0.36822 -0.0931,-0.68341 -0.27921,-0.94557 -0.18615,-0.26216 -0.43134,-0.43526 -0.73557,-0.51931 -0.19616,-0.052 -0.55844,-0.0781 -1.08685,-0.0781 h -2.25174 z m 11.05914,3.8303 c -0.40032,0.34021 -0.78562,0.58036 -1.1559,0.72044 -0.37029,0.14008 -0.7676,0.21012 -1.19193,0.21012 -0.70054,0 -1.23896,-0.1711 -1.61525,-0.51331 -0.37629,-0.34221 -0.56444,-0.77945 -0.56444,-1.31177 0,-0.3122 0.0711,-0.59736 0.21317,-0.85552 0.14211,-0.25816 0.32825,-0.46528 0.55843,-0.62138 0.23018,-0.1561 0.48938,-0.27416 0.7776,-0.35421 0.21217,-0.056 0.53242,-0.11006 0.96075,-0.16209 0.87268,-0.10407 1.51518,-0.22815 1.92749,-0.37223 0.004,-0.14809 0.006,-0.24214 0.006,-0.28217 0,-0.44026 -0.10208,-0.75045 -0.30624,-0.93056 -0.27622,-0.24415 -0.68654,-0.36621 -1.23096,-0.36621 -0.50839,0 -0.88368,0.089 -1.12587,0.26715 -0.24219,0.17811 -0.42133,0.4933 -0.53742,0.94557 l -1.05682,-0.14408 c 0.0961,-0.45227 0.2542,-0.81751 0.47437,-1.09567 0.22017,-0.27816 0.53841,-0.49228 0.95474,-0.64238 0.41632,-0.1501 0.8987,-0.22514 1.44712,-0.22514 0.54443,0 0.98677,0.064 1.32703,0.19212 0.34026,0.12808 0.59046,0.28918 0.75059,0.48329 0.16012,0.19411 0.27221,0.43927 0.33626,0.73544 0.036,0.18411 0.054,0.51631 0.054,0.99659 v 1.44087 c -10e-6,1.00461 0.023,1.63998 0.0691,1.90614 0.046,0.26616 0.1371,0.52133 0.27321,0.76547 h -1.12888 c -0.11209,-0.22414 -0.18414,-0.4863 -0.21617,-0.78648 z m -0.0901,-2.41344 c -0.39231,0.16008 -0.98076,0.29618 -1.76537,0.40824 -0.44435,0.064 -0.75859,0.13608 -0.94273,0.21613 -0.18415,0.08 -0.32626,0.19712 -0.42634,0.35122 -0.10007,0.15408 -0.15011,0.32518 -0.15011,0.51329 0,0.28818 0.10908,0.52832 0.32725,0.72044 0.21817,0.19212 0.53742,0.28817 0.95775,0.28817 0.41632,0 0.7866,-0.0911 1.11086,-0.27315 0.32425,-0.18211 0.56243,-0.43126 0.71455,-0.74746 0.11609,-0.24414 0.17414,-0.60436 0.17414,-1.08065 z m 2.74965,3.19992 v -6.37584 h 0.97275 v 0.9666 c 0.2482,-0.45228 0.47738,-0.75047 0.68754,-0.89455 0.21016,-0.14408 0.44134,-0.21613 0.69354,-0.21613 0.36428,0 0.73456,0.11607 1.11086,0.34821 l -0.37229,1.00261 c -0.26421,-0.1561 -0.52841,-0.23414 -0.79262,-0.23414 -0.23618,0 -0.44834,0.071 -0.63649,0.21312 -0.18815,0.14209 -0.32225,0.33921 -0.40231,0.59136 -0.12009,0.38422 -0.18014,0.80448 -0.18014,1.26075 v 3.33801 z m 8.26217,-0.78648 c -0.40031,0.34021 -0.78561,0.58036 -1.1559,0.72044 -0.37028,0.14008 -0.76759,0.21012 -1.19192,0.21012 -0.70055,0 -1.23896,-0.1711 -1.61525,-0.51331 -0.3763,-0.34221 -0.56444,-0.77945 -0.56444,-1.31177 0,-0.3122 0.071,-0.59736 0.21316,-0.85552 0.14211,-0.25816 0.32826,-0.46528 0.55844,-0.62138 0.23017,-0.1561 0.48938,-0.27416 0.7776,-0.35421 0.21216,-0.056 0.53241,-0.11006 0.96075,-0.16209 0.87267,-0.10407 1.51517,-0.22815 1.92749,-0.37223 0.004,-0.14809 0.006,-0.24214 0.006,-0.28217 0,-0.44026 -0.10208,-0.75045 -0.30623,-0.93056 -0.27622,-0.24415 -0.68654,-0.36621 -1.23096,-0.36621 -0.5084,0 -0.88369,0.089 -1.12587,0.26715 -0.24219,0.17811 -0.42133,0.4933 -0.53742,0.94557 l -1.05682,-0.14408 c 0.0961,-0.45227 0.25419,-0.81751 0.47437,-1.09567 0.22017,-0.27816 0.53841,-0.49228 0.95474,-0.64238 0.41632,-0.1501 0.89869,-0.22514 1.44712,-0.22514 0.54442,0 0.98676,0.064 1.32703,0.19212 0.34026,0.12808 0.59046,0.28918 0.75058,0.48329 0.16012,0.19411 0.27221,0.43927 0.33626,0.73544 0.036,0.18411 0.054,0.51631 0.054,0.99659 v 1.44087 c 0,1.00461 0.023,1.63998 0.0691,1.90614 0.046,0.26616 0.13711,0.52133 0.27321,0.76547 h -1.12885 c -0.11209,-0.22414 -0.18414,-0.4863 -0.21617,-0.78648 z m -0.0901,-2.41344 c -0.39231,0.16008 -0.98077,0.29618 -1.76537,0.40824 -0.44435,0.064 -0.75859,0.13608 -0.94273,0.21613 -0.18415,0.08 -0.32626,0.19712 -0.42633,0.35122 -0.10008,0.15408 -0.15012,0.32518 -0.15012,0.51329 0,0.28818 0.10908,0.52832 0.32725,0.72044 0.21817,0.19212 0.53742,0.28817 0.95775,0.28817 0.41632,0 0.78661,-0.0911 1.11086,-0.27315 0.32425,-0.18211 0.56243,-0.43126 0.71455,-0.74746 0.11609,-0.24414 0.17414,-0.60436 0.17414,-1.08065 z m 2.76166,3.19992 v -6.37584 h 0.96675 v 0.89455 c 0.20016,-0.31219 0.46636,-0.56335 0.79862,-0.75346 0.33226,-0.19011 0.71055,-0.28517 1.13488,-0.28517 0.47237,0 0.85967,0.0981 1.1619,0.29418 0.30224,0.19611 0.5154,0.47029 0.6395,0.8225 0.50439,-0.74445 1.1609,-1.11668 1.96953,-1.11668 0.63249,0 1.11887,0.17511 1.45913,0.52532 0.34026,0.3502 0.51039,0.88953 0.5104,1.61796 v 4.37664 h -1.07484 v -4.01641 c 0,-0.43226 -0.035,-0.74344 -0.10508,-0.93357 -0.0701,-0.19011 -0.19715,-0.3432 -0.38129,-0.45926 -0.18415,-0.11608 -0.40032,-0.17412 -0.64851,-0.17412 -0.44835,0 -0.82064,0.14909 -1.11686,0.44727 -0.29624,0.29819 -0.44435,0.77547 -0.44435,1.43187 v 3.70422 h -1.08084 v -4.14249 c 0,-0.48029 -0.0881,-0.8405 -0.2642,-1.08064 -0.17614,-0.24015 -0.46437,-0.36023 -0.86467,-0.36023 -0.30424,0 -0.58546,0.08 -0.84366,0.24015 -0.2582,0.16009 -0.44535,0.39424 -0.56143,0.70241 -0.1161,0.3082 -0.17414,0.75247 -0.17414,1.3328 v 3.308 z"
     style="fill:#1e90ff;fill-opacity:1;fill-rule:nonzero;stroke:none;stroke-width:0.16"
     id="path1014" /></svg>
